<svg fill="none" height="40" viewBox="0 0 40 40" width="40" xmlns="http://www.w3.org/2000/svg"><path d="m38.6108 40h-37.22377c-1.117422-.5391-1.315227-.9844-.933498-2.0977 1.377698-4.0234 2.754528-8.0476 4.130488-12.0718.05205-.1524.08589-.3102.13881-.5039-.28543 0-.50146 0-.71748 0-1.24236-.0008-1.77417-.4727-1.77417-1.5821-.00087-2.2 0-4.4007 0-6.6008 0-.15 0-.3007 0-.4843-.21256 0-.35484-.0055-.49712.0008-.69752.0328-1.253633-.179-1.567692-.7672-.329675-.6164-.1422811-1.1508.335748-1.6508 1.094004-1.1445 2.189734-2.2883 3.249034-3.4578.57346-.6328 1.2198-.94143 2.12727-.6235.01649-.0703.03905-.1195.03731-.16871-.03383-.91953.44333-1.55782 1.26318-2.08516 2.90379-1.86875 5.77539-3.77969 8.67479-5.65469 1.2007-.77578 2.4431-1.50234 3.6681-2.25234h.8675c.4616.233594.95.433594 1.3803.707813 1.474.939067 2.9272 1.904687 4.3891 2.860157 2.2678 1.48281 4.5313 2.97109 6.806 4.44531.7106.46016 1.0923 1.05469 1.101 1.84375.0008.09609.0251.19137.0407.30627.6733-.22424 1.3022-.19846 1.7586.2695 1.2961 1.3297 2.5628 2.6836 3.8155 4.0469.3913.4258.4095.939.1319 1.4344-.2698.4804-.7149.7359-1.3213.7453-.2377.0031-.4754 0-.7357 0v.539c0 2.2383.0035 4.4774-.0017 6.7157-.0026.8789-.5917 1.4015-1.5686 1.4125-.2976.0031-.5951 0-.9335 0 .0547.1789.0876.3031.1293.425 1.402 4.1109 2.8014 8.2218 4.2103 12.3304.1379.4016.2394.8196-.0425 1.1625-.2438.2977-.6203.5071-.9379.7555zm-6.7861-23.3398c-.2056 0-.3626-.0055-.5196.0007-.7045.0274-1.2467-.2109-1.5426-.8023-.2941-.5875-.1327-1.1117.3254-1.5859.4554-.4711.8467-1.004 1.3577-1.418.9778-.7914 1.3282-1.7406 1.1339-2.88439-.0043-.02578-.0017-.05234-.0009-.07812.0105-.32422-.1327-.56797-.4303-.76172-3.8841-2.53438-7.7656-5.07344-11.6444-7.61406-.354-.23204-.6733-.22813-1.0272.00468-3.8789 2.54141-7.7604 5.07891-11.64538 7.61328-.29671.19375-.43465.43907-.43205.76172.00347.41641.02256.83441-.00694 1.24921-.02343.336.09456.5891.33835.8399.77127.7929 1.52692 1.5984 2.27302 2.4109.4164.4531.4763.9742.1995 1.5008-.27237.5187-.75648.7664-1.39674.7625-.21082-.0016-.42077 0-.62551 0v4.6437h7.36215c0-.182 0-.3367 0-.4914 0-2.239-.0078-4.4773.0026-6.7164.0078-1.6101 1.2814-2.7508 3.0651-2.7641.8381-.0062 1.677-.0015 2.5151-.0007 2.1065 0 3.3141 1.082 3.315 2.9718.0017 2.1868 0 4.3735 0 6.5602v.4391h7.383v-4.6422zm-30.07676 22.0086c1.11743 0 2.17239-.011 3.22648.007.29844.0047.39908-.0914.44246-.3399.24639-1.4164 1.52258-2.3562 3.30109-2.3461 7.01343.0383 14.02683.0157 21.04113.0157.1587 0 .3192.0078.4771-.0055.7904-.0656 1.3673-.4148 1.6493-1.0883.2767-.6601.1075-1.2601-.4321-1.7617-.419-.3898-.9586-.4914-1.5469-.4906-6.3341.0047-12.6682.0031-19.0023.0031-.2021 0-.4051.0039-.6073-.0078-1.62578-.0891-2.90631-1.4844-2.69896-2.9391.20301-1.4226 1.40286-2.375 3.02956-2.3758 5.9576-.0046 11.916-.0015 17.8736-.0023.1587 0 .3357.0367.4737-.0133.2845-.1039.6177-.2008.8068-.3969.5162-.539.1883-1.3664-.5821-1.5453-.2065-.0476-.4286-.0531-.6438-.0531-5.3502-.0031-10.7014 0-16.0517-.0039-1.5147-.0008-2.66947-.7836-3.01043-2.0258-.05465-.2-.07894-.407-.11625-.6062h-1.22934c0 .4601.01388.8898-.0026 1.3187-.02863.7383-.61945 1.2953-1.42715 1.3016-.3479.0023-.46328.1265-.55524.3984-1.00204 2.9586-2.01709 5.9141-3.02694 8.8703-.45808 1.3407-.91181 2.6821-1.38898 4.0868zm30.09326-15.9891h-20.9196c0 .093-.0113.1703.0017.2445.1128.6461.7305 1.068 1.5773 1.0688 4.2077.0015 8.4162.0007 12.6239.0007 1.258 0 2.5168-.0132 3.7739.0047 1.4792.0211 2.5984 1.036 2.601 2.3266.0026 1.3398-1.1487 2.3422-2.712 2.343-5.9576.0031-11.9152.0015-17.8736.0015-.1588 0-.3184-.0047-.4772.0047-.87622.0524-1.50174.7703-1.35165 1.5477.13621.7047.72615 1.1086 1.63275 1.1086 6.348.0007 12.6968 0 19.0448 0 .1883 0 .3766-.0024.5639.0062 1.638.0766 2.9602 1.2086 3.1484 2.693.1788 1.414-.8484 2.7969-2.4057 3.1711-.4529.1086-.9413.1304-1.4142.1312-7.0281.0078-14.0554.0047-21.08355.0063-1.02633 0-1.60847.4594-1.67006 1.3015h31.30701c-.0208-.0945-.0286-.1593-.0495-.221-1.4566-4.2602-2.9185-8.5196-4.3656-12.7829-.0858-.2515-.2151-.3109-.4849-.3172-.8659-.0195-1.4515-.5671-1.4654-1.3468-.0078-.4157-.0017-.8321-.0017-1.2922zm-8.9385-1.3609c.026-.0641.0442-.0875.0442-.1118.0026-2.4062.0208-4.8125-.0026-7.2187-.0078-.8031-.6463-1.3141-1.5451-1.3242-.8815-.0094-1.7629-.0032-2.6435-.0024-1.1504.0016-1.7308.5235-1.7316 1.5602-.0018 2.2242 0 4.4484 0 6.6734v.4227h5.8794zm-17.70878-9.9743c-1.25971 1.3313-2.47777 2.6196-3.76698 3.9821.50753 0 .88145-.0008 1.25624 0 .78688.0031 1.02806.2211 1.02806.9414.00087 2.4203 0 4.8406 0 7.2609v.4414h2.96014v-.4422c0-2.4336 0-4.8664 0-7.3 0-.6914.23511-.8984 1.01679-.9008.39301-.0015.78688 0 1.25884 0-1.28313-1.3617-2.49599-2.6476-3.75309-3.982zm25.84658 3.9821c.5023 0 .8719-.0008 1.2414 0 .8034.0023 1.0368.2093 1.0368.9257v7.2985.414h2.9575c0-.1703 0-.3117 0-.4539 0-2.407 0-4.814 0-7.2203 0-.764.2247-.9625 1.0871-.964h1.199c-1.284-1.3625-2.5012-2.6547-3.7505-3.9805-1.2467 1.3156-2.4622 2.5984-3.7705 3.9805z" fill="#298390"/></svg>