<svg fill="none" height="40" viewBox="0 0 40 40" width="40" xmlns="http://www.w3.org/2000/svg" xmlns:xlink="http://www.w3.org/1999/xlink"><mask id="a" fill="#fff"><path d="m38.2505 19.4765-7.875-11.33175-.0625-.06159c-.875-.92379-2.0625-1.41647-3.3125-1.41647-2.5 0-4.5625 2.03233-4.5625 4.49581 0 .6158-.1875 2.8329-1.25 2.8329h-2.3125c-1 0-1.25-2.2171-1.25-2.8329 0-2.46348-2.0625-4.49581-4.5625-4.49581-1.25 0-2.5.49268-3.31252 1.41647l-.0625.06159-7.93749 11.27015s0 .0616-.0625.0616c-1.062502 1.4781-1.68750172 3.2641-1.68750172 5.1732 0 4.8037 3.93750172 8.6836 8.81249172 8.6836 4.87502 0 8.81252-3.8799 8.81252-8.6836 0-4.311 1.1875-5.1732 1.375-5.2963h2.0625c.25.1847 1.375 1.1085 1.375 5.2963 0 4.8037 3.9375 8.6836 8.8125 8.6836s8.75-3.9415 8.75-8.6836c0-1.9091-.5625-3.6335-1.75-5.1732zm-29.43752 12.4404c-4.06249 0-7.43749-3.2641-7.43749-7.3287 0-1.6013.5-3.0793 1.4375-4.3111l.0625-.0615c1.4375-1.8476 3.56249-2.9562 5.93749-2.9562 4.06252 0 7.43752 3.2641 7.43752 7.3288 0 4.0646-3.375 7.3287-7.43752 7.3287zm7.81252-11.2087c0-.0615-.0625-.1231-.0625-.1231-.0625-.0616-.0625-.1232-.125-.1848-.125-.1847-.1875-.3695-.3125-.5543 0-.0615-.0625-.0615-.0625-.1231-.125-.1848-.3125-.3695-.4375-.6159-.0625-.0616-.0625-.0616-.125-.1232-.125-.1231-.25-.3079-.375-.4311-.0625-.0615-.0625-.1231-.125-.1231-.1875-.1848-.375-.308-.5625-.4927l-.0625-.0616c-.1875-.1232-.3125-.2463-.5-.3695-.0625-.0616-.125-.0616-.1875-.1232-.1875-.1232-.375-.2463-.5625-.3695l-.0625-.0616c-.25-.1232-.4375-.2463-.6875-.3079-.0625 0-.125-.0616-.1875-.0616-.1875-.0616-.375-.1232-.5625-.1848-.0625 0-.125-.0615-.1875-.0615-.25-.0616-.5-.1232-.75-.1848-.0625 0-.125 0-.125 0-.1875-.0616-.4375-.0616-.62502-.1232-.0625 0-.125 0-.1875 0-.25 0-.5625-.0616-.8125-.0616-.3125 0-.625 0-1 .0616-.125 0-.1875.0616-.3125.0616-.1875 0-.4375.0616-.625.1232-.125 0-.25.0616-.375.0616-.1875.0616-.375.1231-.5625.1847-.125.0616-.25.0616-.375.1232-.0625 0-.125.0616-.1875.0616l5.31252-7.63665c.625-.61586 1.4375-.98538 2.3125-.98538 1.75 0 3.1875 1.41648 3.1875 3.14093 0 1.3548.4375 3.5719 1.9375 4.0646v3.0177c-.5625.3079-1.1875.9854-1.625 2.4634zm2.875-5.4195h.9375v2.6482h-.9375zm3.875 5.4195c-.4375-1.478-1.0625-2.217-1.5-2.525v-3.0177c1.5-.4927 1.9375-2.7097 1.9375-4.0646 0-1.72444 1.4375-3.14091 3.1875-3.14091.875 0 1.6875.36951 2.3125.98537l5.3125 7.63664c-.0625 0-.125-.0616-.25-.0616-.125-.0616-.25-.0616-.375-.1232-.1875-.0615-.375-.1231-.5625-.1847-.125 0-.25-.0616-.375-.0616-.1875-.0616-.4375-.0616-.625-.1232-.125 0-.1875-.0616-.3125-.0616-.3125-.0615-.625-.0615-1-.0615-.25 0-.5625 0-.8125.0615-.0625 0-.125 0-.1875 0-.1875 0-.4375.0616-.625.1232-.0625 0-.125 0-.125 0-.25.0616-.5.1232-.75.1848-.0625 0-.125.0616-.1875.0616-.1875.0615-.375.1231-.5625.1847-.0625 0-.125.0616-.1875.0616-.25.1232-.4375.1848-.6875.3079l-.0625.0616c-.1875.1232-.375.2464-.5625.3695-.0625.0616-.125.0616-.1875.1232-.1875.1232-.375.2463-.5.3695l-.0625.0616c-.1875.1848-.375.3079-.5625.4927-.0625.0616-.0625.1232-.125.1232-.125.1231-.25.3079-.375.4311-.0625.0615-.0625.0615-.125.1231-.1875.1848-.3125.3695-.4375.6159 0 .0616-.0625.0616-.0625.1232-.125.1847-.25.3695-.3125.5542-.0625.0616-.0625.1232-.125.1848-.0625.1232-.125.1232-.125.1847zm7.8125 11.2087c-4.0625 0-7.4375-3.2641-7.4375-7.3287 0-4.0647 3.3125-7.3288 7.4375-7.3288 2.375 0 4.5 1.047 5.9375 2.9562.9375 1.2933 1.4375 2.7713 1.4375 4.311.0625 4.1262-3.25 7.3903-7.375 7.3903z" fill="#fff"/></mask><g fill="#298390" stroke="#298390"><path d="m8.81298 19.3607c.10583 0 .1875.091.1875.1775 0 .0864-.08167.1774-.1875.1774-2.76916 0-4.99999 2.1877-4.99999 4.9342 0 .0864-.08167.1774-.1875.1774s-.1875-.091-.1875-.1774c0-2.9194 2.39417-5.2891 5.37499-5.2891z"/><path d="m38.2505 19.4765-7.875-11.33175-.0625-.06159c-.875-.92379-2.0625-1.41647-3.3125-1.41647-2.5 0-4.5625 2.03233-4.5625 4.49581 0 .6158-.1875 2.8329-1.25 2.8329h-2.3125c-1 0-1.25-2.2171-1.25-2.8329 0-2.46348-2.0625-4.49581-4.5625-4.49581-1.25 0-2.5.49268-3.31252 1.41647l-.0625.06159-7.93749 11.27015s0 .0616-.0625.0616c-1.062502 1.4781-1.68750172 3.2641-1.68750172 5.1732 0 4.8037 3.93750172 8.6836 8.81249172 8.6836 4.87502 0 8.81252-3.8799 8.81252-8.6836 0-4.311 1.1875-5.1732 1.375-5.2963h2.0625c.25.1847 1.375 1.1085 1.375 5.2963 0 4.8037 3.9375 8.6836 8.8125 8.6836s8.75-3.9415 8.75-8.6836c0-1.9091-.5625-3.6335-1.75-5.1732zm-29.43752 12.4404c-4.06249 0-7.43749-3.2641-7.43749-7.3287 0-1.6013.5-3.0793 1.4375-4.3111l.0625-.0615c1.4375-1.8476 3.56249-2.9562 5.93749-2.9562 4.06252 0 7.43752 3.2641 7.43752 7.3288 0 4.0646-3.375 7.3287-7.43752 7.3287zm7.81252-11.2087c0-.0615-.0625-.1231-.0625-.1231-.0625-.0616-.0625-.1232-.125-.1848-.125-.1847-.1875-.3695-.3125-.5543 0-.0615-.0625-.0615-.0625-.1231-.125-.1848-.3125-.3695-.4375-.6159-.0625-.0616-.0625-.0616-.125-.1232-.125-.1231-.25-.3079-.375-.4311-.0625-.0615-.0625-.1231-.125-.1231-.1875-.1848-.375-.308-.5625-.4927l-.0625-.0616c-.1875-.1232-.3125-.2463-.5-.3695-.0625-.0616-.125-.0616-.1875-.1232-.1875-.1232-.375-.2463-.5625-.3695l-.0625-.0616c-.25-.1232-.4375-.2463-.6875-.3079-.0625 0-.125-.0616-.1875-.0616-.1875-.0616-.375-.1232-.5625-.1848-.0625 0-.125-.0615-.1875-.0615-.25-.0616-.5-.1232-.75-.1848-.0625 0-.125 0-.125 0-.1875-.0616-.4375-.0616-.62502-.1232-.0625 0-.125 0-.1875 0-.25 0-.5625-.0616-.8125-.0616-.3125 0-.625 0-1 .0616-.125 0-.1875.0616-.3125.0616-.1875 0-.4375.0616-.625.1232-.125 0-.25.0616-.375.0616-.1875.0616-.375.1231-.5625.1847-.125.0616-.25.0616-.375.1232-.0625 0-.125.0616-.1875.0616l5.31252-7.63665c.625-.61586 1.4375-.98538 2.3125-.98538 1.75 0 3.1875 1.41648 3.1875 3.14093 0 1.3548.4375 3.5719 1.9375 4.0646v3.0177c-.5625.3079-1.1875.9854-1.625 2.4634zm2.875-5.4195h.9375v2.6482h-.9375zm3.875 5.4195c-.4375-1.478-1.0625-2.217-1.5-2.525v-3.0177c1.5-.4927 1.9375-2.7097 1.9375-4.0646 0-1.72444 1.4375-3.14091 3.1875-3.14091.875 0 1.6875.36951 2.3125.98537l5.3125 7.63664c-.0625 0-.125-.0616-.25-.0616-.125-.0616-.25-.0616-.375-.1232-.1875-.0615-.375-.1231-.5625-.1847-.125 0-.25-.0616-.375-.0616-.1875-.0616-.4375-.0616-.625-.1232-.125 0-.1875-.0616-.3125-.0616-.3125-.0615-.625-.0615-1-.0615-.25 0-.5625 0-.8125.0615-.0625 0-.125 0-.1875 0-.1875 0-.4375.0616-.625.1232-.0625 0-.125 0-.125 0-.25.0616-.5.1232-.75.1848-.0625 0-.125.0616-.1875.0616-.1875.0615-.375.1231-.5625.1847-.0625 0-.125.0616-.1875.0616-.25.1232-.4375.1848-.6875.3079l-.0625.0616c-.1875.1232-.375.2464-.5625.3695-.0625.0616-.125.0616-.1875.1232-.1875.1232-.375.2463-.5.3695l-.0625.0616c-.1875.1848-.375.3079-.5625.4927-.0625.0616-.0625.1232-.125.1232-.125.1231-.25.3079-.375.4311-.0625.0615-.0625.0615-.125.1231-.1875.1848-.3125.3695-.4375.6159 0 .0616-.0625.0616-.0625.1232-.125.1847-.25.3695-.3125.5542-.0625.0616-.0625.1232-.125.1848-.0625.1232-.125.1232-.125.1847zm7.8125 11.2087c-4.0625 0-7.4375-3.2641-7.4375-7.3287 0-4.0647 3.3125-7.3288 7.4375-7.3288 2.375 0 4.5 1.047 5.9375 2.9562.9375 1.2933 1.4375 2.7713 1.4375 4.311.0625 4.1262-3.25 7.3903-7.375 7.3903z" mask="url(#a)" stroke-width="2"/><path d="m31.0005 19.5382c0-.0865.0817-.1775.1875-.1775 2.9808 0 5.375 2.3697 5.375 5.2891 0 .0864-.0817.1774-.1875.1774s-.1875-.091-.1875-.1774c0-2.7465-2.2308-4.9342-5-4.9342-.1058 0-.1875-.091-.1875-.1774z"/></g></svg>