<svg fill="none" height="40" viewBox="0 0 40 40" width="40" xmlns="http://www.w3.org/2000/svg"><g fill="#298390"><path d="m20.0001 28.6667c-2.42 0-4.381 1.9396-4.381 4.3333 0 2.3938 1.961 4.3334 4.381 4.3334s4.381-1.9396 4.381-4.3334c0-2.3937-1.961-4.3333-4.381-4.3333zm0 6.9333c-1.451 0-2.6286-1.1639-2.6286-2.6 0-1.436 1.1776-2.6 2.6286-2.6s2.6286 1.164 2.6286 2.6c0 1.4361-1.1776 2.6-2.6286 2.6z"/><path d="m28.0612 22.763c-.0026-.0018-.0053-.0035-.0079-.0044l.0088-.0104c-2.2282-1.716-5.0197-2.7482-8.0619-2.7482-3.0404 0-5.831 1.0314-8.0574 2.7448-.0009.0008-.0018.0017-.0027.0017 0 .0009-.0009.0009-.0017.0009v.0008c-1.3327 1.0314-1.5675 2.938-.5257 4.2562 1.0435 1.3208 2.9711 1.5531 4.3047.5218.0061-.0052.0114-.0104.0166-.0156 1.1829-.9005 2.6575-1.4439 4.2662-1.4439 1.6113 0 3.0903.5451 4.2741 1.4491l-.0079.0104c.007.0052.0105.0112.0175.0156 1.3336 1.0313 3.2621.799 4.3048-.5218 1.0426-1.3182.8078-3.2248-.5275-4.257zm-.8525 3.191c-.4469.5642-1.2714.6656-1.8436.2245l.0097-.013c-1.4843-1.1431-3.3462-1.8313-5.3746-1.8313-2.0143 0-3.864.6804-5.3448 1.8114l-.0017-.0026c-.0026.0026-.0053.0052-.007.0078-.007.0052-.0149.0104-.021.0156l.0008.0017c-.5712.4325-1.3887.3328-1.833-.2297-.4477-.565-.3469-1.3832.2261-1.8243.0061-.0052.014-.0061.0201-.0113l-.0026-.0043c1.9259-1.4759 4.3372-2.3634 6.9622-2.3634 2.6295 0 5.0434.8901 6.9719 2.3703l-.0123.0139c.007.0052.0158.0061.0219.0113.5731.4402.6738 1.2575.2279 1.8234zm6.2463-10.016c-.0061-.0044-.0131-.0078-.0193-.0122l-.0166.02c-.0026-.0009-.0044-.0026-.0061-.0044l.0227-.0286c-3.7124-2.86-8.3667-4.5794-13.4364-4.5794-5.0687 0-9.7222 1.7186-13.43374 4.5777l-.00087-.0017c-.00614.0043-.01402.0078-.02016.0121-1.33444 1.0331-1.57013 2.9389-.52659 4.2579 1.04355 1.3208 2.97117 1.5531 4.30476.5218.0026-.0018.0052-.0044.0079-.007 2.6715-2.0566 6.0203-3.2942 9.6687-3.2942 3.6468 0 6.9956 1.2368 9.6671 3.2925l-.007.0087c.0061.0052.0105.0112.0166.0156 1.3344 1.0313 3.2621.799 4.3047-.5218 1.0445-1.3182.8096-3.2248-.5257-4.257zm-.8525 3.191c-.4477.5651-1.2731.6656-1.8453.2236-.0061-.0043-.0087-.0104-.014-.0156l.0053-.006c-2.9703-2.288-6.6933-3.6634-10.7492-3.6634-4.0506 0-7.7692 1.3728-10.73682 3.6556l-.0035-.0052c-.00701.0052-.00876.0138-.01577.0182-.57128.442-1.39841.3423-1.84526-.2236-.44774-.5651-.34698-1.3832.22605-1.8244.00614-.0052.01402-.006.02016-.0112v-.0009c3.41364-2.6286 7.69204-4.2085 12.35434-4.2085 4.6639 0 8.9459 1.5816 12.3604 4.2128l.0184-.0225c.0009.0009.0018.0017.0018.0026l-.0255.0329c.0062.0052.0149.0061.0211.0113.573.4411.6746 1.2584.2278 1.8243zm6.2192-10.07065c-.0061-.00433-.014-.0078-.0193-.01213l-.0201.02427-1.43-1.07814c-4.9356-3.3566-10.9103-5.32566-17.3521-5.32566-6.4417 0-12.41738 1.9682-17.35209 5.32566l-1.43521 1.05647-.01489-.0182c-.00613.00433-.01402.0078-.02015.01213-1.334444 1.03305-1.570139 2.93885-.526595 4.25795 1.037415 1.3121 2.946635 1.5479 4.280195.5365l.00964.013c4.15753-3.2032 9.3805-5.11598 15.0591-5.11598 5.6777 0 10.9007 1.91278 15.0583 5.11598l.0008-.0018c1.3345 1.0184 3.2498.7835 4.2899-.5312 1.0426-1.32.8078-3.2258-.5275-4.25885zm-.8525 3.19105c-.4478.5651-1.2731.6656-1.8453.2236-.0061-.0052-.0088-.013-.0158-.0182l-.0043.0061c-4.4494-3.41815-10.0333-5.46001-16.1036-5.46001-6.0667 0-11.64633 2.04013-16.09476 5.45391l-.01226-.0164c-.00701.0052-.00877.0138-.01577.0182-.57128.442-1.39841.3423-1.84527-.2236-.44335-.5608-.34522-1.3659.21292-1.8114l.00613.0078c4.90055-3.77431 11.05581-6.02938 17.74811-6.02938 6.681 0 12.8266 2.24813 17.7228 6.01208l-.0009.0017c.0035.0026.007.0044.0114.0061.0044.0035.0105.0069.0149.0104.566.4429.6668 1.2558.2217 1.8191z"/></g></svg>