<svg height="77" viewBox="0 0 100 77" width="100" xmlns="http://www.w3.org/2000/svg"><path d="m91.2109375 0h-82.421875c-4.84023438 0-8.7890625 3.95057891-8.7890625 8.80253767v58.68358443c0 4.8355274 3.93125 8.8025377 8.7890625 8.8025377h82.421875c4.828125 0 8.7890625-3.9372773 8.7890625-8.8025377v-58.68358443c0-4.83552736-3.93125-8.80253767-8.7890625-8.80253767zm-1.2136719 5.86835845-39.8109375 39.87217025-40.1552734-39.87217025zm-84.1378906 60.40262225v-56.28127412l28.2185547 28.01945542zm4.1431641 4.1493206 28.2363281-28.2796193 9.8939453 9.8240233c1.1453125 1.1372878 2.9935547 1.1335712 4.1341797-.0089982l9.6470703-9.6618609 28.0833984 28.1264551zm84.1380859-4.1495162-28.0833984-28.1264552 28.0833984-28.1266508z" fill="#fff"/></svg>