<svg height="194" viewBox="0 0 194 194" width="194" xmlns="http://www.w3.org/2000/svg"><g fill="#fff" fill-rule="evenodd"><path d="m193.9515 194v-.008083h.0485v-71.1495c0-34.8068337-7.49325-61.6192503-48.18475-61.6192503-19.561667 0-32.689 10.7346666-38.04825 20.9115833h-.565833v-17.6620833h-38.5817503v129.5192503h40.1741663v-64.133167c0-16.886083 3.201-33.2144167 24.112584-33.2144167 20.604416 0 20.911583 19.2706667 20.911583 34.2975837v63.058083z"/><path d="m3.201 64.48075h40.2226667v129.51925h-40.2226667z"/><path d="m23.2961667 0c-12.8605834 0-23.2961667 10.4355833-23.2961667 23.2961667 0 12.8605833 10.4355833 23.5144166 23.2961667 23.5144166 12.8605833 0 23.2961666-10.6538333 23.2961666-23.5144166-.0080833-12.8605834-10.4436666-23.2961667-23.2961666-23.2961667z"/></g></svg>