<svg height="194" viewBox="0 0 158 194" width="158" xmlns="http://www.w3.org/2000/svg"><path d="m83.6406 0c-53.2899.00808333-81.6156 34.0793333-81.6156 71.2303333 0 17.2255834 9.6471 38.7191667 25.0938 45.5334167 4.4064 1.980417 3.8232-.4365 7.614-14.905667.2997-1.204416.1458-2.2471663-.8262-3.3707497-22.0806-25.48675-4.3092-77.8829166 46.5831-77.8829166 73.6533 0 59.8914 101.7045003 12.8142 101.7045003-12.1338 0-21.1734-9.506-18.3141-21.26725 3.4668-14.008417 10.2546-29.067667 10.2546-39.1637503 0-25.4463334-37.989-21.6714167-37.989 12.0441666 0 10.4194167 3.6936 17.4519167 3.6936 17.4519167s-12.2229 49.276-14.4909 58.482917c-3.8394 15.584666.5184 40.81275.8991 42.987166.2349 1.196334 1.5795 1.57625 2.3328.590084 1.2069-1.57625 15.9813-22.609084 20.1204-37.813834 1.5066-5.537083 7.6869-28.00875 7.6869-28.00875 4.0743 7.339667 15.8193 13.483 28.3338 13.483 37.2276 0 64.1358-32.656666 64.1358-73.1784163-.1296-38.8485-33.4449-67.9161667-76.3263-67.9161667z" fill="#fff" fill-rule="evenodd" transform="translate(-2)"/></svg>