<svg height="158" viewBox="0 0 194 158" width="194" xmlns="http://www.w3.org/2000/svg"><path d="m194 18.7047692c-7.214375 3.1721539-14.901625 5.2747693-22.91625 6.2956923 8.245-4.9344615 14.537875-12.6886153 17.496375-22.03492304-7.68725 4.59415385-16.17475 7.83923074-25.22 9.65015384-7.29925-7.79061538-17.7025-12.6156923-29.0515-12.6156923-22.019 0-39.74575 17.9147692-39.74575 39.8767692 0 3.16.26675 6.1984616.9215 9.091077-33.064875-1.6164616-62.3225-17.5015385-81.977125-41.6998462-3.431375 5.9675385-5.444125 12.798-5.444125 20.1510769 0 13.8067693 7.093125 26.0456923 17.666125 33.1313846-6.389875-.1215384-12.6585-1.9810769-17.96925-4.9101538v.4375385c0 19.3732307 13.786125 35.464923 31.8645 39.1718461-3.237375.8872308-6.76575 1.3126154-10.4275 1.3126154-2.54625 0-5.11675-.1458462-7.529625-.6806154 5.153125 15.7878457 19.775875 27.3947697 37.163125 27.7715387-13.5315 10.610307-30.712625 17.003231-49.312375 17.003231-3.261625 0-6.389875-.145847-9.518125-.546924 17.617625 11.388154 38.496875 17.890462 61.013 17.890462 73.1865 0 113.199-60.7692308 113.199-113.444 0-1.7623077-.060625-3.4638462-.1455-5.1532308 7.893375-5.6150769 14.52575-12.6278461 19.9335-20.698z" fill="#fff" fill-rule="evenodd"/></svg>