<svg height="194" viewBox="0 0 194 194" width="194" xmlns="http://www.w3.org/2000/svg"><g fill="#fff" fill-rule="evenodd"><path d="m141.514917 115.64825-.07275.60625c-17.77525-8.859333-19.634417-10.0395-21.930084-6.596-1.592416 2.384583-6.23225 7.792333-7.630666 9.392833-1.414584 1.57625-2.821084 1.6975-5.221834.60625-2.425-1.2125-10.2092497-3.75875-19.4242497-12.00375-7.178-6.42625-11.9956666-14.3074997-13.4183333-16.7324997-2.3684167-4.0901666 2.5866667-4.6721666 7.0971667-13.2081666.8083333-1.6975.3960833-3.03125-.2020834-4.2356667-.60625-1.2125-5.432-13.095-7.4528333-17.8318333-1.94-4.7206667-3.9365833-4.1225-5.432-4.1225-4.656-.4041667-8.0590833-.3395-11.058 2.7806666-13.0465 14.3398334-9.7565833 29.1323334 1.4065 44.8625 21.9381667 28.7119997 33.6266667 33.9984997 54.999 41.3381667 5.7715 1.834917 11.03375 1.57625 15.196667.978083 4.639833-.735583 14.28325-5.828083 16.296-11.526833 2.06125-5.69875 2.06125-10.4275 1.455-11.51875-.598167-1.09125-2.1825-1.6975-4.6075-2.78875z"/><path d="m165.87 27.8794167c-62.15275-60.0834167-165.01316667-16.5061667-165.05358333 68.2556666 0 16.9426667 4.43775 33.4649997 12.89291663 48.0554167l-13.7093333 49.8095 51.2079167-13.353667c63.8987503 34.515834 142.7597503-11.316666 142.7920833-84.4627497 0-25.6726666-10.023333-49.83375-28.25125-67.9889166zm11.9795 68.0374166c-.0485 61.7000837-67.77875 100.2333337-121.347 68.7406667l-2.91-1.729833-30.3125 7.88125 8.12375-29.46375-1.9319167-3.03125c-33.33566663-53.0670837 4.9631667-122.4220837 68.1101667-122.4220837 21.453167 0 41.58875 8.36625 56.753083 23.5225 15.15625 15.0269167 23.514417 35.1625 23.514417 56.5025z" fill-rule="nonzero"/></g></svg>