<svg width="100px" height="100px" viewBox="0 0 100 100" version="1.1" xmlns="http://www.w3.org/2000/svg" xmlns:xlink="http://www.w3.org/1999/xlink">
    <g stroke="none" stroke-width="1" fill="none" fill-rule="evenodd">
        <g transform="translate(-201.000000, -587.000000)" fill="#397AF6">
            <g transform="translate(201.000000, 587.000000)">
                <circle cx="50" cy="96.09375" r="3.90625"></circle>
                <circle cx="3.90625" cy="3.90625" r="3.90625"></circle>
                <circle cx="19.53125" cy="96.09375" r="3.90625"></circle>
                <circle cx="19.53125" cy="3.90625" r="3.90625"></circle>
                <circle cx="34.765625" cy="96.09375" r="3.90625"></circle>
                <circle cx="3.90625" cy="80.6640625" r="3.90625"></circle>
                <circle cx="3.90625" cy="65.234375" r="3.90625"></circle>
                <circle cx="3.90625" cy="19.3359375" r="3.90625"></circle>
                <circle cx="3.90625" cy="96.09375" r="3.90625"></circle>
                <circle cx="3.90625" cy="34.765625" r="3.90625"></circle>
                <circle cx="3.90625" cy="50" r="3.90625"></circle>
                <circle cx="34.765625" cy="3.90625" r="3.90625"></circle>
                <circle cx="80.46875" cy="96.09375" r="3.90625"></circle>
                <circle cx="65.234375" cy="3.90625" r="3.90625"></circle>
                <path d="M92.5,0 C88.35775,0 85,1.74882813 85,3.90625 L85,96.09375 C85,98.2511719 88.35775,100 92.5,100 C96.64225,100 100,98.2511719 100,96.09375 L100,3.90625 C100,1.74882813 96.64225,0 92.5,0 Z"></path>
                <circle cx="80.46875" cy="3.90625" r="3.90625"></circle>
                <circle cx="65.234375" cy="96.09375" r="3.90625"></circle>
                <circle cx="50" cy="3.90625" r="3.90625"></circle>
            </g>
        </g>
    </g>
</svg>
