<svg width="80" height="70" viewBox="0 0 80 70" fill="none" xmlns="http://www.w3.org/2000/svg">
<path d="M0 4C0 1.79086 1.79086 0 4 0H76C78.2091 0 80 1.79086 80 4V66C80 68.2091 78.2091 70 76 70H4C1.79086 70 0 68.2091 0 66V4Z" fill="#B8C5D0"/>
<path fill-rule="evenodd" clip-rule="evenodd" d="M8 16.0001H72C74.2091 16.0001 76 17.7909 76 20.0001V62.0001C76 64.2092 74.2091 66.0001 72 66.0001H8C5.79086 66.0001 4 64.2092 4 62.0001V20.0001C4 17.7909 5.79086 16.0001 8 16.0001ZM6.00003 6.00003C7.1046 6.00003 8.00003 6.89546 8.00003 8.00003C8.00003 9.1046 7.1046 10 6.00003 10C4.89546 10 4.00003 9.1046 4.00003 8.00003C4.00003 6.89546 4.89546 6.00003 6.00003 6.00003ZM12 6.00006C13.1046 6.00006 14 6.89549 14 8.00006C14 9.10463 13.1046 10.0001 12 10.0001C10.8955 10.0001 10 9.10463 10 8.00006C10 6.89549 10.8955 6.00006 12 6.00006ZM18.0001 6.00006C19.1046 6.00006 20.0001 6.89549 20.0001 8.00006C20.0001 9.10463 19.1046 10.0001 18.0001 10.0001C16.8955 10.0001 16.0001 9.10463 16.0001 8.00006C16.0001 6.89549 16.8955 6.00006 18.0001 6.00006Z" fill="#F6F8F9"/>
<path d="M4 18C4 16.8955 4.89543 16 6 16H74C75.1046 16 76 16.8955 76 18V30H4V18Z" fill="#89969F"/>
<path fill-rule="evenodd" clip-rule="evenodd" d="M11 20C12.6569 20 14 21.3431 14 23C14 24.6569 12.6569 26 11 26C9.34315 26 8 24.6569 8 23C8 21.3431 9.34315 20 11 20Z" fill="#DEE7EE"/>
<rect x="18" y="22" width="12" height="2" rx="1" fill="#B8C5D0"/>
<rect x="31" y="22" width="12" height="2" rx="1" fill="#B8C5D0"/>
</svg>
