<svg width="40" height="40" viewBox="0 0 40 40" fill="none" xmlns="http://www.w3.org/2000/svg">
<rect width="40" height="40" rx="4" fill="#B8C5D0"/>
<mask id="mask0" mask-type="alpha" maskUnits="userSpaceOnUse" x="0" y="0" width="40" height="40">
<rect width="40" height="40" rx="4" fill="white"/>
</mask>
<g mask="url(#mask0)">
</g>
<path fill-rule="evenodd" clip-rule="evenodd" d="M20 32.1483C16.4602 32.1497 13.0705 30.7186 10.6027 28.1809C8.13489 25.6431 6.79905 22.2148 6.89934 18.6764C7.16155 11.7576 12.7101 6.2091 19.6288 5.94689C23.1672 5.84659 26.5956 7.18243 29.1333 9.65025C31.6711 12.1181 33.1021 15.5078 33.1007 19.0476V20.5039C33.1007 22.1114 31.7976 23.4145 30.1902 23.4145H27.1858C26.2719 23.4141 25.411 23.843 24.8608 24.5726C24.3106 25.3022 24.135 26.2478 24.3866 27.1263L24.7621 28.4364C25.0136 29.3145 24.8383 30.2598 24.2886 30.9893C23.7389 31.7188 22.8786 32.1479 21.9651 32.1483H20Z" stroke="#F6F8F9" stroke-width="3" stroke-linecap="round" stroke-linejoin="round"/>
<path d="M19.9607 11.661C19.9004 11.661 19.8515 11.7099 19.8515 11.7702C19.8515 11.8305 19.9004 11.8793 19.9607 11.8793C20.0209 11.8793 20.0698 11.8305 20.0698 11.7702C20.0698 11.7099 20.0209 11.661 19.9607 11.661" stroke="#F6F8F9" stroke-width="3" stroke-linecap="round" stroke-linejoin="round"/>
<path d="M12.8317 19.0083C12.8305 18.9483 12.7811 18.9005 12.7211 18.9013C12.6611 18.9021 12.613 18.9512 12.6134 19.0112C12.6138 19.0712 12.6626 19.1196 12.7226 19.1196C12.7832 19.1184 12.8318 19.0689 12.8317 19.0083" stroke="#F6F8F9" stroke-width="3" stroke-linecap="round" stroke-linejoin="round"/>
<path d="M25.1573 13.8073C25.1141 13.7654 25.0455 13.7654 25.0023 13.8073C24.9595 13.8501 24.9595 13.9195 25.0023 13.9623C25.0451 14.0051 25.1145 14.0051 25.1573 13.9623C25.1992 13.9191 25.1992 13.8504 25.1573 13.8073" stroke="#F6F8F9" stroke-width="3" stroke-linecap="round" stroke-linejoin="round"/>
<path d="M14.9191 24.0499C14.8986 24.0292 14.8707 24.0176 14.8416 24.0176C14.8125 24.0176 14.7846 24.0292 14.7641 24.0499C14.7213 24.0927 14.7213 24.1621 14.7641 24.2049C14.8069 24.2477 14.8763 24.2477 14.9191 24.2049C14.9398 24.1844 14.9514 24.1565 14.9514 24.1274C14.9514 24.0983 14.9398 24.0704 14.9191 24.0499" stroke="#F6F8F9" stroke-width="3" stroke-linecap="round" stroke-linejoin="round"/>
<path d="M14.7597 13.8073C14.7169 13.8501 14.7169 13.9195 14.7597 13.9623C14.8025 14.0051 14.8719 14.0051 14.9147 13.9623C14.9354 13.9418 14.947 13.9139 14.947 13.8848C14.947 13.8557 14.9354 13.8278 14.9147 13.8073C14.8715 13.7654 14.8029 13.7654 14.7597 13.8073" stroke="#F6F8F9" stroke-width="3" stroke-linecap="round" stroke-linejoin="round"/>
</svg>
