<svg width="50px" height="50px" viewBox="0 0 50 50" version="1.1" xmlns="http://www.w3.org/2000/svg" xmlns:xlink="http://www.w3.org/1999/xlink">
    <g stroke="none" stroke-width="1" fill="none" fill-rule="evenodd">
        <g transform="translate(-74.000000, -118.000000)" fill="#2C353D">
            <g transform="translate(74.000000, 118.000000)">
                <path d="M0,0 L0,50 L50,50 L50,0 L0,0 Z M47.0588235,47.0588235 L2.94117647,47.0588235 L2.94117647,9.21568627 L47.0588235,9.21568627 L47.0588235,47.0588235 Z M47.0588235,6.2745098 L2.94117647,6.2745098 L2.94117647,2.94117647 L47.0588235,2.94117647 L47.0588235,6.2745098 Z" fill-rule="nonzero"></path>
                <path d="M22.5490196,12.5490196 L6.2745098,12.5490196 L6.2745098,31.1764706 L22.5490196,31.1764706 L22.5490196,12.5490196 Z M19.6078431,28.2352941 L9.21568627,28.2352941 L9.21568627,15.4901961 L19.6078431,15.4901961 L19.6078431,28.2352941 Z" fill-rule="nonzero"></path>
                <polygon points="6.17647059 34.5098039 22.6470588 34.5098039 22.6470588 37.4509804 6.17647059 37.4509804"></polygon>
                <polygon points="6.17647059 40.7843137 22.6470588 40.7843137 22.6470588 43.7254902 6.17647059 43.7254902"></polygon>
                <polygon points="28.1372549 12.5490196 37.5490196 12.5490196 37.5490196 15.4901961 28.1372549 15.4901961"></polygon>
                <polygon points="28.1372549 18.8235294 43.8235294 18.8235294 43.8235294 21.7647059 28.1372549 21.7647059"></polygon>
                <polygon points="28.1372549 25.0980392 43.8235294 25.0980392 43.8235294 28.0392157 28.1372549 28.0392157"></polygon>
                <path d="M28.2352941,43.7254902 L43.7254902,43.7254902 L43.7254902,34.5098039 L28.2352941,34.5098039 L28.2352941,43.7254902 Z M31.1764706,37.4509804 L40.7843137,37.4509804 L40.7843137,40.7843137 L31.1764706,40.7843137 L31.1764706,37.4509804 Z" fill-rule="nonzero"></path>
            </g>
        </g>
    </g>
</svg>
