<svg width="100px" height="100px" viewBox="0 0 100 100" version="1.1" xmlns="http://www.w3.org/2000/svg" xmlns:xlink="http://www.w3.org/1999/xlink">
    <g stroke="none" stroke-width="1" fill="none" fill-rule="evenodd">
        <g transform="translate(-594.000000, -587.000000)" fill="#397AF6">
            <g transform="translate(594.000000, 587.000000)">
                <path d="M3.90625,15 L96.09375,15 C98.2511719,15 100,11.64225 100,7.5 C100,3.35775 98.2511719,0 96.09375,0 L3.90625,0 C1.74882813,0 0,3.35775 0,7.5 C0,11.64225 1.74882813,15 3.90625,15 Z"></path>
                <path d="M3.90625,100 L96.09375,100 C98.2511719,100 100,96.64225 100,92.5 C100,88.35775 98.2511719,85 96.09375,85 L3.90625,85 C1.74882813,85 0,88.35775 0,92.5 C0,96.64225 1.74882813,100 3.90625,100 Z"></path>
                <path d="M46.40625,57.5 L138.59375,57.5 C140.751172,57.5 142.5,54.14225 142.5,50 C142.5,45.85775 140.751172,42.5 138.59375,42.5 L46.40625,42.5 C44.2488281,42.5 42.5,45.85775 42.5,50 C42.5,54.14225 44.2488281,57.5 46.40625,57.5 Z" transform="translate(92.500000, 50.000000) rotate(90.000000) translate(-92.500000, -50.000000) "></path>
                <path d="M-38.59375,57.5 L53.59375,57.5 C55.7511719,57.5 57.5,54.14225 57.5,50 C57.5,45.85775 55.7511719,42.5 53.59375,42.5 L-38.59375,42.5 C-40.7511719,42.5 -42.5,45.85775 -42.5,50 C-42.5,54.14225 -40.7511719,57.5 -38.59375,57.5 Z" transform="translate(7.500000, 50.000000) rotate(90.000000) translate(-7.500000, -50.000000) "></path>
            </g>
        </g>
    </g>
</svg>
