<svg width="101px" height="100px" viewBox="0 0 101 100" version="1.1" xmlns="http://www.w3.org/2000/svg" xmlns:xlink="http://www.w3.org/1999/xlink">
    <g stroke="none" stroke-width="1" fill="none" fill-rule="evenodd">
        <g transform="translate(-473.000000, -54.000000)" fill="#397AF6">
            <g transform="translate(473.387755, 54.000000)">
                <path d="M60.9070175,38.908577 C59.7245614,37.7191033 58.4134503,36.6647173 56.9980507,35.7647173 C53.2491228,33.3641326 48.8908382,32.088499 44.4391813,32.088499 C38.2604288,32.0769981 32.3327485,34.5319688 27.971345,38.908577 L6.81267057,60.0838207 C2.45867446,64.4461988 0.0115009747,70.3567251 0.00760233918,76.520078 C-0.000584795322,89.3816764 10.4189084,99.8146199 23.2805068,99.822807 C29.4497076,99.8442495 35.3719298,97.4009747 39.7317739,93.0360624 L57.1976608,75.5701754 C57.5150097,75.2555556 57.6922027,74.8263158 57.6896686,74.3795322 C57.6844055,73.4608187 56.9352827,72.7204678 56.0165692,72.725731 L55.3512671,72.725731 C51.7021442,72.7385965 48.085575,72.0378168 44.7054581,70.6631579 C44.0826511,70.4068226 43.3668616,70.551462 42.8923977,71.0290448 L30.3335283,83.6044834 C26.4337232,87.5042885 20.1109162,87.5042885 16.2111111,83.6044834 C12.311306,79.7046784 12.311306,73.3818713 16.2111111,69.4820663 L37.4530214,48.2569201 C41.3497076,44.3651072 47.6621832,44.3651072 51.5588694,48.2569201 C54.1849903,50.72846 58.2812865,50.72846 60.9072125,48.2569201 C62.037037,47.1261209 62.7220273,45.6263158 62.8368421,44.0317739 C62.9582846,42.1263158 62.2555556,40.2602339 60.9070175,38.908577 Z"></path>
                <path d="M92.994347,6.82124756 C83.8994152,-2.27368421 69.1536062,-2.27368421 60.0586745,6.82124756 L42.6093567,24.2538012 C42.1302144,24.7352827 41.9920078,25.4594542 42.260039,26.0836257 C42.5249513,26.7095517 43.1440546,27.111306 43.8235867,27.0982456 L44.4389864,27.0982456 C48.0838207,27.0916179 51.6945419,27.7978558 55.0682261,29.1775828 C55.6910331,29.4339181 56.4068226,29.2892788 56.8812865,28.8116959 L69.4068226,16.302729 C73.3066277,12.402924 79.6294347,12.402924 83.5292398,16.302729 C87.4290448,20.2025341 87.4290448,26.5253411 83.5292398,30.4251462 L67.9263158,46.011306 L67.7931774,46.1610136 L62.337232,51.5838207 C58.4405458,55.4756335 52.1280702,55.4756335 48.231384,51.5838207 C45.6052632,49.1122807 41.5089669,49.1122807 38.8830409,51.5838207 C37.7460039,52.7231969 37.0604288,54.2360624 36.9534113,55.8421053 C36.8317739,57.7475634 37.5345029,59.6136452 38.8830409,60.9654971 C40.8083821,62.8990253 43.0610136,64.4758285 45.5366472,65.6230019 C45.8859649,65.7892788 46.2352827,65.9224172 46.5846004,66.0721248 C46.9339181,66.2218324 47.2998051,66.3382066 47.6491228,66.471345 C47.9984405,66.6044834 48.3643275,66.7208577 48.7136452,66.8206628 L49.6951267,67.0867446 C50.3604288,67.2530214 51.0259259,67.3861598 51.7077973,67.5025341 C52.5292398,67.6245614 53.3565302,67.7023392 54.1863548,67.7354776 L55.3506823,67.7354776 L55.4504873,67.7354776 L56.448538,67.6191033 C56.814425,67.6025341 57.197076,67.5192982 57.6296296,67.5192982 L58.1951267,67.5192982 L59.342885,67.3530214 L59.8752437,67.2532164 L60.839961,67.0536062 L61.0230019,67.0536062 C65.1089669,66.0272904 68.839961,63.9116959 71.8185185,60.9321637 L92.9937622,39.7569201 C102.089279,30.6619883 102.089279,15.9161793 92.994347,6.82124756 Z"></path>
            </g>
        </g>
    </g>
</svg>
