<svg width="100px" height="100px" viewBox="0 0 100 100" version="1.1" xmlns="http://www.w3.org/2000/svg" xmlns:xlink="http://www.w3.org/1999/xlink">
    <g stroke="none" stroke-width="1" fill="none" fill-rule="evenodd">
        <g transform="translate(-657.000000, -52.000000)" fill="#000000" fill-rule="nonzero">
            <g transform="translate(707.000000, 102.000000) scale(-1, 1) translate(-707.000000, -102.000000) translate(657.000000, 52.000000)">
                <path d="M99.7246884,14.5175134 C99.7246884,10.6381054 98.214086,6.9905808 95.4710116,4.24731875 C89.8086767,-1.41512652 80.5949164,-1.41595764 74.9317504,4.24731875 L60.9415723,18.2384539 L54.589729,11.886176 C53.50768,10.8043301 51.7541291,10.8043301 50.6718032,11.886176 L42.3611354,20.1974123 C41.2793635,21.2792582 41.2793635,23.0334831 42.3611354,24.1156061 L48.7129788,30.467884 L8.64337137,70.5402326 C8.33920093,70.8444238 8.11010353,71.215105 7.9740856,71.6231867 L5.41079865,79.3138506 L3.10292622,81.6218809 C-1.03190799,85.7572751 -1.03218502,92.4860519 3.10292622,96.6217231 C7.23803746,100.757117 13.9663541,100.75684 18.1014653,96.6217231 L20.4093377,94.3136928 L28.0994756,91.7502305 C28.5075294,91.6142033 28.8781852,91.3850902 29.1823556,91.0808989 L69.25224,51.0082733 L75.6040834,57.3605512 C76.6861323,58.4423971 78.4399602,58.4423971 79.5220092,57.3605512 L87.8326769,49.0493149 C88.9144488,47.967469 88.9144488,46.213244 87.8326769,45.1311211 L81.4808335,38.7788432 L95.4710116,24.7877081 C98.214086,22.044446 99.7246884,18.3971985 99.7246884,14.5175134 Z"></path>
            </g>
        </g>
    </g>
</svg>
