<?xml version="1.0" encoding="UTF-8"?>
<svg width="50px" height="50px" viewBox="0 0 50 50" version="1.1" xmlns="http://www.w3.org/2000/svg" xmlns:xlink="http://www.w3.org/1999/xlink">
    <!-- Generator: Sketch 52.5 (67469) - http://www.bohemiancoding.com/sketch -->
    <title>icon_view_page</title>
    <desc>Created with Sketch.</desc>
    <g id="Page-1" stroke="none" stroke-width="1" fill="none" fill-rule="evenodd">
        <g id="Artboard" transform="translate(-955.000000, -54.000000)" fill="#000000">
            <g id="icon_view_page" transform="translate(955.000000, 54.000000)">
                <path d="M25,36.6666667 C20.3976271,36.6666667 16.6666667,32.9357062 16.6666667,28.3333333 C16.6666667,23.7309604 20.3976271,20 25,20 C29.6023729,20 33.3333333,23.7309604 33.3333333,28.3333333 C33.3282814,32.933612 29.6002787,36.6616147 25,36.6666667 Z M25,21.6666667 C21.3181017,21.6666667 18.3333333,24.651435 18.3333333,28.3333333 C18.3333333,32.0152317 21.3181017,35 25,35 C28.6818983,35 31.6666667,32.0152317 31.6666667,28.3333333 C31.6625334,24.6531484 28.6801849,21.6707999 25,21.6666667 Z" id="Path" fill-rule="nonzero"></path>
                <path d="M25,31.6666667 C23.1590508,31.6666667 21.6666667,30.1742825 21.6666667,28.3333333 C21.6666667,26.4923842 23.1590508,25 25,25 C26.8409492,25 28.3333333,26.4923842 28.3333333,28.3333333 C28.3333333,30.1742825 26.8409492,31.6666667 25,31.6666667 Z M25,26.6666667 C24.0795254,26.6666667 23.3333333,27.4128588 23.3333333,28.3333333 C23.3333333,29.2538079 24.0795254,30 25,30 C25.9204746,30 26.6666667,29.2538079 26.6666667,28.3333333 C26.6666667,27.4128588 25.9204746,26.6666667 25,26.6666667 Z" id="Path" fill-rule="nonzero"></path>
                <path d="M47.5,5.92118946e-15 L2.5,5.92118946e-15 C1.11928813,5.55111512e-15 3.70074342e-16,1.11928813 0,2.5 L0,47.5 C3.70074342e-16,48.8807119 1.11928813,50 2.5,50 L47.5,50 C48.8807119,50 50,48.8807119 50,47.5 L50,2.5 C50,1.11928813 48.8807119,0 47.5,5.92118946e-15 Z M2.5,1.66666667 L47.5,1.66666667 C47.9602373,1.66666667 48.3333333,2.03976271 48.3333333,2.5 L48.3333333,6.66666667 L1.66666667,6.66666667 L1.66666667,2.5 C1.66666667,2.03976271 2.03976271,1.66666667 2.5,1.66666667 Z M47.5,48.3333333 L2.5,48.3333333 C2.03976271,48.3333333 1.66666667,47.9602373 1.66666667,47.5 L1.66666667,8.33333333 L48.3333333,8.33333333 L48.3333333,47.5 C48.3333333,47.9602373 47.9602373,48.3333333 47.5,48.3333333 Z" id="Path" fill-rule="nonzero"></path>
                <path d="M4.16666667,5 L5,5 C5.46023729,5 5.83333333,4.62690396 5.83333333,4.16666667 C5.83333333,3.70642938 5.46023729,3.33333333 5,3.33333333 L4.16666667,3.33333333 C3.70642938,3.33333333 3.33333333,3.70642938 3.33333333,4.16666667 C3.33333333,4.62690396 3.70642938,5 4.16666667,5 Z" id="Path"></path>
                <path d="M8.33333333,5 L9.16666667,5 C9.62690396,5 10,4.62690396 10,4.16666667 C10,3.70642938 9.62690396,3.33333333 9.16666667,3.33333333 L8.33333333,3.33333333 C7.87309604,3.33333333 7.5,3.70642938 7.5,4.16666667 C7.5,4.62690396 7.87309604,5 8.33333333,5 Z" id="Path"></path>
                <path d="M12.5,5 L13.3333333,5 C13.7935706,5 14.1666667,4.62690396 14.1666667,4.16666667 C14.1666667,3.70642938 13.7935706,3.33333333 13.3333333,3.33333333 L12.5,3.33333333 C12.0397627,3.33333333 11.6666667,3.70642938 11.6666667,4.16666667 C11.6666667,4.62690396 12.0397627,5 12.5,5 Z" id="Path"></path>
                <path d="M25,17.5 C15.5125,17.5 7.2075,27.3808333 6.85833333,27.8008333 C6.60189637,28.1095235 6.60189637,28.5571431 6.85833333,28.8658333 C7.2075,29.2858333 15.5125,39.1666667 25,39.1666667 C34.4875,39.1666667 42.7925,29.2858333 43.1416667,28.8658333 C43.3981036,28.5571431 43.3981036,28.1095235 43.1416667,27.8008333 C42.7925,27.3808333 34.4875,17.5 25,17.5 Z M25,37.5 C17.5,37.5 10.4616667,30.3633333 8.61083333,28.3333333 C10.4591667,26.3016667 17.4891667,19.1666667 25,19.1666667 C32.5108333,19.1666667 39.5383333,26.3033333 41.3891667,28.3333333 C39.5408333,30.365 32.5108333,37.5 25,37.5 Z" id="Path" fill-rule="nonzero"></path>
            </g>
        </g>
    </g>
</svg>