<svg fill="none" height="20" viewBox="0 0 22 20" width="22" xmlns="http://www.w3.org/2000/svg"><g stroke="#122532" stroke-linecap="round" stroke-linejoin="round" stroke-width="1.5"><path clip-rule="evenodd" d="m19 19h-16c-1.105 0-2-.895-2-2v-14c0-1.105.895-2 2-2h16c1.105 0 2 .895 2 2v14c0 1.105-.895 2-2 2z" fill-rule="evenodd"/><path d="m1 6h20"/><path d="m3.77905 3.49c-.003 0-.005.002-.005.005s.002.005.005.005.005-.002.005-.005-.002-.005-.005-.005"/><path d="m6.32202 3.49c-.003 0-.005.002-.005.005s.003.005.005.005c.003 0 .005-.002.005-.005s-.002-.005-.005-.005"/><path d="m8.86096 3.49c-.003 0-.005.002-.005.005s.002.005.005.005.005-.002.005-.005-.002-.005-.005-.005"/><path clip-rule="evenodd" d="m7 15.5v-1.586c0-.265.105-.52.293-.707l4-3.99999c.391-.391 1.024-.391 1.414 0l.586.586c.391.39099.391 1.02399 0 1.41399l-4 4c-.188.188-.442.293-.707.293z" fill-rule="evenodd"/><path d="m13 15.5h2"/></g></svg>