<?xml version="1.0" encoding="UTF-8"?>
<svg width="384px" height="80px" viewBox="0 0 384 80" version="1.1" xmlns="http://www.w3.org/2000/svg" xmlns:xlink="http://www.w3.org/1999/xlink">
    <!-- Generator: Sketch 52.5 (67469) - http://www.bohemiancoding.com/sketch -->
    <title>logo-ecoded-40</title>
    <desc>Created with Sketch.</desc>
    <defs>
        <linearGradient x1="29.3796127%" y1="11.3142272%" x2="82.6685699%" y2="99.7328817%" id="linearGradient-1">
            <stop stop-color="#28C0DF" offset="0%"></stop>
            <stop stop-color="#F126C8" offset="100%"></stop>
        </linearGradient>
    </defs>
    <g id="logo-ecoded-40" stroke="none" stroke-width="1" fill="none" fill-rule="evenodd">
        <g id="ecoded_color">
            <path d="M353.337351,0 L365.00613,0 L365.00613,71.4076856 C359.913281,73.5972052 353.372329,74.6920524 345.381524,74.6920524 C336.752364,74.6920524 330.24639,72.3259389 325.861853,67.5935371 C321.549022,62.7907424 319.390857,55.868821 319.390857,46.8281223 C319.390857,38.7056769 321.512294,32.2429694 325.756918,27.44 C330.069749,22.5664629 336.045801,20.1297817 343.683325,20.1297817 C347.502961,20.1297817 350.719221,20.6241048 353.337351,21.6129258 L353.337351,0 Z M331.16632,47.3579039 C331.16632,53.1496943 332.191186,57.3168559 334.242667,59.8595633 C336.364104,62.4022707 339.935394,63.6735371 344.956537,63.6735371 C348.209524,63.6735371 351.002545,63.3203493 353.337351,62.6141485 L353.337351,32.7372926 C351.215913,31.6779039 348.279481,31.1481223 344.53155,31.1481223 C339.582113,31.1481223 336.115758,32.4195633 334.135983,34.9622707 C332.156208,37.5049782 331.16632,41.6368559 331.16632,47.3579039 Z" id="Shape" fill="#061534" fill-rule="nonzero"></path>
            <path d="M313.141974,43.6230568 C313.141974,47.0134498 312.788693,49.7680349 312.08213,51.8869869 L279.408848,51.8869869 L279.408848,52.4165939 C279.408848,56.0188646 280.647082,58.8440175 283.121801,60.8924017 C285.596519,62.8700437 289.16781,63.8588646 293.835671,63.8588646 C299.776745,63.8588646 305.044485,62.7640175 309.640641,60.5744978 L311.445524,71.5928384 C306.636,73.7825328 300.731654,74.8772052 293.728987,74.8772052 C284.818251,74.8772052 278.207342,72.6876856 273.892762,68.3086463 C269.578182,63.8588646 267.421766,57.0076856 267.421766,47.7551092 C267.421766,39.1379913 269.331584,32.4281223 273.149472,27.6253275 C277.039065,22.7517904 282.94516,20.3149345 290.866009,20.3149345 C298.150251,20.3149345 303.666338,22.2925764 307.414268,26.2480349 C311.232156,30.2033188 313.141974,35.9949345 313.141974,43.6230568 Z M279.408848,41.8220087 L279.408848,42.3517904 L302.003117,42.3517904 L302.003117,41.8220087 C302.003117,34.2646288 298.185229,30.4857642 290.547706,30.4857642 C283.121801,30.4857642 279.408848,34.2646288 279.408848,41.8220087 Z" id="Shape" fill="#061534" fill-rule="nonzero"></path>
            <path d="M249.500606,0.185334498 L261.169385,0.185334498 L261.169385,71.5930131 C256.078286,73.7825328 249.537333,74.8773799 241.544779,74.8773799 C232.917368,74.8773799 226.411394,72.5112664 222.026857,67.7788646 C217.712277,62.9760699 215.555861,56.0541485 215.555861,47.0134498 C215.555861,38.8910044 217.677299,32.4282969 221.920173,27.6253275 C226.234753,22.7517904 232.210805,20.3151092 239.848329,20.3151092 C243.667965,20.3151092 246.884225,20.8094323 249.500606,21.7982533 L249.500606,0.185334498 Z M227.331325,47.5432314 C227.331325,53.3350218 228.35619,57.5021834 230.407671,60.0448908 C232.529108,62.5875983 236.100398,63.8588646 241.121541,63.8588646 C244.374528,63.8588646 247.16755,63.5058515 249.500606,62.799476 L249.500606,32.9226201 C247.379169,31.8632314 244.444485,31.3334498 240.696554,31.3334498 C235.747117,31.3334498 232.280762,32.6048908 230.300987,35.1475983 C228.321212,37.6903057 227.331325,41.8221834 227.331325,47.5432314 Z" id="Shape" fill="#061534" fill-rule="nonzero"></path>
            <path d="M185.012762,31.3334498 C180.3449,31.3334498 177.056935,32.6401747 175.147117,35.2534498 C173.309004,37.7961572 172.389598,41.8927511 172.389598,47.5432314 C172.389598,53.1937118 173.309004,57.3255895 175.147117,59.9388646 C177.056935,62.5523144 180.3449,63.8590393 185.012762,63.8590393 C189.75058,63.8590393 193.040294,62.5875983 194.878407,60.0448908 C196.716519,57.4316157 197.63645,53.2642795 197.63645,47.5432314 C197.63645,41.8927511 196.716519,37.7961572 194.878407,35.2534498 C193.040294,32.6401747 189.75058,31.3334498 185.012762,31.3334498 Z M185.012762,74.8773799 C168.747652,74.8773799 160.614835,65.7659389 160.614835,47.5432314 C160.614835,38.9262882 162.701119,32.2517031 166.873512,27.519476 C171.045905,22.7165066 177.091913,20.3151092 185.012762,20.3151092 C201.20774,20.3151092 209.305229,29.3910917 209.305229,47.5432314 C209.305229,56.1601747 207.218771,62.8702183 203.045853,67.6730131 C198.944641,72.4759825 192.93361,74.8773799 185.012762,74.8773799 Z" id="Shape" fill="#061534" fill-rule="nonzero"></path>
            <path d="M113.948287,47.7551092 C113.948287,39.2089083 116.140556,32.4988646 120.525268,27.6253275 C124.980461,22.7519651 131.309969,20.3151092 139.513442,20.3151092 C144.746554,20.3151092 149.34341,21.1626201 153.303659,22.8578166 L151.50035,33.8761572 C147.681413,32.1811354 143.756492,31.3334498 139.725586,31.3334498 C134.7751,31.3334498 131.20381,32.6401747 129.011541,35.2534498 C126.819273,37.7961572 125.723051,41.7516157 125.723051,47.119476 C125.723051,52.840524 126.925257,57.0784279 129.329844,59.8330131 C131.734256,62.5170306 135.482362,63.8590393 140.574161,63.8590393 C144.53441,63.8590393 148.530163,63.0820961 152.561068,61.5282096 L154.364377,72.440524 C149.060435,74.0651528 144.25161,74.8773799 139.93773,74.8773799 C131.804913,74.8773799 125.440251,72.5465502 120.843396,67.8848908 C116.246715,63.1526638 113.948287,56.4427948 113.948287,47.7551092 Z" id="Path" fill="#061534"></path>
            <path d="M107.700104,43.6232314 C107.700104,47.0134498 107.346473,49.7682096 106.63921,51.8869869 L73.9669784,51.8869869 L73.9669784,52.4167686 C73.9669784,56.0188646 75.2045126,58.8441921 77.6797558,60.8924017 C80.1548242,62.8700437 83.7262892,63.8590393 88.393626,63.8590393 C94.3341749,63.8590393 99.6027896,62.7641921 104.19947,60.5746725 L106.002779,71.5930131 C101.193955,73.7825328 95.2889091,74.8773799 88.2876416,74.8773799 C79.3769056,74.8773799 72.7647723,72.6878603 68.4508918,68.3086463 C64.1370113,63.8590393 61.980071,57.0078603 61.980071,47.7551092 C61.980071,39.1381659 63.8893645,32.4282969 67.7083013,27.6253275 C71.5978944,22.7519651 77.5029403,20.3151092 85.423439,20.3151092 C92.7075065,20.3151092 98.2235931,22.2927511 101.971874,26.2480349 C105.790635,30.2034934 107.700104,35.9951092 107.700104,43.6232314 Z M73.9669784,41.8221834 L73.9669784,42.3519651 L96.5617714,42.3519651 L96.5617714,41.8221834 C96.5617714,34.2646288 92.7430095,30.4859389 85.1053108,30.4859389 C77.6797558,30.4859389 73.9669784,34.2646288 73.9669784,41.8221834 Z" id="Shape" fill="#061534" fill-rule="nonzero"></path>
            <path d="M13.4913789,14.669345 L0,79.9198253 L5.53904987,79.9198253 C8.49354909,79.9198253 11.0444855,77.8536245 11.6545255,74.9664629 L25.447103,9.68943231 L19.6123636,9.68943231 C16.6477382,9.68943231 14.0909429,11.7695721 13.4913789,14.669345 Z M31.1732346,14.669345 L17.6819082,79.9198253 L23.2209056,79.9198253 C26.1753524,79.9198253 28.7263238,77.8536245 29.3363463,74.9664629 L43.1290113,9.68943231 L37.2942719,9.68943231 C34.3296814,9.68943231 31.7727636,11.7695721 31.1732346,14.669345 Z" id="Shape" fill="url(#linearGradient-1)"></path>
            <path d="M374.481766,5.14026201 C374.481766,7.94525764 376.820069,10.2805066 379.61484,10.2805066 C382.504052,10.2805066 384.761905,7.94525764 384.761905,5.14026201 C384.761905,2.33526638 382.504052,0 379.61484,0 C376.820069,0 374.481766,2.33526638 374.481766,5.14026201 Z M375.207567,5.14026201 C375.207567,2.69762445 377.169853,0.724735371 379.61484,0.724735371 C382.061576,0.724735371 384.116554,2.69762445 384.116554,5.14026201 C384.116554,7.59629694 382.061576,9.55577293 379.61484,9.55577293 C377.169853,9.55577293 375.207567,7.59629694 375.207567,5.14026201 Z M378.969489,3.01973799 C378.969489,2.97947598 378.997472,2.96604367 379.037697,2.96604367 L379.642823,2.96604367 C380.300416,2.96604367 380.529524,3.5431441 380.529524,3.93236681 C380.529524,4.3349869 380.300416,4.9389345 379.642823,4.9389345 L379.037697,4.9389345 C378.997472,4.9389345 378.969489,4.92551965 378.969489,4.89867249 L378.969489,3.01973799 Z M380.435082,7.87814847 C380.515532,8.03919651 380.662442,8.13315284 380.8111,8.13315284 C381.080433,8.13315284 381.281558,7.94525764 381.281558,7.73051528 C381.281558,7.64999127 381.255325,7.56946725 381.2151,7.48894323 L380.26019,5.66366812 C380.26019,5.62340611 380.26019,5.60999127 380.274182,5.60999127 C380.959758,5.42209607 381.402234,4.79130131 381.402234,3.93236681 C381.402234,2.92578166 380.730649,2.14737118 379.655065,2.14737118 L378.621455,2.14737118 C378.285662,2.14737118 378.096779,2.41579039 378.096779,2.75131878 L378.096779,7.66340611 C378.096779,7.86473362 378.243688,8.10630568 378.446563,8.10630568 C378.687913,8.10630568 378.969489,7.8110393 378.969489,7.46209607 L378.969489,5.81130131 C378.969489,5.78447162 378.997472,5.7710393 379.023706,5.7710393 C379.118147,5.7710393 379.212589,5.78447162 379.53439,6.09315284 C379.77574,6.6031441 380.071307,7.18024454 380.435082,7.87814847 Z" id="Shape" fill="#061534" fill-rule="nonzero"></path>
        </g>
    </g>
</svg>