<?xml version="1.0" encoding="UTF-8"?>
<svg width="50px" height="50px" viewBox="0 0 50 50" version="1.1" xmlns="http://www.w3.org/2000/svg" xmlns:xlink="http://www.w3.org/1999/xlink">
    <!-- Generator: Sketch 52.5 (67469) - http://www.bohemiancoding.com/sketch -->
    <title>icon_hover</title>
    <desc>Created with Sketch.</desc>
    <g id="Page-1" stroke="none" stroke-width="1" fill="none" fill-rule="evenodd">
        <g id="Artboard" transform="translate(-56.000000, -42.000000)" fill="#FFFFFF">
            <g id="icon_hover" transform="translate(56.000000, 42.000000)">
                <path d="M33.9827586,9.26781609 C35.05,9.26781609 36.0885057,9.25287356 37.0712644,9.25287356 C37.0689655,4.14252874 32.9235632,0 27.8132184,0 L9.25862069,0 C4.1454023,0 0,4.1454023 0,9.25862069 L0,27.8132184 C0,32.9264368 4.1454023,37.0712644 9.25862069,37.0712644 L9.2683908,37.0712644 L9.2683908,30.8931034 L9.25862069,30.8931034 C7.57873563,30.8931034 6.17873563,29.5172414 6.17873563,27.8132184 L6.17873563,9.25862069 C6.17873563,7.57816092 7.55574713,6.17816092 9.25862069,6.17816092 L27.8132184,6.17816092 C29.4936782,6.17816092 30.8931034,7.55517241 30.8931034,9.25862069 L30.8931034,9.26781609 L33.9827586,9.26781609 Z" id="Path"></path>
                <path d="M40.1706897,12.3568966 L21.616092,12.3568966 C16.5022989,12.3568966 12.3568966,16.5022989 12.3568966,21.616092 L12.3568966,40.1695402 C12.3568966,45.283908 16.5022989,49.4287356 21.616092,49.4287356 L40.1706897,49.4287356 C45.283908,49.4287356 49.4287356,45.283908 49.4287356,40.1695402 L49.4287356,21.616092 C49.4287356,16.5022989 45.283908,12.3568966 40.1706897,12.3568966 Z" id="Path"></path>
            </g>
        </g>
    </g>
</svg>