<svg width="123px" height="100px" viewBox="0 0 123 100" version="1.1" xmlns="http://www.w3.org/2000/svg" xmlns:xlink="http://www.w3.org/1999/xlink">
    <g stroke="none" stroke-width="1" fill="none" fill-rule="evenodd">
        <g transform="translate(-239.000000, -406.000000)" fill="#000000">
            <g transform="translate(239.000000, 406.000000)">
                <path d="M119.188192,0.184501845 L3.6900369,0.184501845 C1.66051661,0.184501845 0,1.84501845 0,3.87453875 C0,5.90405904 1.66051661,7.56457565 3.6900369,7.56457565 L119.188192,7.56457565 C121.217712,7.56457565 122.878229,5.90405904 122.878229,3.87453875 C122.878229,1.84501845 121.217712,0.184501845 119.188192,0.184501845 Z"></path>
                <path d="M101.845018,30.8118081 L20.6642066,30.8118081 C18.6346863,30.8118081 16.9741697,32.4723247 16.9741697,34.501845 C16.9741697,36.5313653 18.6346863,38.1918819 20.6642066,38.1918819 L101.845018,38.1918819 C103.874539,38.1918819 105.535055,36.5313653 105.535055,34.501845 C105.535055,32.4723247 103.874539,30.8118081 101.845018,30.8118081 Z"></path>
                <path d="M119.188192,61.8081181 L3.6900369,61.8081181 C1.66051661,61.8081181 0,63.4686347 0,65.498155 C0,67.5276753 1.66051661,69.1881919 3.6900369,69.1881919 L119.188192,69.1881919 C121.217712,69.1881919 122.878229,67.5276753 122.878229,65.498155 C122.878229,63.4686347 121.217712,61.8081181 119.188192,61.8081181 Z"></path>
                <path d="M86.3468635,92.4354244 L34.3173432,92.4354244 C32.2878229,92.4354244 30.6273063,94.095941 30.6273063,96.1254613 C30.6273063,98.1549815 32.2878229,99.8154982 34.3173432,99.8154982 L86.3468635,99.8154982 C88.3763838,99.8154982 90.0369004,98.1549815 90.0369004,96.1254613 C90.0369004,94.095941 88.3763838,92.4354244 86.3468635,92.4354244 Z"></path>
            </g>
        </g>
    </g>
</svg>
