<svg width="24px" height="24px" viewBox="0 0 24 24" version="1.1" xmlns="http://www.w3.org/2000/svg" xmlns:xlink="http://www.w3.org/1999/xlink">
    <g stroke="none" stroke-width="1" fill="none" fill-rule="evenodd">
        <g transform="translate(-947.000000, -336.000000)" fill="#FFFFFF">
            <g transform="translate(947.000000, 336.000000)">
                <path d="M2.05007812,23.8836077 C2.32078125,24.0507639 1.0171875,23.9887483 21.1875,23.9887483 C22.7383125,23.9887483 24,22.7276703 24,21.177561 L24,19.0691705 C24,18.6810456 23.6851875,18.3663737 23.296875,18.3663737 L21.65625,18.3663737 L21.65625,2.93831229 C21.65625,1.31812491 20.3375156,0 18.7165312,0 L0.703125,0 C0.3148125,0 0,0.314671853 0,0.702796825 L0,21.177561 C0,21.9284516 0.292546875,22.634389 0.8236875,23.1653421 C1.1668125,23.5083265 1.5868125,23.7534358 2.05007812,23.8836077 Z M22.59375,21.177561 C22.59375,21.9525922 21.9629063,22.5831547 21.1875,22.5831547 L5.2475625,22.5831547 C5.48746875,22.1694359 5.625,21.6892016 5.625,21.177561 L5.625,21.1415141 L5.625,19.7719674 L22.59375,19.7719674 L22.59375,21.177561 Z M1.40625,1.40559365 L18.7165313,1.40559365 C19.5620625,1.40559365 20.25,2.0931561 20.25,2.93835917 L20.25,18.3664206 L4.921875,18.3664206 C4.5335625,18.3664206 4.21875,18.6810924 4.21875,19.0692174 L4.21875,21.141561 C4.21875,22.4171234 2.70454688,23.0576234 1.81809375,22.1714984 C1.5525,21.9059985 1.40625,21.5529829 1.40625,21.177561 L1.40625,1.40559365 Z" fill-rule="nonzero"></path>
                <path d="M5.04239284,5.69491525 L16.5169292,5.69491525 C16.905399,5.69491525 17.220339,5.39136117 17.220339,5.01694915 C17.220339,4.64253714 16.905399,4.33898305 16.5169292,4.33898305 L5.04239284,4.33898305 C4.65392306,4.33898305 4.33898305,4.64253714 4.33898305,5.01694915 C4.33898305,5.39136117 4.65392306,5.69491525 5.04239284,5.69491525 Z"></path>
                <path d="M5.04239284,8.94915254 L16.5169292,8.94915254 C16.905399,8.94915254 17.220339,8.64559845 17.220339,8.27118644 C17.220339,7.89677443 16.905399,7.59322034 16.5169292,7.59322034 L5.04239284,7.59322034 C4.65392306,7.59322034 4.33898305,7.89677443 4.33898305,8.27118644 C4.33898305,8.64564367 4.65392306,8.94915254 5.04239284,8.94915254 Z"></path>
                <path d="M5.04239284,12.2033898 L16.5169292,12.2033898 C16.905399,12.2033898 17.220339,11.8998357 17.220339,11.5254237 C17.220339,11.1510117 16.905399,10.8474576 16.5169292,10.8474576 L5.04239284,10.8474576 C4.65392306,10.8474576 4.33898305,11.1510117 4.33898305,11.5254237 C4.33898305,11.8998357 4.65392306,12.2033898 5.04239284,12.2033898 Z"></path>
                <path d="M5.04239284,15.4576271 L16.5169292,15.4576271 C16.905399,15.4576271 17.220339,15.154073 17.220339,14.779661 C17.220339,14.405249 16.905399,14.1016949 16.5169292,14.1016949 L5.04239284,14.1016949 C4.65392306,14.1016949 4.33898305,14.405249 4.33898305,14.779661 C4.33898305,15.154073 4.65392306,15.4576271 5.04239284,15.4576271 Z"></path>
            </g>
        </g>
    </g>
</svg>
