<svg width="123px" height="100px" viewBox="0 0 123 100" version="1.1" xmlns="http://www.w3.org/2000/svg" xmlns:xlink="http://www.w3.org/1999/xlink">
    <g stroke="none" stroke-width="1" fill="none" fill-rule="evenodd">
        <g transform="translate(-584.000000, -404.000000)" fill="#000000">
            <g transform="translate(584.000000, 404.000000)">
                <path d="M119.188192,0.184501845 L3.6900369,0.184501845 C1.66051661,0.184501845 0,1.84501845 0,3.87453875 C0,5.90405904 1.66051661,7.56457565 3.6900369,7.56457565 L119.188192,7.56457565 C121.217712,7.56457565 122.878229,5.90405904 122.878229,3.87453875 C122.878229,1.84501845 121.217712,0.184501845 119.188192,0.184501845 Z"></path>
                <path d="M119.188192,30.8118081 L3.6900369,30.8118081 C1.66051661,30.8118081 0,32.4723247 0,34.501845 C0,36.5313653 1.66051661,38.1918819 3.6900369,38.1918819 L119.188192,38.1918819 C121.217712,38.1918819 122.878229,36.5313653 122.878229,34.501845 C122.878229,32.4723247 121.217712,30.8118081 119.188192,30.8118081 Z"></path>
                <path d="M119.188192,61.8081181 L3.6900369,61.8081181 C1.66051661,61.8081181 0,63.4686347 0,65.498155 C0,67.5276753 1.66051661,69.1881919 3.6900369,69.1881919 L119.188192,69.1881919 C121.217712,69.1881919 122.878229,67.5276753 122.878229,65.498155 C122.878229,63.4686347 121.217712,61.8081181 119.188192,61.8081181 Z"></path>
                <path d="M119.188192,92.4354244 L3.6900369,92.4354244 C1.66051661,92.4354244 0,94.095941 0,96.1254613 C0,98.1549815 1.66051661,99.8154982 3.6900369,99.8154982 L119.188192,99.8154982 C121.217712,99.8154982 122.878229,98.1549815 122.878229,96.1254613 C122.878229,94.095941 121.217712,92.4354244 119.188192,92.4354244 Z"></path>
            </g>
        </g>
    </g>
</svg>
