<svg width="80" height="70" viewBox="0 0 80 70" fill="none" xmlns="http://www.w3.org/2000/svg">
<path d="M0 4C0 1.79086 1.79086 0 4 0H76C78.2091 0 80 1.79086 80 4V66C80 68.2091 78.2091 70 76 70H4C1.79086 70 0 68.2091 0 66V4Z" fill="#B8C5D0"/>
<path fill-rule="evenodd" clip-rule="evenodd" d="M8 16H72C74.2091 16 76 17.7909 76 20V62C76 64.2091 74.2091 66 72 66H8C5.79086 66 4 64.2091 4 62V20C4 17.7909 5.79086 16 8 16ZM6 6C7.10457 6 8 6.89543 8 8C8 9.10457 7.10457 10 6 10C4.89543 10 4 9.10457 4 8C4 6.89543 4.89543 6 6 6ZM12 6C13.1046 6 14 6.89543 14 8C14 9.10457 13.1046 10 12 10C10.8954 10 10 9.10457 10 8C10 6.89543 10.8954 6 12 6ZM18 6C19.1046 6 20 6.89543 20 8C20 9.10457 19.1046 10 18 10C16.8954 10 16 9.10457 16 8C16 6.89543 16.8954 6 18 6Z" fill="#F6F8F9"/>
<path opacity="0.2" d="M4 20C4 17.7909 5.79086 16 8 16H72C74.2091 16 76 17.7909 76 20V24H4V20Z" fill="#89969F"/>
<path d="M76 48L4 48L4 24L76 24L76 48Z" fill="#89969F"/>
<path fill-rule="evenodd" clip-rule="evenodd" d="M68.7715 32C68.4708 32.0008 68.1999 32.2246 68.085 32.5672C67.9701 32.9099 68.0338 33.3041 68.2463 33.5664L70.2057 35.9833L68.2463 38.4002C68.0419 38.6271 67.9556 38.9747 68.0221 39.3038C68.0885 39.633 68.2968 39.8901 68.5638 39.9725C68.8307 40.0549 69.1128 39.9491 69.2972 39.6973L71.7822 36.6319C72.0726 36.2735 72.0726 35.693 71.7822 35.3347L69.2972 32.2692C69.1578 32.0972 68.9688 32.0004 68.7715 32Z" fill="#B8C5D0"/>
<rect x="28.6667" y="30" width="22.6667" height="1.7" rx="0.85" fill="#B8C5D0"/>
<rect x="23" y="33.4" width="34" height="1.7" rx="0.85" fill="#B8C5D0"/>
<rect x="33.7666" y="39.0667" width="12.4667" height="3.96667" rx="1" fill="#DEE7EE"/>
<path fill-rule="evenodd" clip-rule="evenodd" d="M11.2285 32C11.5292 32.0008 11.8001 32.2246 11.915 32.5672C12.0299 32.9099 11.9662 33.3041 11.7537 33.5664L9.79435 35.9833L11.7537 38.4002C11.9581 38.6271 12.0444 38.9747 11.9779 39.3038C11.9115 39.633 11.7032 39.8901 11.4362 39.9725C11.1693 40.0549 10.8872 39.9491 10.7028 39.6973L8.21776 36.6319C7.92741 36.2735 7.92741 35.693 8.21776 35.3347L10.7028 32.2692C10.8423 32.0975 11.0313 32.0008 11.2285 32Z" fill="#B8C5D0"/>
</svg>
