<svg width="22" height="20" viewBox="0 0 22 20" fill="none" xmlns="http://www.w3.org/2000/svg">
<path fill-rule="evenodd" clip-rule="evenodd" d="M19 19H3C1.895 19 1 18.105 1 17V3C1 1.895 1.895 1 3 1H19C20.105 1 21 1.895 21 3V17C21 18.105 20.105 19 19 19Z" stroke="#122532" stroke-width="1.5" stroke-linecap="round" stroke-linejoin="round"/>
<path d="M1 6H21" stroke="#122532" stroke-width="1.5" stroke-linecap="round" stroke-linejoin="round"/>
<path d="M3.77905 3.49C3.77605 3.49 3.77405 3.492 3.77405 3.495C3.77405 3.498 3.77605 3.5 3.77905 3.5C3.78205 3.5 3.78405 3.498 3.78405 3.495C3.78405 3.492 3.78205 3.49 3.77905 3.49" stroke="#122532" stroke-width="1.5" stroke-linecap="round" stroke-linejoin="round"/>
<path d="M6.32202 3.49C6.31902 3.49 6.31702 3.492 6.31702 3.495C6.31702 3.498 6.32002 3.5 6.32202 3.5C6.32502 3.5 6.32702 3.498 6.32702 3.495C6.32702 3.492 6.32502 3.49 6.32202 3.49" stroke="#122532" stroke-width="1.5" stroke-linecap="round" stroke-linejoin="round"/>
<path d="M8.86096 3.49C8.85796 3.49 8.85596 3.492 8.85596 3.495C8.85596 3.498 8.85796 3.5 8.86096 3.5C8.86396 3.5 8.86596 3.498 8.86596 3.495C8.86596 3.492 8.86396 3.49 8.86096 3.49" stroke="#122532" stroke-width="1.5" stroke-linecap="round" stroke-linejoin="round"/>
<path fill-rule="evenodd" clip-rule="evenodd" d="M16.8308 15H5.06923C4.47902 15 4 14.552 4 14V10C4 9.448 4.47902 9 5.06923 9H16.8308C17.421 9 17.9 9.448 17.9 10V14C17.9 14.552 17.421 15 16.8308 15Z" stroke="#122532" stroke-width="1.2" stroke-linecap="round" stroke-linejoin="round"/>
</svg>
