<svg width="80" height="70" viewBox="0 0 80 70" fill="none" xmlns="http://www.w3.org/2000/svg">
<path d="M0 4C0 1.79086 1.79086 0 4 0H76C78.2091 0 80 1.79086 80 4V66C80 68.2091 78.2091 70 76 70H4C1.79086 70 0 68.2091 0 66V4Z" fill="#B8C5D0"/>
<path fill-rule="evenodd" clip-rule="evenodd" d="M8 16H72C74.2091 16 76 17.7909 76 20V62C76 64.2091 74.2091 66 72 66H8C5.79086 66 4 64.2091 4 62V20C4 17.7909 5.79086 16 8 16ZM6 6C7.10457 6 8 6.89543 8 8C8 9.10457 7.10457 10 6 10C4.89543 10 4 9.10457 4 8C4 6.89543 4.89543 6 6 6ZM12 6C13.1046 6 14 6.89543 14 8C14 9.10457 13.1046 10 12 10C10.8954 10 10 9.10457 10 8C10 6.89543 10.8954 6 12 6ZM18 6C19.1046 6 20 6.89543 20 8C20 9.10457 19.1046 10 18 10C16.8954 10 16 9.10457 16 8C16 6.89543 16.8954 6 18 6Z" fill="#F6F8F9"/>
<path opacity="0.2" d="M4 20C4 17.7909 5.79086 16 8 16H72C74.2091 16 76 17.7909 76 20V24H4V20Z" fill="#89969F"/>
<path d="M76 64C76 65.1046 75.1046 66 74 66L6 66C4.89543 66 4 65.1046 4 64L4 52L76 52L76 64Z" fill="#89969F"/>
<rect x="28.6665" y="56" width="22.6667" height="1.7" rx="0.85" fill="#B8C5D0"/>
<rect x="23" y="59.3999" width="34" height="1.7" rx="0.85" fill="#B8C5D0"/>
</svg>
