<svg width="22" height="22" viewBox="0 0 22 22" fill="none" xmlns="http://www.w3.org/2000/svg">
<path fill-rule="evenodd" clip-rule="evenodd" d="M15.6691 1.18243H3.39128C2.16977 1.18243 1.18156 2.17725 1.19037 3.39986L1.30481 18.8063C1.31362 20.0157 2.29633 20.9907 3.50573 20.9907H18.7812C19.9972 20.9907 20.9821 20.0058 20.9821 18.7898V6.49544C20.9821 5.9122 20.7499 5.35207 20.3372 4.9394L17.2251 1.8273C16.8125 1.41463 16.2534 1.18243 15.6691 1.18243Z" stroke="white" stroke-width="1.5" stroke-linecap="round" stroke-linejoin="round"/>
<path d="M15.4809 1.18243V5.48412C15.4809 6.09157 14.9879 6.58458 14.3804 6.58458H7.7777C7.17025 6.58458 6.67725 6.09157 6.67725 5.48412V1.18243" stroke="white" stroke-width="1.5" stroke-linecap="round" stroke-linejoin="round"/>
<path d="M5.58447 20.9907V12.5017C5.58447 11.7204 6.21834 11.0865 6.99966 11.0865H15.175C15.9552 11.0865 16.589 11.7204 16.589 12.5017V20.9907" stroke="white" stroke-width="1.5" stroke-linecap="round" stroke-linejoin="round"/>
</svg>
