<svg width="80px" height="99px" viewBox="0 0 80 99" version="1.1" xmlns="http://www.w3.org/2000/svg" xmlns:xlink="http://www.w3.org/1999/xlink">
    <g stroke="none" stroke-width="1" fill="none" fill-rule="evenodd">
        <g transform="translate(-43.000000, -52.000000)" fill="#000000" fill-rule="nonzero">
            <g transform="translate(43.000000, 52.000000)">
                <path d="M64.1479592,47.7979592 C72.4469388,44.0959184 77.0163265,37.3163265 77.0163265,28.7071429 C77.0173469,10.194898 65.3836735,0 44.2632653,0 L2.67653061,0 C1.55,0 0.635714286,0.914285714 0.635714286,2.04081633 L0.635714286,96.9489796 C0.635714286,98.0755102 1.55,98.9897959 2.67653061,98.9897959 L44.2642857,98.9897959 C68.3020408,98.9897959 79.9867347,89.4602041 79.9867347,69.8581633 C79.9867347,64.2367347 76.1153061,51.4479592 64.1479592,47.7979592 Z M44.2642857,81.594898 L19.0193878,81.594898 L19.0193878,56.1428571 L44.2642857,56.1428571 C52.6020408,56.1428571 61.4622449,60.6683673 61.4622449,69.0530612 C61.4632653,77.7163265 52.8265306,81.594898 44.2642857,81.594898 Z M44.2642857,39.7377551 L19.0193878,39.7377551 L19.0193878,16.9704082 L44.2642857,16.9704082 C57.4663265,16.9704082 58.4897959,26.2785714 58.4897959,29.1316327 C58.4897959,34.0704082 56.8734694,39.7377551 44.2642857,39.7377551 Z"></path>
            </g>
        </g>
    </g>
</svg>
