<svg width="320px" height="125px" viewBox="0 0 320 125" version="1.1" xmlns="http://www.w3.org/2000/svg" xmlns:xlink="http://www.w3.org/1999/xlink">
    <g  stroke="none" stroke-width="1" fill="none" fill-rule="evenodd">
        <g transform="translate(-84.000000, -708.000000)" fill="#122532">
            <g transform="translate(84.000000, 708.000000)">
                <path class="hide_icon path_e" d="M27.8682228,52.2493315 C26.6981022,52.7434933 25.4456944,54.8436806 24.1109862,58.5498771 C22.7722192,62.2560993 21.5198114,66.7459035 20.3537497,72.015775 C22.1889584,72.015775 24.0250806,71.8110636 25.8643417,71.3980734 C27.6995504,70.9886507 29.0346991,70.1238666 29.8720391,68.8037243 C30.5371273,67.8154005 30.956254,66.3752845 31.124447,64.4798198 C31.2885714,62.5879114 31.2496877,60.6500676 30.9992062,58.6734264 C30.7487243,56.6967788 30.3295959,55.0519435 29.7467983,53.7318075 C29.1594786,52.4152311 28.5332715,51.9210725 27.8681865,52.2493219 M43.3979611,74.2393485 C42.0591942,76.0541 40.3921784,77.5361256 38.3883232,78.686815 C36.384468,79.8410481 34.2124102,80.7870023 31.8757906,81.5282435 C29.5355495,82.2694847 27.1555172,82.8060162 24.7370735,83.1342688 C22.3145451,83.4660874 20.1854369,83.7131699 18.3498038,83.8755101 C17.84884,87.3346401 17.5549534,90.7130569 17.4731163,94.005808 C17.3867588,97.3025851 17.5549524,100.26801 17.9740801,102.900709 C18.3886848,105.537428 19.058295,107.761168 19.9779353,109.571877 C20.8935038,111.386181 22.1888677,112.536848 23.8604023,113.031007 C26.0283819,113.691078 28.3690862,113.320457 30.8738889,111.919591 C33.3787079,110.521844 35.7971678,108.583544 38.1378688,106.11275 C40.4740414,103.641941 42.7288303,100.762166 44.9008622,97.4649092 C47.0688418,94.1721262 48.9908697,91.0020106 50.6619475,87.9522937 C52.3294136,84.9061523 53.7500176,82.1070775 54.9201381,79.5515448 C56.0861901,76.9995653 56.8376342,75.1464479 57.1744736,73.9922116 C57.6754374,72.509726 58.4657657,71.5214022 59.5540492,71.0272403 C60.6382641,70.5330784 61.6831445,70.3707383 62.6850721,70.5330784 C63.6869997,70.6989883 64.5202808,71.2355192 65.1898911,72.1391037 C65.8554295,73.0462575 66.0236257,74.239291 65.6908549,75.7217638 C65.3540155,76.7100876 64.7712146,78.6479315 63.9374832,81.5281572 C63.09968,84.4119553 61.8906752,87.6663819 60.3055095,91.2878649 C58.7167125,94.9133419 56.7987661,98.6619337 54.5444242,102.530029 C52.2900887,106.402151 49.5736576,109.942442 46.4037666,113.154512 C43.2297909,116.366549 39.5973669,119.042097 35.5078129,121.184638 C31.4137564,123.323626 26.8662012,124.396676 21.8565633,124.396676 C15.8449848,124.396676 11.1676966,122.335289 7.82958999,118.219661 C4.48698079,114.104473 2.23263885,108.915314 1.06659657,102.65356 C-0.0999056912,96.3953834 -0.311054677,89.681814 0.440392636,82.5164618 C1.19183671,75.3511097 2.69472809,68.641119 4.94907651,62.3793642 C7.20341197,56.1211881 10.0409921,50.9324771 13.4654578,46.8132631 C16.885842,42.6976279 20.6864849,40.6362475 24.8623655,40.6362475 C28.8700629,40.6362475 32.4161634,41.9951935 35.5078259,44.7130919 C38.595896,47.4309807 40.9754651,50.6042245 42.646543,54.2257074 C44.314009,57.8507371 45.2766021,61.5569592 45.5270824,65.3443419 C45.7775643,69.1353032 45.0650028,72.100249 43.3979871,74.239243" fill-rule="nonzero"></path>
                <path class="hide_icon path_c" d="M97.8233441,74.9984227 C97.4853602,78.3021543 96.4391482,80.9825023 94.6774471,83.0443971 C92.915746,85.1098521 91.0677312,86.5103538 89.1406768,87.2530611 C87.2099838,87.9957652 85.5309609,88.1195519 84.1072404,87.6244148 C82.679891,87.1292776 82.1333905,85.8914364 82.4713744,83.9108783 C82.6367329,82.5917036 82.9747181,80.4449216 83.4780617,77.4740924 C83.9814053,74.5032696 84.3589139,71.4940148 84.6105841,68.4378309 C84.8622559,65.3856779 84.9449358,62.7437523 84.8622559,60.5156304 C84.7759425,58.2875149 84.2330772,57.2588022 83.2263899,57.4210241 C82.2197026,57.5872615 81.0871802,58.8251021 79.828813,61.1345606 C78.5704555,63.4475825 77.4379331,66.3335117 76.4312361,69.7994684 C75.4245488,73.2654251 74.5436999,77.0214149 73.7886828,81.0638198 C73.033669,85.1098105 72.6561604,88.9471208 72.6561604,92.5757509 C72.6561604,96.2079347 73.1163472,99.3454392 74.0403562,101.983366 C74.9607298,104.625288 76.5965958,106.277385 78.9479673,106.934737 C82.9747034,108.091248 86.706632,107.306091 90.1473657,104.583283 C93.5844543,101.859583 96.6476795,98.5174029 99.3333961,94.5563186 C102.015471,90.5952344 104.280519,86.5956989 106.128517,82.54926 C107.972897,78.5068231 109.148579,75.6597998 109.65192,74.0081581 C110.155263,72.5227467 110.949802,71.5324724 112.042799,71.0373353 C113.132165,70.5421981 114.182009,70.3799826 115.188696,70.5421981 C116.195384,70.7084355 117.033076,71.2464734 117.705415,72.151393 C118.374115,73.060337 118.54311,74.255725 118.208758,75.7411236 C117.870774,76.7313979 117.284749,78.5492827 116.447057,81.1876225 C115.60573,83.8295448 114.433683,86.7579272 112.923655,89.9763041 C111.413624,93.1946811 109.565622,96.5373122 107.386885,100.003269 C105.204518,103.468777 102.644643,106.606282 99.7108884,109.410436 C96.7735081,112.219043 93.419101,114.486029 89.6440156,116.219024 C85.8689302,117.952002 81.630055,118.733138 76.934583,118.570478 C70.8944463,118.238004 66.1953941,116.261032 62.8409741,112.628819 C59.4829414,109.000189 57.2219584,104.544426 56.0458528,99.2601198 C54.8742615,93.979848 54.7048139,88.3286708 55.5425092,82.3016898 C56.3842924,76.2787108 57.933389,70.6659848 60.1984371,65.4670337 C62.4634818,60.2680826 65.2713851,55.9356447 68.6294504,52.469688 C71.9838704,49.0037313 75.7589233,47.2707369 79.9546741,47.2707369 C86.32913,47.2707369 91.0677589,50.0364428 94.1741084,55.5642911 C97.2768484,61.0961446 98.4920393,67.5713497 97.8233359,74.9984227" fill-rule="nonzero"></path>
                <path class="hide_icon path_o" d="M135.526911,99.8959579 C137.360788,100.063554 138.862231,99.1899839 140.031219,97.2752432 C141.196139,95.364108 142.033129,92.8681788 142.533607,89.7875009 C143.034084,86.7104025 143.241411,83.3409071 143.159203,79.6785855 C143.073381,76.0207504 142.658725,72.6084839 141.908011,69.4457561 C141.157296,66.2866628 140.11343,63.6231543 138.780027,61.4588072 C137.442559,59.2980817 135.858919,58.2136745 134.025501,58.2136745 C132.355585,58.2136745 130.936363,59.2120423 129.771443,61.2087779 C128.602005,63.2059622 127.726171,65.7018946 127.143936,68.6969722 C126.557636,71.6916237 126.2681,74.9795631 126.2681,78.5554128 C126.2681,82.1357492 126.600548,85.4624476 127.269055,88.5390908 C127.933498,91.6202433 128.934453,94.2409418 130.27192,96.4016738 C131.60487,98.5660048 133.356993,99.731955 135.526946,99.8959579 M132.27395,111.12762 C126.099733,111.12762 121.177188,109.548073 117.509873,106.384932 C113.83806,103.226739 111.292745,99.3148307 109.877584,94.6545802 C108.461973,89.9979448 108.043706,84.9200535 108.626391,79.4290403 C109.212691,73.9380271 110.628302,68.9074226 112.880449,64.3291897 C115.132597,59.7545396 118.092111,55.9678521 121.763924,52.9727745 C125.431239,49.9776711 129.771572,48.6477277 134.776348,48.9788644 C140.61404,49.314507 145.368566,51.061649 149.039958,54.2207585 C152.707273,57.3834573 155.378118,61.294927 157.047606,65.9511105 C158.713004,70.6118129 159.424422,75.5603998 159.174635,80.8022617 C158.924396,86.043252 157.712049,90.9107252 155.546186,95.4029381 C155.284655,95.9444703 155.010477,96.4751927 154.723199,96.9946502 C154.624729,97.1730589 154.524905,97.3501145 154.423725,97.5258213 C152.36716,101.088599 149.695833,104.124701 146.412485,106.635033 C142.490875,109.629684 137.779261,111.127697 132.274017,111.127697" fill-rule="nonzero"></path>
                <path class="hide_icon path_d" d="M198.537234,71.6122695 C198.199397,69.3014714 197.57134,66.9911283 196.653062,64.6762971 C195.730699,62.365499 194.348974,61.0459908 192.507414,60.7128934 C189.82649,60.2174664 187.439868,61.04601 185.347568,63.1900287 C183.251622,65.338071 181.536585,68.1058576 180.197956,71.4884391 C178.855681,74.875057 177.893868,78.6336625 177.308891,82.7593862 C176.720284,86.8891464 176.554768,90.8105204 176.806444,94.5257829 C177.057667,98.2419423 177.767802,101.380387 178.941841,103.938907 C180.111344,106.500995 181.787375,107.945237 183.965852,108.273881 C186.1407,108.606549 188.193566,107.616144 190.120824,105.301767 C192.044451,102.990969 193.720468,100.017955 195.145745,96.3836447 C196.56647,92.75289 197.614443,88.7045302 198.28558,84.245677 C198.953088,79.7868239 199.039248,75.5756955 198.537257,71.6122919 M204.314688,10.4269814 C204.314688,6.4635778 205.402567,3.70026006 207.580576,2.12857103 C209.755424,0.560911981 212.102605,-0.139748922 214.614822,0.0230068417 C217.127054,0.189341528 219.345427,1.09881712 221.272686,2.74785405 C223.195857,4.40046927 223.910075,6.54852115 223.408083,9.188409 C223.070701,11.1701172 222.5678,14.9282998 221.900292,20.4593561 C221.229154,25.9944488 220.519018,32.3920772 219.765349,39.6571426 C219.011226,46.9262444 218.383621,54.438554 217.880723,62.1990689 C217.378731,69.9631396 217.127054,77.1468367 217.127054,83.7501282 C217.127054,90.3574561 217.41773,95.764666 218.006788,99.9757944 C218.591766,104.186923 219.72227,106.292471 221.397855,106.292471 C222.905195,106.292471 224.451985,104.891146 226.045485,102.081343 C227.635355,99.274669 229.186226,96.0119103 230.693114,92.2966478 C232.200454,88.5804884 233.49602,84.9502141 234.587528,81.3968233 C235.6745,77.8474688 236.385088,75.2464712 236.722925,73.5938624 C237.224916,71.9452707 238.018039,70.8301153 239.109543,70.2497225 C240.196516,69.6729176 241.28394,69.5065835 242.375431,69.7542955 C243.462404,70.002009 244.384763,70.6212936 245.138886,71.6121445 C245.892554,72.6029986 246.100699,73.9265208 245.766491,75.5755482 C245.42911,77.2281634 244.675438,80.4484505 243.505484,85.2363646 C242.3319,90.028315 240.573338,94.9401075 238.229783,99.9757464 C235.882616,105.014973 232.828482,109.512716 229.06058,113.475672 C225.292223,117.439075 220.809213,119.420809 215.620127,119.420809 C211.765155,119.420809 208.793582,117.89205 206.701703,114.83811 C204.605306,111.784618 202.972365,107.778739 201.802384,102.824469 C200.46011,105.962917 198.662094,108.769606 196.401083,111.246726 C194.140527,113.723861 191.333538,115.54281 187.985096,116.695965 C184.299747,118.015912 181.115926,118.182246 178.439057,117.191837 C173.579211,116.037779 169.728788,113.437236 166.882328,109.388428 C164.032714,105.343624 162.066017,100.637078 160.979045,95.2687585 C159.891621,89.9044751 159.76601,84.3304602 160.602209,78.5480913 C161.442037,72.7693103 163.153893,67.5673149 165.752276,62.9421374 C168.347039,58.3205477 171.820634,54.7291316 176.177588,52.1666077 C180.531358,49.6080945 185.807058,48.8224679 192.00511,49.8133316 C195.353097,50.3087586 198.285229,52.0427517 200.797478,55.0153269 C201.464986,45.6022032 202.218658,36.8508855 203.058941,28.7577217 C203.894688,20.6681458 204.314604,14.5566839 204.314604,10.4269238" fill-rule="nonzero"></path>
                <path class="hide_icon path_e2" d="M262.951871,52.2493315 C261.781292,52.7434933 260.529333,54.8436806 259.194166,58.5498771 C257.855847,62.2560993 256.603434,66.7459035 255.437368,72.015775 C257.272584,72.015775 259.10826,71.8110636 260.947528,71.3980734 C262.783648,70.9886507 264.117898,70.1238666 264.955695,68.8037243 C265.620786,67.8154005 266.039464,66.3752845 266.208108,64.4798198 C266.372233,62.5879114 266.333349,60.6500676 266.082867,58.6734264 C265.832384,56.6967788 265.413254,55.0519435 264.830454,53.7318075 C264.243132,52.4152311 263.617376,51.9210725 262.951835,52.2493219 M278.481671,74.2393485 C277.143352,76.0541 275.475876,77.5361256 273.472013,78.686815 C271.46815,79.8410481 269.29563,80.7870023 266.959455,81.5282435 C264.619204,82.2694847 262.239616,82.8060162 259.820709,83.1342688 C257.398171,83.4660874 255.269055,83.7131699 253.433414,83.8755101 C252.932449,87.3346401 252.638561,90.7130569 252.556723,94.005808 C252.470366,97.3025851 252.63856,100.26801 253.057689,102.900709 C253.472296,105.537428 254.141908,107.761168 255.061552,109.571877 C255.977124,111.386181 257.272493,112.536848 258.944035,113.031007 C261.112473,113.691078 263.452283,113.320457 265.957096,111.919591 C268.462375,110.521844 270.880847,108.583544 273.221558,106.11275 C275.55819,103.641941 277.812084,100.762166 279.984578,97.4649092 C282.153016,94.1721262 284.074601,91.0020106 285.745686,87.9522937 C287.413159,84.9061523 288.833315,82.1070775 290.003893,79.5515448 C291.16995,76.9995653 291.921397,75.1464479 292.257787,73.9922116 C292.759204,72.509726 293.549988,71.5214022 294.637826,71.0272403 C295.722045,70.5330784 296.76693,70.3707383 297.768861,70.5330784 C298.770793,70.6989883 299.604077,71.2355192 300.27369,72.1391037 C300.939231,73.0462575 301.107428,74.239291 300.774202,75.7217638 C300.437815,76.7100876 299.854559,78.6479315 299.020824,81.5281572 C298.183921,84.4119553 296.974461,87.6663819 295.389289,91.2878649 C293.800486,94.9133419 291.882079,98.6619337 289.628181,102.530029 C287.373837,106.402151 284.657848,109.942442 281.487491,113.154512 C278.313503,116.366549 274.681065,119.042097 270.591041,121.184638 C266.497875,123.323626 261.949849,124.396676 256.940191,124.396676 C250.928589,124.396676 246.251282,122.335289 242.913162,118.219661 C239.57054,114.104473 237.316642,108.915314 236.150142,102.65356 C234.984085,96.3953834 234.772485,89.681814 235.523936,82.5164618 C236.275383,75.3511097 237.77828,68.641119 240.032637,62.3793642 C242.286982,56.1211881 245.12412,50.9324771 248.549052,46.8132631 C251.96945,42.6976279 255.769654,40.6362475 259.946005,40.6362475 C263.953718,40.6362475 267.499833,41.9951935 270.591054,44.7130919 C273.679587,47.4309807 276.058715,50.6042245 277.730253,54.2257074 C279.397275,57.8507371 280.360322,61.5569592 280.610804,65.3443419 C280.860834,69.1353032 280.148722,72.100249 278.4817,74.239243" fill-rule="nonzero"></path>
                <text class="hide_icon" font-family="OpenSans-Regular, Open Sans" font-size="15" font-weight="normal">
                    <tspan x="304.952978" y="122.477335">®</tspan>
                </text>
            </g>
        </g>
    </g>
</svg>
