<svg width="80" height="70" viewBox="0 0 80 70" fill="none" xmlns="http://www.w3.org/2000/svg">
<path d="M0 4C0 1.79086 1.79086 0 4 0H76C78.2091 0 80 1.79086 80 4V66C80 68.2091 78.2091 70 76 70H4C1.79086 70 0 68.2091 0 66V4Z" fill="#B8C5D0"/>
<path fill-rule="evenodd" clip-rule="evenodd" d="M8 16H72C74.2091 16 76 17.7909 76 20V62C76 64.2091 74.2091 66 72 66H8C5.79086 66 4 64.2091 4 62V20C4 17.7909 5.79086 16 8 16ZM6 6C7.10457 6 8 6.89543 8 8C8 9.10457 7.10457 10 6 10C4.89543 10 4 9.10457 4 8C4 6.89543 4.89543 6 6 6ZM12 6C13.1046 6 14 6.89543 14 8C14 9.10457 13.1046 10 12 10C10.8954 10 10 9.10457 10 8C10 6.89543 10.8954 6 12 6ZM18 6C19.1046 6 20 6.89543 20 8C20 9.10457 19.1046 10 18 10C16.8954 10 16 9.10457 16 8C16 6.89543 16.8954 6 18 6Z" fill="#F6F8F9"/>
<path opacity="0.2" d="M4 20C4 17.7909 5.79086 16 8 16H72C74.2091 16 76 17.7909 76 20V24H4V20Z" fill="#89969F"/>
<path d="M21.5106 48.0213C25.1064 48.0213 28.0213 45.1064 28.0213 41.5106C28.0213 37.9149 25.1064 35 21.5106 35C17.9149 35 15 37.9149 15 41.5106C15 45.1064 17.9149 48.0213 21.5106 48.0213Z" fill="#B8C5D0"/>
<rect x="17.7126" y="50.734" width="7.05319" height="1.62766" rx="0.81383" fill="#89969F"/>
<rect x="16.0852" y="53.9894" width="10.8511" height="1.62766" rx="0.81383" fill="#B8C5D0"/>
<path d="M40.4999 48.0213C44.0956 48.0213 47.0105 45.1064 47.0105 41.5106C47.0105 37.9149 44.0956 35 40.4999 35C36.9042 35 33.9893 37.9149 33.9893 41.5106C33.9893 45.1064 36.9042 48.0213 40.4999 48.0213Z" fill="#B8C5D0"/>
<rect x="37.2446" y="50.734" width="7.05319" height="1.62766" rx="0.81383" fill="#89969F"/>
<rect x="35.6169" y="53.9894" width="10.8511" height="1.62766" rx="0.81383" fill="#B8C5D0"/>
<path d="M59.4894 48.0213C63.0851 48.0213 66 45.1064 66 41.5106C66 37.9149 63.0851 35 59.4894 35C55.8937 35 52.9788 37.9149 52.9788 41.5106C52.9788 45.1064 55.8937 48.0213 59.4894 48.0213Z" fill="#B8C5D0"/>
<rect x="55.6914" y="50.734" width="7.05319" height="1.62766" rx="0.81383" fill="#89969F"/>
<rect x="54.0637" y="53.9894" width="10.8511" height="1.62766" rx="0.81383" fill="#B8C5D0"/>
</svg>
