<svg enable-background="new 0 0 512 512" height="512" viewBox="0 0 480.007 480.007" width="512" xmlns="http://www.w3.org/2000/svg"><g fill="#fff"><path d="m192.007 72.004h-32c-4.418 0-8 3.582-8 8v32c0 4.418 3.582 8 8 8h32c4.418 0 8-3.582 8-8v-32c0-4.419-3.582-8-8-8zm-8 32h-16v-16h16z" xmlns="http://www.w3.org/2000/svg"/><path d="m256.007 72.004h-32c-4.418 0-8 3.582-8 8v32c0 4.418 3.582 8 8 8h32c4.418 0 8-3.582 8-8v-32c0-4.419-3.582-8-8-8zm-8 32h-16v-16h16z" xmlns="http://www.w3.org/2000/svg"/><path d="m320.007 72.004h-32c-4.418 0-8 3.582-8 8v32c0 4.418 3.582 8 8 8h32c4.418 0 8-3.582 8-8v-32c0-4.419-3.582-8-8-8zm-8 32h-16v-16h16z" xmlns="http://www.w3.org/2000/svg"/><path d="m192.007 136.004h-32c-4.418 0-8 3.582-8 8v32c0 4.418 3.582 8 8 8h32c4.418 0 8-3.582 8-8v-32c0-4.419-3.582-8-8-8zm-8 32h-16v-16h16z" xmlns="http://www.w3.org/2000/svg"/><path d="m256.007 136.004h-32c-4.418 0-8 3.582-8 8v32c0 4.418 3.582 8 8 8h32c4.418 0 8-3.582 8-8v-32c0-4.419-3.582-8-8-8zm-8 32h-16v-16h16z" xmlns="http://www.w3.org/2000/svg"/><path d="m320.007 136.004h-32c-4.418 0-8 3.582-8 8v32c0 4.418 3.582 8 8 8h32c4.418 0 8-3.582 8-8v-32c0-4.419-3.582-8-8-8zm-8 32h-16v-16h16z" xmlns="http://www.w3.org/2000/svg"/><path d="m192.007 200.004h-32c-4.418 0-8 3.582-8 8v32c0 4.418 3.582 8 8 8h32c4.418 0 8-3.582 8-8v-32c0-4.419-3.582-8-8-8zm-8 32h-16v-16h16z" xmlns="http://www.w3.org/2000/svg"/><path d="m256.007 200.004h-32c-4.418 0-8 3.582-8 8v32c0 4.418 3.582 8 8 8h32c4.418 0 8-3.582 8-8v-32c0-4.419-3.582-8-8-8zm-8 32h-16v-16h16z" xmlns="http://www.w3.org/2000/svg"/><path d="m320.007 200.004h-32c-4.418 0-8 3.582-8 8v32c0 4.418 3.582 8 8 8h32c4.418 0 8-3.582 8-8v-32c0-4.419-3.582-8-8-8zm-8 32h-16v-16h16z" xmlns="http://www.w3.org/2000/svg"/><path d="m192.007 264.004h-32c-4.418 0-8 3.582-8 8v32c0 4.418 3.582 8 8 8h32c4.418 0 8-3.582 8-8v-32c0-4.419-3.582-8-8-8zm-8 32h-16v-16h16z" xmlns="http://www.w3.org/2000/svg"/><path d="m256.007 264.004h-32c-4.418 0-8 3.582-8 8v32c0 4.418 3.582 8 8 8h32c4.418 0 8-3.582 8-8v-32c0-4.419-3.582-8-8-8zm-8 32h-16v-16h16z" xmlns="http://www.w3.org/2000/svg"/><path d="m320.007 264.004h-32c-4.418 0-8 3.582-8 8v32c0 4.418 3.582 8 8 8h32c4.418 0 8-3.582 8-8v-32c0-4.419-3.582-8-8-8zm-8 32h-16v-16h16z" xmlns="http://www.w3.org/2000/svg"/><path d="m192.007 328.004h-32c-4.418 0-8 3.582-8 8v32c0 4.418 3.582 8 8 8h32c4.418 0 8-3.582 8-8v-32c0-4.419-3.582-8-8-8zm-8 32h-16v-16h16z" xmlns="http://www.w3.org/2000/svg"/><path d="m256.007 328.004h-32c-4.418 0-8 3.582-8 8v32c0 4.418 3.582 8 8 8h32c4.418 0 8-3.582 8-8v-32c0-4.419-3.582-8-8-8zm-8 32h-16v-16h16z" xmlns="http://www.w3.org/2000/svg"/><path d="m320.007 328.004h-32c-4.418 0-8 3.582-8 8v32c0 4.418 3.582 8 8 8h32c4.418 0 8-3.582 8-8v-32c0-4.419-3.582-8-8-8zm-8 32h-16v-16h16z" xmlns="http://www.w3.org/2000/svg"/><path d="m440.007 464.004v-16.696c8.163-1.363 15.832-4.823 22.256-10.04 17.829-14.485 22.896-39.57 12.088-59.84-5.292-8.652-6.87-19.073-4.376-28.904 2.402-7.281 2.68-15.095.8-22.528-3.614-14.329-14.896-25.459-29.272-28.88-21.46-5.246-43.108 7.898-48.354 29.357-1.611 6.59-1.519 13.482.266 20.026 3.017 9.834 1.948 20.468-2.968 29.504-13.263 22.953-5.407 52.313 17.547 65.575 4.281 2.474 8.919 4.271 13.75 5.329.752.16 1.512.232 2.264.352v16.744h-64v-424c0-4.418-3.582-8-8-8h-24v-24c0-4.418-3.582-8-8-8h-160c-4.418 0-8 3.582-8 8v24h-24c-4.418 0-8 3.582-8 8v424h-64v-16.696c26.116-4.392 43.728-29.124 39.335-55.24-.861-5.118-2.546-10.062-4.991-14.64-5.292-8.652-6.87-19.073-4.376-28.904 2.402-7.281 2.68-15.095.8-22.528-3.614-14.329-14.896-25.459-29.272-28.88-21.46-5.246-43.109 7.898-48.354 29.357-1.611 6.59-1.519 13.482.266 20.026 3.017 9.834 1.948 20.468-2.968 29.504-13.263 22.953-5.407 52.313 17.546 65.575 4.281 2.474 8.919 4.271 13.75 5.329.752.16 1.512.232 2.264.352v16.744h-40v16h480v-16h-40.001zm-400-33.032c-17.077-4.358-27.388-21.735-23.029-38.812.725-2.842 1.839-5.57 3.309-8.108 7.081-12.754 8.711-27.827 4.52-41.8-.544-2.038-.813-4.139-.8-6.248-.017-7.333 3.337-14.268 9.096-18.808 4.211-3.376 9.451-5.208 14.848-5.192 1.996.002 3.985.233 5.928.688 12.83 3.203 20.635 16.2 17.432 29.03-.146.586-.314 1.165-.504 1.738-3.961 13.997-1.994 29.008 5.44 41.512 2.487 4.619 3.779 9.786 3.76 15.032.028 14.595-9.858 27.345-24 30.952v-94.952h-16zm128-414.968h144v16h-144zm64 448h-32v-48h32zm48 0h-32v-48h32zm64 0h-48v-56c0-4.418-3.582-8-8-8h-96c-4.418 0-8 3.582-8 8v56h-48v-416h208zm80-33.032c-17.077-4.358-27.388-21.735-23.029-38.812.725-2.842 1.839-5.57 3.309-8.108 7.092-12.75 8.733-27.823 4.552-41.8-.555-2.036-.835-4.138-.832-6.248-.017-7.333 3.337-14.268 9.096-18.808 4.211-3.376 9.451-5.208 14.848-5.192 1.996.002 3.985.233 5.928.688 12.83 3.203 20.635 16.2 17.432 29.03-.146.586-.314 1.165-.504 1.738-3.961 13.997-1.994 29.008 5.44 41.512 2.487 4.619 3.779 9.786 3.76 15.032.028 14.595-9.858 27.345-24 30.952v-94.952h-16z" xmlns="http://www.w3.org/2000/svg"/></g></svg>