<svg height="50" viewBox="0 0 48 50" width="48" xmlns="http://www.w3.org/2000/svg"><g fill="#888" fill-rule="evenodd"><path d="m43.8235294 3.4375c-4.117647-4.375-10.8823529-4.375-15 0l-12.9411765 13.4375c-4.117647 4.6875-4.117647 11.5625 0 16.25.2941177.3125.882353.625 1.1764706.9375l4.4117647-4.6875c-.2941176-.3125-.8823529-.625-1.1764706-.9375-1.7647058-1.875-1.7647058-5 0-6.875l12.9411765-13.75c1.7647059-1.875 4.7058824-1.875 6.4705883 0 1.7647058 1.875 1.7647058 5 0 6.875l-3.8235295 4.0625c1.1764706 2.5 1.4705883 5.3125 1.1764706 7.8125l6.7647059-7.1875c4.4117647-4.375 4.4117647-11.5625 0-15.9375z"/><path d="m30 15.9375-4.4117647 4.6875s.8823529.625 1.1764706.9375c1.7647059 1.875 1.7647059 5 0 6.875l-12.9411765 13.75c-1.7647059 1.875-4.70588234 1.875-6.47058822 0-1.76470589-1.875-1.76470589-5 0-6.875l3.82352942-4.0625c-1.1764706-2.5-.2941177-4.0625-1.1764706-7.8125l-6.76470588 7.1875c-4.11764706 4.375-4.11764706 11.5625 0 15.9375s10.88235298 4.375 14.99999998 0l12.9411765-13.75c4.117647-4.375 4.117647-11.5625 0-15.9375-.5882353-.3125-1.1764706-.9375-1.1764706-.9375z"/></g></svg>