<svg fill="none" height="21" viewBox="0 0 22 21" width="22" xmlns="http://www.w3.org/2000/svg"><path clip-rule="evenodd" d="m5.09897 2.35225c-.02942-1.33525-.98426-2.35225-2.53478-2.35225-1.55051 0-2.56419 1.017-2.56419 2.35225 0 1.30759.983715 2.35387 2.50536 2.35387h.02896c1.58039 0 2.56465-1.04628 2.56465-2.35387zm-.2983 4.21269h-4.532441v13.61806h4.532441zm11.12763-.31982c2.9825 0 5.2185 1.94678 5.2185 6.12968l-.0002 7.8082h-4.5322v-7.2857c0-1.83-.6559-3.07875-2.2967-3.07875-1.2521 0-1.998.84185-2.3256 1.65495-.1198.2914-.1492.6974-.1492 1.1044v7.6054h-4.533s.05974-12.34019 0-13.61804h4.533v1.92889c.6015-.92725 1.6789-2.24903 4.0854-2.24903z" fill="#fff" fill-rule="evenodd"/></svg>