<svg height="47" viewBox="0 0 50 47" width="50" xmlns="http://www.w3.org/2000/svg"><path d="m47.9502262 21.8178733h-.3947963c-.4785068-12.0576923-10.4343892-21.71945701-22.6063349-21.71945701s-22.12782803 9.66176471-22.60633482 21.71945701h-.29298642c-1.12456171 0-2.0361991.9116374-2.0361991 2.0361991v12.2171946c0 1.1245617.91163739 2.0361991 2.0361991 2.0361991h2.73868778c.46683774 4.1200123 3.94978055 7.2345622 8.09615386 7.239819h6.3348416v.7070135c0 .4998052.4051722.9049774.9049774.9049774h4.8269231c.4998052 0 .9049773-.4051722.9049773-.9049774v-3.2262443c0-.4998052-.4051721-.9049774-.9049773-.9049774h-4.8291856c-.4998052 0-.9049773.4051722-.9049773.9049774v.7104072h-6.3348417c-3.14828176-.0034887-5.81806129-2.3145692-6.27262439-5.4298642h2.8280543c1.12456169 0 2.03619909-.9116374 2.03619909-2.0361991v-12.2171946c0-1.1245617-.9116374-2.0361991-2.03619909-2.0361991h-.45248869c.47285068-8.3959276 7.45135748-15.08257916 15.96380088-15.08257916 8.5124435 0 15.4977376 6.68665156 15.9638009 15.08371036h-.3529411c-1.1245618 0-2.0361991.9116374-2.0361991 2.0361991v12.2171946c0 1.1245617.9116373 2.0361991 2.0361991 2.0361991h7.3902714c1.1245618 0 2.0361991-.9116374 2.0361991-2.0361991v-12.2171946c.0006005-.5404254-.2136619-1.058922-.5955884-1.4412729s-.9001849-.5971889-1.4406107-.5971886zm-26.9230769 21.9151584h3.0169683v1.4174208h-3.0169683zm-11.36085971-19.8800905v12.2171945c0 .1249513-.10129304.2262444-.22624434.2262444h-7.39027149c-.12495131 0-.22624435-.1012931-.22624435-.2262444v-12.2171945c0-.1249513.10129304-.2262444.22624435-.2262444h7.39027149c.1249513 0 .22624434.1012931.22624434.2262444zm15.28280541-18.92873306c-9.510181 0-17.30769229 7.49773756-17.7771493 16.89253396h-3.01696832c.47624434-11.0588235 9.62104072-19.90950228 20.79411762-19.90950228s20.3178733 8.85067878 20.7941177 19.90950228h-3.0169684c-.4739819-9.3947964-8.2669683-16.89253396-17.7771493-16.89253396zm23.2273756 31.14705886c0 .1249513-.1012931.2262443-.2262444.2262443h-7.3902714c-.1249513 0-.2262444-.101293-.2262444-.2262443v-12.2171946c0-.1249513.1012931-.2262443.2262444-.2262443h7.3902714c.1249513 0 .2262444.101293.2262444.2262443z" fill="#ffcd00"/></svg>