<svg height="42" viewBox="0 0 51 42" width="51" xmlns="http://www.w3.org/2000/svg"><path d="m45 3.75h-5v-2.5c0-.6875-.5625-1.25-1.25-1.25s-1.25.5625-1.25 1.25v2.5h-25v-2.5c0-.6875-.5625-1.25-1.25-1.25s-1.25.5625-1.25 1.25v2.5h-5c-2.75 0-5 2.25-5 5v27.5c0 2.75 2.25 5 5 5h40c2.75 0 5-2.25 5-5v-27.5c0-2.75-2.25-5-5-5zm2.5 32.5c0 1.375-1.125 2.5-2.5 2.5h-40c-1.375 0-2.5-1.125-2.5-2.5v-18.75h45zm0-21.25h-45v-6.25c0-1.375 1.125-2.5 2.5-2.5h5v3.75c0 .6875.5625 1.25 1.25 1.25s1.25-.5625 1.25-1.25v-3.75h25v3.75c0 .6875.5625 1.25 1.25 1.25s1.25-.5625 1.25-1.25v-3.75h5c1.375 0 2.5 1.125 2.5 2.5z" fill="#fb0" transform="translate(.25641)"/></svg>