<svg height="100" viewBox="0 0 94 100" width="94" xmlns="http://www.w3.org/2000/svg"><g fill="#b7b7b7" fill-rule="evenodd"><path d="m92.5126953 52.7945313c-.428125-.8228516-.428125-1.6574219 0-2.4802735 1.4828125-2.8492187 1.4652344-6.2414062-.046875-9.0736328-.4478515-.8394531-.4478515-1.6908203 0-2.5298828 1.4048828-2.6324219 1.5257813-5.7152344.3314453-8.4582031-.0425781-.0976563-.0902343-.191211-.1416015-.2816407-.2548828-20.51054684-26.2148438-30.19941403-45.7957032-29.9662109-19.6423828-.25039063-45.79257809 9.55957031-45.79179684 30.2191406-1.4984375 2.5400391-1.14453125 5.9382813.190625 8.4869141.44785157.8392578.44785157 1.6902344-.00019531 2.5294922-1.51210938 2.8332031-1.52949219 6.2253906-.04667969 9.0740234.428125.8228516.428125 1.6574219 0 2.4802735-1.56152344 3.0003906-1.43984375 6.659375.31757813 9.5488281.54433593.8949218.55292969 1.8460937.02480468 2.7503906-2.45136718 4.196875-1.40175781 9.6142578 2.44140626 12.6011719.64042968.4978515.96777343 1.1064453 1.02988281 1.915039.32851562 4.2742188 3.48613281 7.881836 7.67851566 8.7734375.8388672.1783204 1.4160156.6146485 1.8164062 1.3730469 2.0177734 3.8212891 6.3828125 5.8744141 10.6119141 4.9921875.9751953-.2041016 1.8169922.0609375 2.5009765.7853516 2.7871094 2.95 7.1658204 3.8648437 10.8960938 2.2761719.9140625-.3890626 1.8220703-.2871094 2.6263672.2945312 1.705664 1.2335937 3.7042969 1.8503906 5.703125 1.8503906 1.9992187-.0001953 3.9992187-.6171875 5.7054687-1.8513672.8048828-.5824218 1.7136719-.6841796 2.6273438-.2945312 3.73125 1.590625 8.1111328.6763672 10.8992187-2.2751953.6841797-.7246094 1.5261719-.9888672 2.5009766-.7851563 4.2302734.8808594 8.5941406-1.1708984 10.6117187-4.9921875.4003907-.7583984.9777344-1.1947265 1.8166016-1.3730468 4.1921875-.8914063 7.3498047-4.4992188 7.6785156-8.7736329.0619141-.8083984.3892578-1.4167968 1.0298828-1.9148437 3.8427735-2.9869141 4.8923829-8.4041016 2.4414063-12.6009766-.5283203-.9044922-.5197266-1.855664.0244141-2.7505859 1.7578125-2.8898438 1.8796875-6.5486328.318164-9.5490234zm-74.4044922-39.5785157c7.6566406-4.7410156 17.8673828-7.35214841 28.7513672-7.35214841 10.8837891 0 21.0945313 2.6109375 28.7511719 7.35214841 14.8341797 8.9103516 14.8376953 23.6238282-.0003906 32.5337891-7.6564454 4.7410156-17.8671875 7.3521484-28.7507813 7.3521484-10.8839844 0-21.0945312-2.6109375-28.7513672-7.3521484-14.83398435-8.9103516-14.8378906-23.6238281 0-32.5337891zm69.2070313 42.2835938c.621289 1.1935547.5728515 2.6492187-.1265625 3.7990234-1.6570313 2.725-1.6863282 5.9960938-.0779297 8.7501953.9755859 1.6705078.5554687 3.8285157-.9771485 5.0197266-1.9541015 1.5185547-3.0871093 3.6253906-3.2765624 6.0919922-.1308594 1.7009765-1.3873047 3.1367187-3.0552735 3.4914062-2.5224609.5363282-4.575 2.0876953-5.7792969 4.3685547-.8048828 1.5246094-2.5460937 2.344336-4.234375 1.9916016-2.9722656-.6191406-5.8722656.2910156-7.9564453 2.4978515-1.1113281 1.1763672-2.85625 1.5416016-4.3416015.9085938-2.825586-1.2046875-5.872461-.8628906-8.359961.9373047-1.3583984.9820312-3.1830078.9824218-4.540625.0003906-2.4867187-1.7986328-5.5328125-2.1396484-8.355664-.9373047-1.4851563.6326172-3.2294922.2671875-4.340625-.9089844-2.0845704-2.2068359-4.9841797-3.1169921-7.9564454-2.4978515-1.6896484.352539-3.4296875-.4671875-4.2345703-1.9917969-1.2042968-2.2806641-3.2566406-3.8318359-5.7791015-4.3683594-1.6681641-.3546875-2.9246094-1.7904297-3.0552735-3.4917968-.1902343-2.4669922-1.32304684-4.5732422-3.27636715-6.0916016-1.53300781-1.1914063-1.953125-3.3492188-.97753906-5.0197266 1.60820312-2.7542968 1.57910156-6.0253906-.07832032-8.7503906-.69902343-1.1494141-.74726562-2.6050781-.12617187-3.7988281 1.30488281-2.5072266 1.30488281-5.3832031 0-7.8904297-.59003906-1.1333985-.58300781-2.4828125.01855469-3.6095703.06210937-.116211.11796875-.2339844.17441406-.3515625 18.22539065 20.4976562 62.29101565 20.5009765 80.51777345-.0042969.0570312.1191406.1138672.2384766.1765625.3560547.6013672 1.1267578.6083984 2.4761719.0185547 3.6095703-1.3048828 2.5070313-1.3048828 5.3830078 0 7.8902344z" fill-rule="nonzero"/><path d="m46.859375 45.3732422c14.4736328 0 25.8115234-6.9798828 25.8115234-15.8904297-.6625-21.01953125-50.968164-21.0109375-51.6230468.0003906.0001953 8.9101563 11.3376953 15.8900391 25.8115234 15.8900391zm-19.8226563-14.85c5.4759766 1.5904297 11.231836 1.5230469 16.4908204-.4976563 4.4988281-1.7255859 8.459375-4.8238281 11.4539062-8.9599609.1421875-.1962891.253125-.4052734.3402344-.6203125.8421875.2097656 1.646875.4486328 2.4117187.7126953-2.0519531 8.1810547-7.0542968 14.3154297-13.7304687 16.8333985-1.1410156.4302734-2.334375.7544921-3.5498047.9673828-7.4810547-1.3435547-12.5613281-4.9210938-13.4164063-8.4355469zm39.7748047-1.0404297c0 3.7417969-5.0972656 7.8199219-13.0189453 9.3769531 4.2861328-3.703125 7.5115235-8.8697265 9.2851563-15.027539 2.3861328 1.7134765 3.733789 3.7265625 3.733789 5.6505859zm-18.0953125-9.9857422c-2.0728515 2.2794922-4.5558593 4.0101563-7.2871093 5.0578125-3.7679688 1.4447266-7.9900391 1.60625-12.2427735.4804688 3.1863282-3.3576172 11.6878906-6.084961 19.5298828-5.5382813z" fill-rule="nonzero"/><path d="m17.3716797 70.5609375c-1.6134766 0-2.9296875 1.3162109-2.9296875 2.9296875.1498047 3.8808594 5.7101562 3.8798828 5.859375 0 0-1.6136719-1.3160156-2.9296875-2.9296875-2.9296875z"/><path d="m29.9261719 69.5849609c0-1.6134765-1.3160156-2.9296875-2.9296875-2.9296875-3.8808594.1498047-3.8796875 5.7101563 0 5.859375 1.6136719.0001953 2.9296875-1.3160156 2.9296875-2.9296875z"/><path d="m30.8482422 76.3439453c-1.6136719 0-2.9296875 1.3160156-2.9296875 2.9296875.15 3.8806641 5.7099609 3.8796875 5.859375 0 0-1.6136719-1.3160156-2.9296875-2.9296875-2.9296875z"/><path d="m76.1664063 63.2167969c-1.6136719 0-2.9296875 1.3160156-2.9296875 2.9296875.1498046 3.8808594 5.7101562 3.8796875 5.859375 0 .0001953-1.6136719-1.3160157-2.9296875-2.9296875-2.9296875z"/><path d="m72.3146484 72.9052734c-1.6134765 0-2.9296875 1.316211-2.9296875 2.9296875.1498047 3.8808594 5.7101563 3.8796875 5.859375 0 0-1.6134765-1.3160156-2.9296875-2.9296875-2.9296875z"/></g></svg>