<svg height="50" viewBox="0 0 33 50" width="33" xmlns="http://www.w3.org/2000/svg"><g fill="#676767" fill-rule="evenodd" transform="translate(.085938)"><path d="m16.3739258 13.4916992-1.8916016-12.6041992c-.075-.5125-.5146484-.8875-1.0291992-.8875-.0104492 0-.0229492 0-.0354492 0-.5291992.01669922-.9604492.42705078-1.0020508.95419922l-.9125 10.94374998c-.05625.675-1.2541992.675-1.3104492 0l-.91035158-10.94374998c-.04589844-.53964844-.49589844-.95419922-1.0375-.95419922-.54169922 0-.99375.41455078-1.0375.95419922l-.9125 10.94374998c-.05625.675-1.25419922.675-1.31044922 0l-.91044922-10.94374998c-.04375-.525-.475-.93544922-1.00419922-.95419922-.0125 0-.02294922 0-.03330078 0-.51455078 0-.95419922.375-1.02919922.8875l-1.88955078 12.6041992c-.55625 3.69375 1.44794922 7.2270508 4.82705078 8.7l-1.60830078 22.5416992c-.09580078 1.35625.37919922 2.7041993 1.30625 3.7.925.9958008 2.23544922 1.5666016 3.59794922 1.5666016h.00830078c1.36044922 0 2.67294922-.5708008 3.60000002-1.5666992.9270508-.9958008 1.4020508-2.34375 1.30625-3.7l-1.6083008-22.5416016c3.3791992-1.4729492 5.3833008-5.00625 4.8270508-8.7z"/><path d="m31.7614258.19169922c-.275-.19580078-.6291992-.24169922-.9479492-.13125-.0895508.03125-9.0270508 3.31455078-9.0270508 13.48124998 0 7.31875 2.38125 11.0145508 3.7208008 12.5145508l-1.3333008 1.3333008c-.1708008.1708008-.2770508.39375-.3.6333008l-1.6479492 16.48125c-.1416993 1.4020507.31875 2.80625 1.2645507 3.8520507.9458985 1.0458985 2.3021485 1.6438477 3.7105469 1.6438477 2.75625 0 5-2.24375 5-5v-43.95830078c.0020508-.33964844-.1625-.65419922-.4396484-.85z"/></g></svg>