<svg height="35" viewBox="0 0 50 35" width="50" xmlns="http://www.w3.org/2000/svg"><g fill="#63902a" fill-rule="evenodd"><path d="m33.14375 17.44375 16.85625 10.65625v-21.7625z"/><path d="m0 6.3375v21.7625l16.85625-10.65625z"/><path d="m46.875 0h-43.75c-1.559375 0-2.796875 1.1625-3.03125 2.659375l24.90625 16.409375 24.90625-16.409375c-.234375-1.496875-1.471875-2.659375-3.03125-2.659375z"/><path d="m30.28125 19.33125-4.421875 2.9125c-.2625.171875-.559375.25625-.859375.25625s-.596875-.084375-.859375-.25625l-4.421875-2.915625-19.61875 12.409375c.240625 1.484375 1.471875 2.6375 3.025 2.6375h43.75c1.553125 0 2.784375-1.153125 3.025-2.6375z"/></g></svg>