<svg height="50" viewBox="0 0 50 50" width="50" xmlns="http://www.w3.org/2000/svg"><path d="m45.8685714 32.8192708c-3.0532467 0-6.0511688-.478776-8.8920779-1.4200521-1.3920779-.4760416-3.1033766-.0393229-3.952987.8355469l-5.6074026 4.2440104c-6.502987-3.4803385-10.5087013-7.4951823-13.9325974-13.9661458l4.1084416-5.4755208c1.0674025-1.06875 1.4502597-2.6299479.9915584-4.0947917-.9428571-2.8632812-1.4218182-5.86757812-1.4218182-8.93007812.0001299-2.21236979-1.7950649-4.01223958-4.0015584-4.01223958h-9.15844159c-2.2064935 0-4.00168831 1.79986979-4.00168831 4.01210937 0 25.35807293 20.5763636 45.98789063 45.8685714 45.98789063 2.2064935 0 4.0016883-1.7998698 4.0016883-4.0121094v-9.1566406c-.0001298-2.2121094-1.7953246-4.0119792-4.0016883-4.0119792z" fill-rule="evenodd"/></svg>