<svg height="50" viewBox="0 0 45 50" width="45" xmlns="http://www.w3.org/2000/svg"><path d="m43.1476854 23.1212662-22.7128989-22.37499997c-1.0100225-.99496753-2.6482397-.99496753-3.6582622 0l-1.8293782 1.80211039c-1.0106817.99561689-1.0106817 2.60974026 0 3.60405844l15.172749 14.94756494h-27.4302921c-1.42843446 0-2.58743071 1.1420455-2.58743071 2.5488636v2.548539c0 1.4064935 1.15899625 2.5488636 2.58743071 2.5488636h27.4291386l-15.1714307 14.9446429c-1.0106817.9961039-1.0106817 2.6113636 0 3.6053571l1.8293782 1.8021104c1.0100225.9961039 2.6482397.9961039 3.6582622 0l22.7128989-22.3751623c1.0101873-.9948052 1.0101873-2.6069805-.0001648-3.6019481z" fill-rule="evenodd" transform="translate(.875)"/></svg>