<svg fill="none" height="14" viewBox="0 0 14 14" width="14" xmlns="http://www.w3.org/2000/svg"><g clip-rule="evenodd" fill-rule="evenodd"><path d="m7.27918.696289c-1.78765 0-2.012.007817-2.71412.039768-.70074.032089-1.17906.143029-1.59759.305803-.43292.16813-.80016.39302-1.16603.75903-.36615.36587-.59104.73311-.75971 1.1659-.163192.41866-.274269.89712-.30581 1.59759-.031403.70212-.039631.9266-.039631 2.71426 0 1.78765.007954 2.01131.039768 2.71343.032226.70073.143166 1.17903.305803 1.59763.16826.4329.39316.8001.75917 1.166.36573.3661.73297.5916 1.16562.7597.4188.1628.89726.2737 1.59786.3058.70212.032.92633.0398 2.71385.0398 1.78779 0 2.01146-.0078 2.71357-.0398.70077-.0321 1.17957-.143 1.59837-.3058.4328-.1681.7995-.3936 1.1653-.7597.3661-.3659.591-.7331.7597-1.1659.1618-.4187.2729-.8971.3058-1.59759.0315-.70212.0397-.92592.0397-2.71357 0-1.78766-.0082-2.01201-.0397-2.71412-.0329-.70075-.144-1.17907-.3058-1.5976-.1687-.43292-.3936-.80016-.7597-1.16603-.3662-.36614-.7323-.59104-1.1657-.75903-.4196-.162774-.8982-.273714-1.59893-.305803-.70211-.031951-.92564-.039768-2.71384-.039768z" fill="#fff"/><g fill="#000"><path d="m6.68896 1.88226c.11466-.00018.238-.00012.37111-.00006l.21938.00006c1.75749 0 1.96579.00631 2.65982.03785.64173.02935.99013.13658 1.22213.22668.3072.1193.5262.26192.7564.4923.2304.23039.373.4498.4926.75697.0901.23176.1975.58007.2267 1.22185.0315.69389.0384.90233.0384 2.659 0 1.75666-.0069 1.9651-.0384 2.65899-.0294.6418-.1366.9901-.2267 1.2218-.1193.3072-.2622.526-.4926.7562-.2304.2304-.4491.373-.7564.4923-.2318.0905-.5804.1975-1.22213.2268-.69389.0316-.90233.0384-2.65982.0384-1.75762 0-1.96592-.0068-2.65981-.0384-.64178-.0296-.9901-.1368-1.22226-.2269-.30718-.1193-.52659-.262-.75697-.4923-.23038-.2304-.373-.4493-.49258-.7566-.0901-.2318-.19747-.5801-.22668-1.22185-.03154-.69389-.03785-.90233-.03785-2.66009s.00631-1.9651.03785-2.65899c.02935-.64178.13658-.9901.22668-1.22213.1193-.30717.2622-.52658.49258-.75697.23038-.23038.44979-.373.75697-.49258.23203-.0905.58048-.19747 1.22226-.22695.60722-.02743.84254-.03565 2.06932-.03702zm4.10394 1.09291c-.4361 0-.7899.35339-.7899.78961 0 .43608.3538.78988.7899.78988s.7899-.3538.7899-.78988-.3538-.78989-.7899-.78989zm-6.89393 4.30309c0-1.86674 1.51345-3.38024 3.38017-3.38031 1.86678 0 3.37986 1.51353 3.37986 3.38031s-1.51294 3.37964-3.37972 3.37964c-1.86679 0-3.38031-1.51286-3.38031-3.37964z"/><path d="m7.27908 5.08472c1.2117 0 2.19411.98227 2.19411 2.19411 0 1.2117-.98241 2.19412-2.19411 2.19412-1.21184 0-2.19412-.98242-2.19412-2.19412 0-1.21184.98228-2.19411 2.19412-2.19411z"/></g></g></svg>