<svg height="44" viewBox="0 0 50 44" width="50" xmlns="http://www.w3.org/2000/svg"><g fill="none" fill-rule="evenodd" transform="translate(0 2)"><path d="m45.8333333 4h-41.66666663c-2.30118646 0-4.16666667 1.86548021-4.16666667 4.16666667v29.16666663c0 2.3011865 1.86548021 4.1666667 4.16666667 4.1666667h41.66666663c2.3011865 0 4.1666667-1.8654802 4.1666667-4.1666667v-29.16666663c0-2.30118646-1.8654802-4.16666667-4.1666667-4.16666667zm1 34.3333333h-43.66666663v-31.16666663h43.66666663zm-30.7962434-16.2790288c2.5057656 0 4.5370899-2.0268751 4.5370899-4.5271523 0-2.5002771-2.0313243-4.5271522-4.5370899-4.5271522s-4.5370899 2.0268751-4.5370899 4.5271522c0 2.5002772 2.0313243 4.5271523 4.5370899 4.5271523zm7.9472184 7.9888622c0-4.2083334-5.288142-6.0431667-7.9921542-6.0431667-2.7040121 0-7.9921541 1.8348333-7.9921541 6.0431667v2.3735h15.9843083z" fill="#ffcd00" fill-rule="nonzero"/><g stroke="#ffcd00" stroke-linecap="square" stroke-width="3"><path d="m32 22.4166667h8.5"/><path d="m32 30.4166667h8.5"/><path d="m32 14.4166667h8.5"/><path d="m25 5.19167478v-2.69067859-2.50099619"/></g></g></svg>