<svg height="50" viewBox="0 0 37 50" width="37" xmlns="http://www.w3.org/2000/svg"><path d="m15 32.7777778c-.1488095.406746-.1884921.8035714-.2777778 1.1805555-.3869047 1.5575397-.6845238 3.1349207-1.0615079 4.6924604-.2876984 1.1805555-.5952381 2.3710317-1.0119048 3.5218253-.3571428 1.0119048-.8432539 1.9940477-1.3293651 2.9563493-.7539682 1.5178571-1.67658726 2.9464285-2.67857138 4.3055555-.1686508.2281746-.25793651.625-.60515873.5357143-.41666667-.109127-.34722223-.5357143-.38690477-.8730159-.28769841-2.1527778-.36706349-4.3055555-.29761904-6.4682539.03968254-1.1309524.07936508-2.2817461.35714285-3.3829366.28769842-1.1210317.49603175-2.2619047.76388889-3.3829365.18849207-.7936508.36706349-1.6071428.48611111-2.4206349.10912699-.7638889.40674604-1.4980159.52579365-2.2519841.15873016-1.0218254.44642858-2.0138889.65476192-3.0257937.1884921-.9126984.4265873-1.8253968.6150794-2.7380952.1289682-.625.2579365-1.2400794.4265873-1.8551587.079365-.2976191.0198412-.6150794-.1289683-.9424603-.3968254-.8730159-.4861111-1.8353175-.625-2.7678572-.1785714-1.2003968-.0793651-2.4107143.2083333-3.5813492.4464286-1.7956349 1.1607143-3.4424603 2.8174604-4.5138889 1.8353174-1.1805555 4.4246031-.6448413 5.2380952 1.5079365.515873 1.3888889.406746 2.7579365.2083333 4.1666667-.1686508 1.2202381-.5357143 2.390873-.8730158 3.5615079-.2678572.9027778-.5555556 1.8055556-.7837302 2.718254-.1785714.7440476-.515873 1.4781746-.4761905 2.2718254.0198413.4365079-.0793651.8630952-.0496032 1.3194444.109127 1.7757937 1.1210318 2.8968254 2.609127 3.5714286.8333334.3769841 1.7956349.3968254 2.7678572.1488095 1.0218254-.2579365 1.8650793-.734127 2.6587301-1.359127.9027778-.7142857 1.5178572-1.6666666 2.1130953-2.6190476.6150793-.9821428 1.0218254-2.0833333 1.3690476-3.1845238.4464286-1.4484127.7539682-2.9464286.9623016-4.4642857.1587301-1.1904762.1587301-2.3710317.188492-3.5515873.0496032-2.172619-.5059523-4.2063492-1.547619-6.07142857-.6448413-1.16071428-1.6071429-2.0734127-2.7083333-2.87698413-.9226191-.66468253-1.9543651-1.01190476-2.9563493-1.43849206-.3373015-.14880952-.7242063-.16865079-1.0813492-.25793651-1.1706349-.28769841-2.3809523-.26785714-3.5714285-.21825396-1.468254.0595238-2.8869048.37698412-4.2460318.93253968-1.438492.59523809-2.7281746 1.43849206-3.83928569 2.51984127-1.16071429 1.0813492-2.0734127 2.37103178-2.78769841 3.80952378-.55555556 1.1309524-.96230159 2.3412699-1.15079365 3.561508-.22817461 1.5178571-.40674604 3.0456349-.11904762 4.6130952.17857143 1.0019841.49603174 1.9444444.90277777 2.8571429.18849207.4265873.48611112.813492.80357143 1.1607142.3670635.4067461.4265873.8531746.32738096 1.3293651-.1686508.8333334-.37698413 1.6666667-.58531746 2.4900794-.15873016.6349206-.88293651.922619-1.49801588.6150794-1.86507936-.9623016-3.19444444-2.420635-4.02777778-4.3452381-.76388888-1.7757937-1.20039682-3.6309524-1.21031746-5.5853175-.00992063-1.3690476-.08928571-2.7480159.22817461-4.0873016.24801587-1.0813492.53571428-2.1428571.93253968-3.1845238.50595238-1.3293651 1.18055556-2.53968254 1.95436508-3.72023809 1.15079365-1.76587302 2.63888889-3.22420635 4.34523809-4.45436508 1.29960318-.94246032 2.71825393-1.71626984 4.21626983-2.25198413.9424603-.33730159 1.9146826-.58531746 2.906746-.79365079 1.7757937-.35714286 3.5515873-.48611111 5.3373016-.42658731.9623016.02976191 1.9047619.26785715 2.8571429.40674604 1.2896825.19841269 2.4603175.68452381 3.6309524 1.19047619.7837301.33730158 1.5277778.78373016 2.2420635 1.26984127 1.1309523.76388889 2.1428571 1.66666666 3.0456349 2.67857143 1.0714286 1.19047619 1.9047619 2.53968254 2.5892857 3.99801587.3373016.7043651.5654762 1.4484127.8829365 2.1626984.1388889.3075397.1785714.6845238.2281746 1.031746.0892857.5753969.1587302 1.170635.2777778 1.7261905.2480159 1.1706349.1587301 2.3313492.1190476 3.4821429-.0297619.9821428-.109127 1.9742063-.3373016 2.9464285-.109127.4563493-.0793651.9226191-.1984127 1.3988096-.1984127.7638889-.3769841 1.5376984-.5853174 2.3015873-.3174604 1.1904762-.7837302 2.3214285-1.3293651 3.4126984-1.1706349 2.3611111-2.718254 4.4246032-4.9305556 5.9424603-.7837301.5357143-1.5972222 1.0119048-2.4801587 1.359127-1.9444444.7440476-3.9781746 1.0714286-6.031746.6646825-1.8948413-.3769841-3.5218254-1.2996031-4.6924604-2.9166666-.0694444-.1289683-.1785714-.1984127-.297619-.3075397z" fill="#888" fill-rule="evenodd" transform="translate(.875)"/></svg>