<svg height="50" viewBox="0 0 50 50" width="50" xmlns="http://www.w3.org/2000/svg"><g fill="none" fill-rule="evenodd"><rect fill="#63902a" height="50" rx="10" width="50"/><path d="m40.1915308 30.9734896c-2.142833 0-4.2468379-.3351432-6.2406479-.9940365-.9769896-.3332291-2.1780151-.027526-2.7742896.5848828l-3.9353934 2.9708073c-4.5639334-2.436237-7.3752282-5.2466276-9.7781907-9.7763021l2.8833909-3.8328645c.7491257-.748125 1.0178229-1.8409636.6958967-2.8663542-.6617171-2.0042969-.997862-4.1073047-.997862-6.2510547.0000911-1.54865885-1.2598144-2.8085677-2.8083781-2.8085677h-6.4275875c-1.54856363 0-2.8084692 1.25990885-2.8084692 2.8084766 0 17.750651 14.4409259 32.1915234 32.1915308 32.1915234 1.5485636 0 2.8084692-1.2599089 2.8084692-2.8084766v-6.4096484c-.0000911-1.5484766-1.2599967-2.8083854-2.8084692-2.8083854z" fill="#f0f2f5"/></g></svg>