<svg height="40" viewBox="0 0 50 40" width="50" xmlns="http://www.w3.org/2000/svg"><path d="m50 4.73538462c-1.859375.80307692-3.840625 1.33538461-5.90625 1.59384615 2.125-1.24923077 3.746875-3.21230769 4.509375-5.57846154-1.98125 1.16307692-4.16875 1.98461539-6.5 2.44307692-1.88125-1.97230769-4.5625-3.19384615-7.4875-3.19384615-5.675 0-10.24375 4.53538462-10.24375 10.0953846 0 .8.06875 1.5692308.2375 2.3015385-8.521875-.4092308-16.0625-4.43076925-21.128125-10.5569231-.884375 1.51076923-1.403125 3.24-1.403125 5.10153846 0 3.49538464 1.828125 6.59384614 4.553125 8.38769234-1.646875-.0307693-3.2625-.5015385-4.63125-1.243077v.1107693c0 4.9046154 3.553125 8.9784615 8.2125 9.9169231-.834375.2246153-1.74375.3323076-2.6875.3323076-.65625 0-1.31875-.036923-1.940625-.1723076 1.328125 3.996923 5.096875 6.9353846 9.578125 7.0307692-3.4875 2.6861538-7.915625 4.3046154-12.709375 4.3046154-.840625 0-1.646875-.0369231-2.453125-.1384616 4.540625 2.883077 9.921875 4.5292308 15.725 4.5292308 18.8625 0 29.175-15.3846154 29.175-28.72 0-.4461538-.015625-.8769231-.0375-1.30461538 2.034375-1.42153847 3.74375-3.19692308 5.1375-5.24z" fill="#fff" fill-rule="evenodd"/></svg>