<svg height="50" viewBox="0 0 33 50" width="33" xmlns="http://www.w3.org/2000/svg"><g fill="#fff" fill-rule="evenodd"><path d="m32.7089528 25.7796296c0-.9666666-.650943-1.6112963-1.6275447-1.6112963-.9766016 0-1.6275446.6444445-1.6275446 1.6112963 0 6.1225926-5.8588616 11.2785185-13.0197962 11.2785185-7.16093468 0-13.0197962-5.1559259-13.0197962-11.2785185 0-.9666666-.65094305-1.6112963-1.62754467-1.6112963s-1.62754467.6444445-1.62754467 1.6112963c0 7.562963 6.33416218 13.630926 14.64715384 14.355926v6.59h-4.88244699c-.97641457 0-1.62754467.6444444-1.62754467 1.6112963 0 .9668518.65094305 1.6112962 1.62754467 1.6112962h13.01979619c.9764146 0 1.6275447-.6444444 1.6275447-1.6112962 0-.9668519-.6509431-1.6112963-1.6275447-1.6112963h-4.8818858v-6.5962963c8.3129916-.7574074 14.6471538-7.0896297 14.6471538-14.3496297z"/><path d="m16.4342543 32.2244444c4.5569755 0 8.1373493-3.867037 8.1373493-8.0561111v-16.11222219c0-4.51148148-3.5803738-8.05611111-8.1373493-8.05611111-4.5569754 0-8.1373492 3.54462963-8.1373492 8.05611111v16.11222219c0 4.5114815 3.5805609 8.0561111 8.1373492 8.0561111zm-4.8822599-24.16833329c0-2.57796296 2.2784877-4.8337037 4.882447-4.8337037 2.6039592 0 4.8824469 1.93351852 4.8824469 4.8337037v16.11222219c0 2.577963-2.2784877 4.8337037-4.8824469 4.8337037-2.6039593 0-4.882447-2.2557407-4.882447-4.8337037z" fill-rule="nonzero"/></g></svg>