<svg height="50" viewBox="0 0 50 50" width="50" xmlns="http://www.w3.org/2000/svg"><g fill="#ffcd00" fill-rule="evenodd"><path d="m37.0730016 18.6062806c-.3640293.2258564-.8466558.1137847-1.0723491-.2502447-.2260195-.3639478-.1138662-.8465742.2500816-1.0724307l12.478385-7.80489394c.3640294-.22748777.8448613-.11378467 1.0723491.25024469.0797716.128385.1171289.26973899.1171289.41117455h.0017129v29.6465742c0 .292496-.1623981.547553-.4013867.6824633l-13.9912724 9.3257749c-.2324633.1544046-.5183524.1655791-.7557096.05677v.0017129l-19.8801795-9.1780588-13.67601955 9.117863c-.35750408.2389886-.84339315.1414356-1.08066884-.2159054-.10236542-.1544861-.14298532-.3314845-.12838499-.5021207l.00978793-29.3688417c0-.2843394.15277324-.5329527.38189233-.667863l-.00163132-.0016313 10.90864604-6.4447798c.3688417-.2176998.8466558-.0958401 1.0659869.2730016.2176998.3704731.0958401.8482056-.2746329 1.065987l-10.52667215 6.2205546-.00970636 27.5372757 12.82610111-8.5523654.0016314.0016313c.2177814-.1462479.503752-.1771615.7572593-.0601957l19.8849919 9.1765089 13.3299347-8.8838499v-27.8250408z"/><path d="m24.9602773 0c3.0143557 0 5.744372 1.22357259 7.72031 3.19959217l.0016313.00163132.0017129-.00163132c1.9760196 1.97438825 3.1979608 4.70766721 3.1979608 7.72365413 0 3.0566069-1.7078303 6.6884992-3.8692496 10.1042415-2.1270799 3.3637846-4.6767536 6.5065253-6.4512235 8.6725938-.2730831.3331158-.7653344.3818923-1.0969004.1089722-.0584829-.0487765-.1088092-.1039967-.1495106-.1641109-1.7826265-2.1761011-4.3160686-5.3057096-6.4138663-8.6222675-2.1596248-3.4173736-3.864274-7.0476346-3.864274-10.1010604 0-3.01598694 1.2236541-5.74763458 3.1980424-7.72357259 1.9777324-1.97446982 4.7094616-3.19804241 7.725367-3.19804241zm6.6234095 4.30138662c-1.6947798-1.69159869-4.03646-2.73972267-6.6217782-2.73972267-2.5853996 0-4.9269983 1.04812398-6.6203099 2.74135399-1.6933116 1.69323002-2.7429853 4.03482872-2.7429853 6.61859706 0 2.715416 1.5973899 6.0694127 3.6205546 9.2722675 1.8427406 2.9136216 4.0397227 5.695677 5.739478 7.7821371 1.7029364-2.0915172 3.9064437-4.8799348 5.7411093-7.778956 2.0247145-3.1995921 3.6237357-6.5568515 3.6237357-9.2755302 0-2.58531807-1.048124-4.92699833-2.7412724-6.62022834z" fill-rule="nonzero"/><path d="m24.9602773 6.24159869c1.2918434 0 2.4650897.52487766 3.3101142 1.37145188v.00326264c.8465742.84665579 1.3714519 2.0182708 1.3714519 3.30685159 0 1.2886623-.5250408 2.4602773-1.3714519 3.3068515l-.0032626.0032627c-.8466558.8465742-2.0182708 1.3714518-3.3068516 1.3714518-1.2918434 0-2.4651713-.5248776-3.3101957-1.3714518-.8465743-.8450245-1.3714519-2.0182708-1.3714519-3.3101958 0-1.29021207.5248776-2.46027733 1.3714519-3.30685155v-.00326265c.8467373-.84641109 2.0182708-1.37137031 3.3101957-1.37137031zm2.2083198 2.47324633-.0017129.00171289c-.5638663-.56386623-1.3454323-.9132137-2.20677-.9132137-.8612561 0-1.6429038.34934747-2.20677.9132137l-.0016313-.00171289c-.5623165.56549756-.911664 1.34551388-.911664 2.20840128 0 .8612561.3493475 1.6429038.9132953 2.20677.5638662.5638662 1.3455139.9132137 2.20677.9132137.8613377 0 1.6411909-.3477977 2.20677-.9100326l.0031811-.0032627c.562398-.5639478.9100326-1.3455138.9100326-2.2067699.0017944-.8628059-.3476346-1.64445354-.9115008-2.20831978z" fill-rule="nonzero"/><path d="m35.8769984 49.1450245c0 .4289559-.3477977.7765905-.7765906.7765905-.4290375 0-.7767536-.3477977-.7767536-.7765905l.0032626-28.0817292c0-.4290376.3478793-.7767537.7766721-.7767537.4290375 0 .7766721.3477977.7766721.7767537z"/><path d="m15.5920881 39.4453507c0 .4291191-.3477162.7767537-.7767537.7767537-.4289559 0-.7767536-.3477977-.7767536-.7767537l.0048939-18.3836868c0-.4290375.3477162-.7767536.7766721-.7767536.4290375 0 .7767537.3477161.7767537.7767536z"/></g></svg>