<svg fill="none" height="11" viewBox="0 0 13 11" width="13" xmlns="http://www.w3.org/2000/svg"><path clip-rule="evenodd" d="m6.04149 2.96852.02589.42706-.43164-.05229c-1.57117-.20046-2.94379-.88026-4.10922-2.02197l-.569762-.566499-.146758.418339c-.310781.93254-.112226 1.91738.53523 2.57975.34532.36604.26762.41834-.32804.20045-.20719-.06972-.388479-.12201-.405745-.09587-.060429.06101.146758.85411.310782 1.16786.224453.43577.681993.86282 1.182693 1.11557l.42301.20045-.5007.00872c-.48344 0-.50071.00871-.44891.19174.17266.5665.85465 1.16786 1.61434 1.42932l.53523.18302-.46617.27889c-.69063.40091-1.50211.62751-2.313595.64494-.388477.00872-.707891.04358-.707891.06972 0 .08716 1.053206.57522 1.666136.76695 1.83879.56653 4.02289.32243 5.66312-.64493 1.16543-.68852 2.33086-2.05683 2.87471-3.38157.2935-.70594.5871-1.99582.5871-2.61461 0-.4009.0259-.4532.5093-.93254.2849-.27889.5525-.58393.6043-.67109.0863-.16559.0777-.16559-.3626-.01743-.7338.26146-.8374.2266-.4748-.16559.2676-.27889.587-.784382.587-.932543 0-.026146-.1295.017431-.2762.095869-.1554.087154-.5007.217884-.7597.296323l-.4662.148161-.42298-.287607c-.23309-.156877-.56114-.331184-.73379-.383476-.44028-.122016-1.11364-.104585-1.51075.034861-1.0791.392192-1.76109 1.403172-1.68339 2.510022z" fill="#fff" fill-rule="evenodd"/></svg>