<svg height="50" viewBox="0 0 50 50" width="50" xmlns="http://www.w3.org/2000/svg"><g fill="#63902a" fill-rule="evenodd" transform="matrix(0 -1 1 0 0 50)"><path d="m49.1678 23.0024341-21.8948-22.20527386c-.5064-.51399594-1.1824-.79716024-1.9032-.79716024s-1.3968.2831643-1.9032.79716024l-1.6124 1.63488844c-1.0492 1.0653144-1.0492 2.79675457 0 3.86044625l18.3856 18.64665317-18.406 18.6673428c-.5064.5139959-.786 1.1991886-.786 1.9298174 0 .7314402.2796 1.4166329.786 1.9310345l1.6124 1.6344828c.5068.5139959 1.1824.7971602 1.9032.7971602s1.3968-.2831643 1.9032-.7971602l21.9152-22.2255579c.5076-.5156186.7864-1.2040567.7848-1.9359026.0016-.7346856-.2772-1.422718-.7848-1.937931z"/><rect height="44" rx="3" transform="matrix(0 1 -1 0 47.497293 2.401693)" width="8" x="18.5478" y="2.949493"/></g></svg>