<svg height="50" viewBox="0 0 50 50" width="50" xmlns="http://www.w3.org/2000/svg"><g fill="#ffcd00" fill-rule="evenodd"><path d="m38.375 41.8487395c-4.3333333 3.5294118-9.7916667 5.210084-15.3333333 4.6638655-4.375-.420168-8.4583334-2.1428571-11.75-4.9579832h5.375v-3.3613445h-10.83333337v10.9243698h3.33333334v-5c3.79166663 3.2352941 8.50000003 5.2521008 13.58333333 5.7142857.7916667.0840336 1.5416667.1260504 2.2916667.1260504 5.625 0 11.0416666-1.9327731 15.4166666-5.5462185 7.9583334-6.4705882 11.0833334-17.0168067 7.9583334-26.8487395l-3.1666667 1.0084034c2.6666667 8.5714285 0 17.6890756-6.875 23.2773109z"/><path d="m41.25 6.59663866c-8.8333333-7.85714286-22.2916667-8.40336135-31.70833333-.67226891-7.91666667 6.47058825-11.04166667 16.93277315-8 26.72268905l3.16666666-1.0084033c-2.625-8.4453782.08333334-17.5210084 6.91666667-23.06722693 8.2083333-6.72268907 19.9166667-6.21848739 27.5416667.67226891h-5.4166667v3.36134452h10.8333333v-10.92436973h-3.3333333z"/></g></svg>