<svg height="50" viewBox="0 0 50 50" width="50" xmlns="http://www.w3.org/2000/svg"><path d="m45.3901064 0h-40.85106385c-2.50223404 0-4.53904255 2.0356383-4.53904255 4.53904255v40.85106385c0 2.5032979 2.03680851 4.5390425 4.53904255 4.5390425h40.85106385c2.502234 0 4.5390425-2.0356383 4.5390425-4.5390425v-40.85106385c-.0001063-2.50340425-2.0368085-4.53904255-4.5390425-4.53904255zm-3.7370213 16.0238298-19.6230851 19.6231915c-.4432979.4432978-1.0239362.6648936-1.6045745.6648936s-1.1613829-.2215958-1.6045744-.6648936l-10.54531919-10.5452128c-.4430851-.4430851-.4430851-1.1615957 0-1.6047872l1.60446809-1.6044681c.4430851-.4430851 1.1615957-.4430851 1.6047872 0l8.9406383 8.9406383 18.0185107-18.018617c.4430851-.4430851 1.1615957-.4430851 1.6047872 0l1.6044681 1.6044681c.4429787.4430851.4429787 1.1615957-.0001064 1.6047872z" fill="#676767"/></svg>