<svg height="50" viewBox="0 0 61 50" width="61" xmlns="http://www.w3.org/2000/svg"><path d="m60.1665323 27.7422043c0-1.1834677-.2672043-2.3138441-.7497312-3.3479839-.0497312-.2629032-.106586-.5254032-.1776882-.7916666l-5.2263441-12.952285-.0353494-.1165322c-1.8286291-5.44475811-4.4305108-10.48400542-11.0280914-10.48400542h-25.2251345c-6.760215 0-9.14905909 5.16411291-11.01774189 10.45376342l-5.46680107 12.983871c-.79032258 1.2662634-1.23965054 2.7147849-1.23965054 4.2548387v4.0303763c0 .6231183.07365591 1.2326613.21370968 1.8197581-.13615592.3547043-.21370968.7369624-.21370968 1.1399194v11.9872311c0 1.7577957 1.425 3.1830646 3.1827957 3.1830646h6.60483871c1.75685479 0 3.18185479-1.4252689 3.18185479-3.1830646v-5.9944892h34.6048388v5.9944892c0 1.7577957 1.4252688 3.1830646 3.1831989 3.1830646h6.2266129c1.7584677 0 3.1831989-1.4252689 3.1831989-3.1830646v-11.9885752c0-.4014785-.0783602-.7854839-.2134409-1.1389785.1395162-.5880377.2134409-1.1969086.2134409-1.8198925v-4.0297043h-.0008064zm-49.5813172-15.9383065c2.0810483-5.87137092 3.7545698-7.66370963 7.1389784-7.66370963h25.223656c3.359543 0 5.2302419 1.99905914 7.1311828 7.63844083l3.813844 7.7287635c-1.2452957-.4611559-2.6157258-.7170699-4.0555107-.7170699h-39.5081989c-1.296371 0-2.53521509.2084677-3.67822584.5857527zm3.2762096 21.499328h-6.96881717c-1.2547043 0-2.27231183-1.0185484-2.27231183-2.2731183 0-1.2549731 1.01760753-2.2728494 2.27231183-2.2728494h6.96881717c1.255242 0 2.2728495 1.0178763 2.2728495 2.2728494 0 1.2545699-1.0182796 2.2731183-2.2728495 2.2731183zm24.6176076-.4552419h-16.2096775c-.794758 0-1.4387096-.6443549-1.4387096-1.4387097 0-.7958333.6439516-1.4399194 1.4387096-1.4399194h16.2096775c.7956989 0 1.4395161.6440861 1.4395161 1.4399194 0 .7943548-.6438172 1.4387097-1.4395161 1.4387097zm14.6192204.4552419h-6.9685484c-1.2557796 0-2.2728495-1.0185484-2.2728495-2.2731183 0-1.2549731 1.0178764-2.2728494 2.2728495-2.2728494h6.9685484c1.2557796 0 2.2736559 1.0178763 2.2736559 2.2728494 0 1.2545699-1.0178763 2.2731183-2.2736559 2.2731183z" fill="#fff"/></svg>