<svg height="50" viewBox="0 0 39 50" width="39" xmlns="http://www.w3.org/2000/svg"><g fill="#676767" fill-rule="evenodd"><path d="m26.2695312 14.6484375c-1.8846679 0-3.4179687-1.5333008-3.4179687-3.4179687v-11.2304688h-17.48046875c-2.96162109 0-5.37109375 2.40947266-5.37109375 5.37109375v39.25781245c0 2.9616211 2.40947266 5.3710938 5.37109375 5.3710938h27.34375005c2.961621 0 5.3710937-2.4094727 5.3710937-5.3710938v-29.9804687zm-18.2617187 20.5078125h7.1015625c.8089844 0 1.4648438.6558594 1.4648438 1.4648438 0 .8089843-.6558594 1.4648437-1.4648438 1.4648437h-7.1015625c-.80898437 0-1.46484375-.6558594-1.46484375-1.4648437 0-.8089844.65585938-1.4648438 1.46484375-1.4648438zm-1.46484375-6.3476562c0-.8089844.65585938-1.4648438 1.46484375-1.4648438h21.484375c.8089844 0 1.4648437.6558594 1.4648437 1.4648438 0 .8089843-.6558593 1.4648437-1.4648437 1.4648437h-21.484375c-.80898437 0-1.46484375-.6558594-1.46484375-1.4648437zm22.94921875-9.2773438c.8089844 0 1.4648437.6558594 1.4648437 1.4648438 0 .8089843-.6558593 1.4648437-1.4648437 1.4648437h-21.484375c-.80898437 0-1.46484375-.6558594-1.46484375-1.4648437 0-.8089844.65585938-1.4648438 1.46484375-1.4648438z" fill-rule="nonzero"/><path d="m25.78125 11.2304688c0 .2692382.219043.4882812.4882812.4882812h11.1634766c-.2679687-.4947266-.6126953-.9491211-1.0268555-1.3410156l-9.4163086-8.90839846c-.3654296-.34570313-.7724609-.63408203-1.2085937-.86181641l.0000977 10.62294927z"/></g></svg>