<svg height="32" viewBox="0 0 160 32" width="160" xmlns="http://www.w3.org/2000/svg"><g fill="#c4c4c4" fill-rule="evenodd"><path d="m14.2097694 1.854104c.5635012-1.8426208 3.01696-1.8426251 3.5804612-.000004l2.22464 7.27458c.252047.82404.9746823 1.38196 1.7901176 1.38196h7.1990589c1.8234353 0 2.581647 2.47924 1.106447 3.61804l-5.8241882 4.49594c-.6597647.50928-.9357177 1.41198-.6836706 2.23598l2.2245647 7.2746c.5633882 1.8426-1.4213647 3.375-2.8967529 2.2362l-5.8240189-4.496c-.6597458-.5092-1.5531106-.5092-2.2128376 0l-5.82413178 4.496c-1.47521882 1.1388-3.46012235-.3936-2.89664-2.2362l2.22462118-7.2746c.25199059-.824-.02407529-1.7267-.68380235-2.23598l-5.82411294-4.49594c-1.47523389-1.1388-.71706918-3.61804 1.10640941-3.61804h7.19900238c.8154917 0 1.5382211-.55792 1.7902306-1.38196z"/><path d="m14.2097694 1.854104c.5635012-1.8426208 3.01696-1.8426251 3.5804612-.000004l2.22464 7.27458c.252047.82404.9746823 1.38196 1.7901176 1.38196h7.1990589c1.8234353 0 2.581647 2.47924 1.106447 3.61804l-5.8241882 4.49594c-.6597647.50928-.9357177 1.41198-.6836706 2.23598l2.2245647 7.2746c.5633882 1.8426-1.4213647 3.375-2.8967529 2.2362l-5.8240189-4.496c-.6597458-.5092-1.5531106-.5092-2.2128376 0l-5.82413178 4.496c-1.47521882 1.1388-3.46012235-.3936-2.89664-2.2362l2.22462118-7.2746c.25199059-.824-.02407529-1.7267-.68380235-2.23598l-5.82411294-4.49594c-1.47523389-1.1388-.71706918-3.61804 1.10640941-3.61804h7.19900238c.8154917 0 1.5382211-.55792 1.7902306-1.38196z" transform="translate(32)"/><path d="m14.2097694 1.854104c.5635012-1.8426208 3.01696-1.8426251 3.5804612-.000004l2.22464 7.27458c.252047.82404.9746823 1.38196 1.7901176 1.38196h7.1990589c1.8234353 0 2.581647 2.47924 1.106447 3.61804l-5.8241882 4.49594c-.6597647.50928-.9357177 1.41198-.6836706 2.23598l2.2245647 7.2746c.5633882 1.8426-1.4213647 3.375-2.8967529 2.2362l-5.8240189-4.496c-.6597458-.5092-1.5531106-.5092-2.2128376 0l-5.82413178 4.496c-1.47521882 1.1388-3.46012235-.3936-2.89664-2.2362l2.22462118-7.2746c.25199059-.824-.02407529-1.7267-.68380235-2.23598l-5.82411294-4.49594c-1.47523389-1.1388-.71706918-3.61804 1.10640941-3.61804h7.19900238c.8154917 0 1.5382211-.55792 1.7902306-1.38196z" transform="translate(64)"/><path d="m14.2097694 1.854104c.5635012-1.8426208 3.01696-1.8426251 3.5804612-.000004l2.22464 7.27458c.252047.82404.9746823 1.38196 1.7901176 1.38196h7.1990589c1.8234353 0 2.581647 2.47924 1.106447 3.61804l-5.8241882 4.49594c-.6597647.50928-.9357177 1.41198-.6836706 2.23598l2.2245647 7.2746c.5633882 1.8426-1.4213647 3.375-2.8967529 2.2362l-5.8240189-4.496c-.6597458-.5092-1.5531106-.5092-2.2128376 0l-5.82413178 4.496c-1.47521882 1.1388-3.46012235-.3936-2.89664-2.2362l2.22462118-7.2746c.25199059-.824-.02407529-1.7267-.68380235-2.23598l-5.82411294-4.49594c-1.47523389-1.1388-.71706918-3.61804 1.10640941-3.61804h7.19900238c.8154917 0 1.5382211-.55792 1.7902306-1.38196z" transform="translate(96)"/><path d="m14.2097694 1.854104c.5635012-1.8426208 3.01696-1.8426251 3.5804612-.000004l2.22464 7.27458c.252047.82404.9746823 1.38196 1.7901176 1.38196h7.1990589c1.8234353 0 2.581647 2.47924 1.106447 3.61804l-5.8241882 4.49594c-.6597647.50928-.9357177 1.41198-.6836706 2.23598l2.2245647 7.2746c.5633882 1.8426-1.4213647 3.375-2.8967529 2.2362l-5.8240189-4.496c-.6597458-.5092-1.5531106-.5092-2.2128376 0l-5.82413178 4.496c-1.47521882 1.1388-3.46012235-.3936-2.89664-2.2362l2.22462118-7.2746c.25199059-.824-.02407529-1.7267-.68380235-2.23598l-5.82411294-4.49594c-1.47523389-1.1388-.71706918-3.61804 1.10640941-3.61804h7.19900238c.8154917 0 1.5382211-.55792 1.7902306-1.38196z" transform="translate(128)"/></g></svg>