<svg height="50" viewBox="0 0 50 50" width="50" xmlns="http://www.w3.org/2000/svg"><g fill="#fff" fill-rule="evenodd"><path d="m49.9875 50v-.0020833h.0125v-18.3375c0-8.9708334-1.93125-15.88125-12.41875-15.88125-5.0416667 0-8.425 2.7666666-9.80625 5.3895833h-.1458333v-4.5520833h-9.94375v33.38125h10.3541666v-16.5291667c0-4.3520833.825-8.5604167 6.2145834-8.5604167 5.3104166 0 5.3895833 4.9666667 5.3895833 8.8395834v16.2520833z"/><path d="m.825 16.61875h10.3666667v33.38125h-10.3666667z"/><path d="m6.00416667 0c-3.31458334 0-6.00416667 2.68958333-6.00416667 6.00416667 0 3.31458333 2.68958333 6.06041663 6.00416667 6.06041663 3.31458333 0 6.00416663-2.7458333 6.00416663-6.06041663-.0020833-3.31458334-2.69166663-6.00416667-6.00416663-6.00416667z"/></g></svg>