<svg height="50" viewBox="0 0 41 50" width="41" xmlns="http://www.w3.org/2000/svg"><g fill="#fb0" transform="translate(-.74359)"><path d="m21.6666667 50c-1.4076528-.0122799-2.744916-.6173764-3.6833334-1.6666667-6.0833333-6.6666666-16.31666663-19.35-16.31666663-27.7333333-.15766781-11.20819574 8.79203983-20.42639457 20.00000003-20.6 11.2079602.17360543 20.1576678 9.39180426 20 20.6 0 8.3333333-10.2333334 20.9833333-16.3166667 27.75-.9413955 1.0431139-2.2782541 1.6419781-3.6833333 1.65zm0-46.66666667c-9.3631304.18244536-16.81534456 7.90293927-16.6666667 17.26666667 0 5.2333333 5.7833333 14.7666667 15.4666667 25.5166667.3141387.3259198.7473336.5100432 1.2.5100432.4526663 0 .8858612-.1841234 1.2-.5100432 9.6833333-10.75 15.4666666-20.2833334 15.4666666-25.5166667.1486779-9.3637274-7.3035363-17.08422131-16.6666666-17.26666667z"/><path d="m21.6666667 30c-5.5228475 0-10-4.4771525-10-10s4.4771525-10 10-10 10 4.4771525 10 10-4.4771525 10-10 10zm0-16.6666667c-3.6818984 0-6.6666667 2.9847684-6.6666667 6.6666667s2.9847683 6.6666667 6.6666667 6.6666667c3.6818983 0 6.6666666-2.9847684 6.6666666-6.6666667 0-1.7681099-.7023789-3.4638027-1.9526214-4.7140452s-2.9459353-1.9526215-4.7140452-1.9526215z"/></g></svg>