<svg height="50" viewBox="0 0 50 50" width="50" xmlns="http://www.w3.org/2000/svg"><path d="m13.0859375 25.9563446c0-1.0787964.8743286-1.953125 1.953125-1.953125h8.984375v-13.671875c0-1.07879636.8743286-1.95312497 1.953125-1.95312497 1.0784149 0 1.953125.87432861 1.953125 1.95312497v15.625c0 1.0787964-.8747101 1.953125-1.953125 1.953125h-10.9375c-1.0787964 0-1.953125-.8743286-1.953125-1.953125zm36.0977173 5.8284759c-.8773804-.6282806-2.0973206-.4261017-2.7248383.4508973l-9.6271515 13.4471893c-.2628326.3051758-.5924224.3707886-.7690429.3826142-.1808166.012207-.52948-.0110627-.8365631-.2990723l-6.2213899-6.0714722c-.7720947-.7534027-2.008438-.7381439-2.7618408.0339508-.7534026.7717132-.7385254 2.0084381.0335694 2.7618409l6.2324524 6.0821533c.0057221.005722.011444.011444.0175476.0167846.9342194.8895874 2.1816253 1.3843537 3.4648895 1.3843537.1102448 0 .220871-.0038148.3311157-.0110626 1.3980866-.0930787 2.7030946-.7728578 3.5808564-1.8650055.0225067-.0282288.0442505-.0572205.0656128-.0865937l9.6660614-13.5017395c.6278991-.8769988.4257202-2.0973205-.4512787-2.7248383zm-24.6303559 14.284134c-11.3849639-.2361298-20.6470489-9.696579-20.6470489-21.0891724 0-5.260849 1.96990967-10.3069305 5.46875-14.1681671v4.0119171c0 1.0787964.8743286 1.953125 1.953125 1.953125s1.953125-.8743286 1.953125-1.953125v-4.4921875c0-3.23066706-2.6287079-5.85937497-5.859375-5.85937497h-4.4921875c-1.07879639 0-1.953125.87432861-1.953125 1.953125s.87432861 1.953125 1.953125 1.953125h3.38211055c-4.0401458 4.55055237-6.31179805 10.45188897-6.31179805 16.60156247 0 6.5856934 2.5390625 12.8017425 7.14950566 17.503357 4.60395814 4.6943664 10.75592034 7.3547363 17.32292164 7.490921.013733.0003814.0274659.0003814.0411988.0003814 1.0597229 0 1.9298553-.8480071 1.9519805-1.9126892.0221253-1.0784149-.8338927-1.9706726-1.9123077-1.9927978zm1.341629-42.16423038c11.3265992.47225947 20.1988221 9.72938538 20.1988221 21.07505798 0 .2975464-.006485.5989075-.018692.8964538-.0450135 1.077652.7919312 1.9878388 1.8695831 2.0328522.0278473.0011444.0553131.001526.0831605.001526 1.0410308 0 1.9062042-.8216859 1.9500732-1.8714906.0144958-.3513336.0221252-.7076263.0221252-1.0593414 0-6.4933777-2.4780273-12.6464843-6.9770813-17.32559206-4.4864655-4.66575625-10.5113983-7.38334648-16.9651032-7.6522827-1.0772705-.04653927-1.9878387.79231258-2.0328521 1.86996463-.044632 1.07765196.7923126 1.98783877 1.8699645 2.03285215z" fill="#63902a"/></svg>