<svg height="50" viewBox="0 0 50 50" width="50" xmlns="http://www.w3.org/2000/svg"><g fill="#fff" fill-rule="evenodd"><path d="m49.8001188 14.6972656c-.1168829-2.6561737-.5455806-4.4822693-1.1596918-6.06460564-.6335283-1.67961123-1.6081871-3.18336494-2.8851425-4.43344121-1.2476395-1.26953125-2.7583607-2.25601191-4.4152808-2.88085938-1.5883895-.61531064-3.4014072-1.0448456-6.0524032-1.16195683-2.6707937-.1270294-3.5186708-.15640254-10.2925499-.15640254-6.7738792 0-7.6217563.02937314-10.2826511.14648438-2.650996.11711123-4.473532.54702753-6.0524032 1.16195683-1.67671774.63476563-3.17754016 1.61132813-4.42517963 2.89077754-1.26705653 1.25007627-2.25123363 2.76374814-2.87524367 4.42390439-.61411121 1.59187316-1.04280887 3.40805056-1.15969181 6.06422436-.12678177 2.67601-.15609766 3.5255431-.15609766 10.3126525s.02931589 7.6366425.14619883 10.3027344c.11688294 2.6561737.54596121 4.4822693 1.16007242 6.0646056.63352826 1.6796113 1.61770536 3.183365 2.88476189 4.4334412 1.24763947 1.2695313 2.75836072 2.256012 4.4152808 2.8808594 1.58877003.6153107 3.40140723 1.0448456 6.05278383 1.1619569 2.6605142.1174925 3.5087719.1464843 10.2826511.1464843 6.7738791 0 7.6217562-.0289918 10.282651-.1464843 2.650996-.1171113 4.473532-.5466462 6.0524032-1.1619569 3.3530549-1.2989044 6.0040509-3.9550781 7.3004233-7.3143006.6137306-1.5918731 1.0428089-3.4084319 1.1596919-6.0646056.1168829-2.6660919.1461988-3.515625.1461988-10.3027344s-.0098988-7.6366425-.1267818-10.3027344zm-4.492949 20.4101563c-.1073647 2.4414062-.5166453 3.7597656-.8577759 4.6386719-.8383589 2.1778106-2.563429 3.9062499-4.7369944 4.7462462-.877193.3417969-2.2025007.7518769-4.6296296.85907-2.631579.1174925-3.4208243.1464843-10.0778205.1464843s-7.4561403-.0289918-10.0782011-.1464843c-2.4366471-.1071931-3.7524366-.5172731-4.6296296-.85907-1.08164297-.4005431-2.06620067-1.0353088-2.86534482-1.8653869-.82846004-.8106231-1.4619883-1.7871856-1.86175068-2.8709412-.34113061-.8789062-.75041121-2.2071838-.85739532-4.6386719-.11726355-2.6367187-.14619884-3.4278869-.14619884-10.097885 0-6.6699982.02893529-7.4707031.14619884-10.0975037.10698411-2.4414063.51626471-3.7597657.85739532-4.6386719.39976238-1.08413692 1.03329064-2.07023624 1.87164951-2.87132256.80866238-.83007813 1.78332125-1.46484375 2.86534479-1.86500557.877193-.34179688 2.2028813-.75187686 4.6296297-.85945127 2.6315789-.11711123 3.4212048-.14648438 10.0778204-.14648438 6.6668951 0 7.4561404.02937315 10.0782011.14648438 2.4366472.10757441 3.7524367.51765439 4.6296296.85945127 1.081643.40016182 2.0662007 1.03492744 2.8653449 1.86500557.82846.81062314 1.4619883 1.78718564 1.8617507 2.87132256.3411306.8789062.7504112 2.2068024.8577759 4.6386719.1168829 2.6367187.1461988 3.4275055.1461988 10.0975037 0 6.6699981-.0293159 7.4512481-.1461988 10.0879669z" fill-rule="nonzero"/><path d="m24.9950506 12.1582031c-7.075795 0-12.8167641 5.7518006-12.8167641 12.8417969s5.7409691 12.8417969 12.8167641 12.8417969c7.0761756 0 12.8167641-5.7518006 12.8167641-12.8417969s-5.7405885-12.8417969-12.8167641-12.8417969zm0 21.1719513c-4.5904149 0-8.3139163-3.7303925-8.3139163-8.3301544s3.7235014-8.3301544 8.3139163-8.3301544c4.5907955 0 8.3139163 3.7303925 8.3139163 8.3301544s-3.7231208 8.3301544-8.3139163 8.3301544z" fill-rule="nonzero"/><path d="m41.3110684 11.6504669c0 1.6555786-1.3397751 2.9979706-2.9925072 2.9979706-1.6523515 0-2.9921266-1.342392-2.9921266-2.9979706 0-1.65596006 1.3397751-2.99797061 2.9921266-2.99797061 1.6527321 0 2.9925072 1.34201055 2.9925072 2.99797061z"/></g></svg>