<svg fill="none" height="40" viewBox="0 0 40 40" width="40" xmlns="http://www.w3.org/2000/svg"><path clip-rule="evenodd" d="m21.2257 3.64506c-.6807-.66835-1.7713-.66835-2.452 0l-18.247194 17.91534c-1.118038 1.0977-.340806 2.9988 1.226034 2.9988h3.67169v9.4401c0 1.5188 1.23121 2.75 2.75 2.75h23.68747c1.5187 0 2.75-1.2312 2.75-2.75v-9.4401h3.6352c1.5668 0 2.3441-1.9011 1.226-2.9988zm11.9132 20.19624v-.7821h5.108c.2238 0 .3349-.2716.1751-.4284l-18.2471-17.91539c-.0973-.09548-.2531-.09548-.3503 0l-18.24721 17.91539c-.15972.1568-.04868.4284.17515.4284h5.15181v.7821h.01988v10.158c0 .6904.55964 1.25 1.25 1.25h23.68747c.6903 0 1.25-.5596 1.25-1.25v-10.158z" fill="#298390" fill-rule="evenodd"/></svg>