<svg fill="none" height="40" viewBox="0 0 40 40" width="40" xmlns="http://www.w3.org/2000/svg" xmlns:xlink="http://www.w3.org/1999/xlink"><clipPath id="a"><path d="m0 0h40v40h-40z"/></clipPath><g clip-path="url(#a)" fill="#298390"><path d="m4.66659 10.6319c0-.5219 0-1.03388 0-1.5447 0-1.5125.51532-2.15547 1.98558-2.45753.00446-.07662.01336-.1588.01336-.23986 0-.77624 0-1.55247 0-2.38645-.41737 0-.81471.00222-1.21094 0-1.21651-.00667-2.11358-.84842-2.12137-1.98557-.00557-1.157133.89596-2.01221358 2.13473-2.01443457 2.62444-.00222099 5.25005.00555247 7.87445-.00333148 1.0128-.00333149 1.8687.34092205 2.5799 1.05941605.4686.47418.9472.93836 1.4124 1.41588.8626.88506.886 2.1488.0612 2.98722-.8214.8351-2.0991.82288-2.9872-.02887-.2104-.20211-.4564-.38423-.6122-.62299-.6044-.92504-1.4903-.8995-2.4408-.76624v2.59079c.1347.02887.2782.05552.4207.08995.9171.2221 1.5337.97501 1.5549 1.91782.0144.65186.0122 1.30372.0178 1.9556 0 .0111.0156.0222-.0223-.0289.6444.1655 1.2644.2377 1.8086.4797 1.8688.8307 2.8415 2.3121 2.8571 4.3532.0278 3.568.0078 7.1371.0078 10.7051v.5275h2.0323c-.1302-.875-.2571-1.7368-.3884-2.5963-.0924-.603-.1937-1.2049-.2872-1.8079-.0868-.5619.1815-.8817.7457-.8962.1915-.0044.384 0 .6066 0 .0668-.8184.1347-1.6024.1948-2.3875.1436-1.8546.2783-3.7091.433-5.5625.0167-.1932.1101-.402.2248-.563.4263-.5997.8325-1.2227 1.3289-1.7601.6467-.7008.5966-1.5825.7657-2.40871.1358-.66518.2238-1.34036.3417-2.00999.0768-.43754.2972-.63298.7346-.63742.847-.00778 1.694-.00889 2.541 0 .4318.00444.6522.20544.7279.64519.197 1.14825.3806 2.29873.5854 3.44583.0323.1822.1113.3721.2204.522.5287.7307 1.0863 1.4414 1.6072 2.1776.1357.1922.2315.4465.2504.6797.2092 2.5452.4007 5.0916.5966 7.6379.0044.0534.0189.1067.0333.1888h3.3702c0-.3331.03-.6774-.0067-1.015-.0679-.6318.108-1.1682.5075-1.6557.2015-.2454.3395-.543.541-.7885.276-.3387.3517-.7073.2582-1.176-.1213 0-.256 0-.3896 0-.9438 0-1.8887.0056-2.8326-.0022-.473-.0044-.739-.2521-.7401-.7118-.0067-2.6386-.0067-5.276 0-7.91451.0011-.4553.2716-.69739.7502-.70072 1.0139-.00666 2.0278-.00778 3.0407.00111.2148.00222.3383-.04664.4485-.25763.4497-.85509 1.3412-1.24487 2.2416-1.01389.9071.2321 1.5081.99056 1.5103 1.95003.0067 3.41591.0056 6.83181-.0055 10.24761 0 .2077-.0791.4376-.187.6186-.2627.4408-.5432.8739-.8537 1.2804-.2649.3464-.3461.7074-.246 1.1693.1815 0 .3718-.0055.561.0011.5153.0189.7936.3376.7156.8485-.2259 1.4947-.463 2.9872-.6934 4.4819-.5698 3.7013-1.1363 7.4037-1.7095 11.1038-.0523.341-.0991.6941-.2282 1.0095-.3116.7651-.9193 1.1538-1.7385 1.216-.1246.0088-.2493.0033-.3751.0033-10.9697 0-21.9405 0-32.91017 0-1.563762 0-2.32616502-.7629-2.32616502-2.3243 0-7.387-.001113-14.774 0-22.161 0-2.3465 1.42241502-4.1999 3.62280502-4.7196.32277-.0766.65667-.1033 1.04288-.1621zm23.31841 28.0333h.5342 6.6246c.8626 0 .9739-.1144 1.1063-.9828.5387-3.538 1.0863-7.0749 1.6305-10.6119.2226-1.4514.4441-2.9039.6678-4.3709h-17.7623c.1035.693.2004 1.3515.3028 2.0089.1012.6508.207 1.3004.3127 1.9578 1.2933 0 2.5287-.0022 3.7642 0 2.0813.0045 3.497 1.4237 3.5003 3.5114.0034 2.0133-.0122 4.0266.0067 6.0411.0078.8551-.1224 1.6568-.6867 2.4464zm-11.3192-12.0178v-.3587c0-3.6091.0045-7.2193-.0011-10.8284-.0033-2.0266-1.438-3.4536-3.4681-3.4569-2.7903-.0045-5.58168-.0034-8.37197 0-2.05682.0022-3.48813 1.4269-3.48924 3.478-.00223 7.427-.00112 14.8551 0 22.2821 0 .6852.21369.9017.88928.9017 2.6801.0011 5.35908 0 8.03913 0 .1147 0 .2304-.0155.4174-.0289-.97385-1.2193-.5843-2.6196-.70228-3.9689-.15582 0-.2916 0-.42739 0-1.34673 0-2.69345.0022-4.04018 0-1.35451-.0022-2.17479-.824-2.17479-2.1821-.00112-4.7618-.00112-9.5236 0-14.2854 0-1.3837.81471-2.1954 2.20262-2.1965 2.30501-.0012 4.61002-.0012 6.91392 0 1.4113 0 2.2149.8073 2.216 2.2254.0011 2.6518 0 5.3037 0 7.9545v.4653h2zm-3.3356-.0055c0-2.904.0044-5.7746-.0056-8.6452-.0011-.4353-.2938-.6596-.7891-.6596-2.3596-.0034-4.71802-.0034-7.07757 0-.54537 0-.79023.2443-.79134.7873-.00223 4.8007-.00223 9.6013 0 14.4031 0 .5675.24263.8029.81694.8051.94382.0045 1.88764.0011 2.83035.0011h1.68396c0-1.0849-.01224-2.1221.00666-3.1604.0067-.3709.0323-.7563.1425-1.1061.4808-1.5247 1.5849-2.2732 3.182-2.4253zm6.0458 1.3592c-1.9712 0-3.9423-.0022-5.9134 0-1.2944.0023-2.1269.8418-2.1292 2.1433-.0033 2.1233-.0022 4.2476 0 6.3709.0012 1.3048.8314 2.1477 2.1236 2.1488 3.9144.0033 7.83.0033 11.7444 0 1.2944 0 2.1269-.8418 2.1291-2.1444.0034-2.1232.0034-4.2476 0-6.3709-.0022-1.3237-.8325-2.1466-2.1658-2.1477-1.93-.0022-3.8588 0-5.7887 0zm2.6789-6.6974h7.8878c-.1892-2.4497-.375-4.865-.5609-7.2748h-6.767c-.187 2.4275-.3718 4.8329-.5599 7.2748zm15.3383.0123c-.3306-.9906.2882-1.6336.7523-2.3321.108-.1621.2404-.312.3172-.4875.0913-.2065.1915-.4331.1926-.6518.0122-3.1938.0089-6.3865.0078-9.58028 0-.12437.0122-.2543-.0156-.37313-.0757-.33648-.2916-.54303-.64-.54525-.3684-.00333-.5943.20655-.6644.56524-.0256.13437-.0123.27652-.0123.41533 0 2.69409-.0367 5.38809.0189 8.07999.0201.9794-.1257 1.85-.8047 2.5619-.6544.6863-.5754 1.5014-.5275 2.3476zm-27.93627-19.97894c-1.35897 0-2.71906-.00555-4.07802.00333-.42628.00222-.70564.27984-.70898.65741s.27491.64631.69896.67074c.11019.00666.22148.00222.33278.00222 2.3718 0 4.74363.01444 7.11543-.0111.5175-.00556.8982.13992 1.2376.52415.3851.43531.8158.83176 1.231 1.23931.4062.39978.8403.43198 1.1653.0955.3139-.32426.2805-.74847-.1013-1.13603-.4674-.47418-.9427-.94059-1.4102-1.41366-.434-.43753-.9549-.63853-1.5715-.63409-1.3033.00888-2.6078.00222-3.91107.00333zm2.53877 9.31484c0-.69519.0189-1.35815-.0067-2.02001-.0156-.38312-.2649-.61965-.65-.62187-1.55263-.01222-3.10526-.01-4.65789-.00222-.3851.00222-.64888.22209-.66668.60522-.03005.67295-.00891 1.34813-.00891 2.03888zm11.3648 1.98h5.2756c-.2983-.4009-.5521-.7651-.8336-1.1049-.0824-.0989-.2471-.1811-.3751-.1833-.9561-.0155-1.9133-.0122-2.8693-.0022-.108.0011-.2516.0544-.3161.1344-.295.362-.5688.7418-.8804 1.156zm-13.39048-5.98113v-2.6141h-1.94775v2.6141zm14.82398 3.3226h2.4119c-.1492-.89284-.2927-1.75125-.4363-2.61521h-1.5415c-.1447.87507-.2872 1.73459-.433 2.61521zm11.1856-1.27485h-2.6144v1.28262h2.6144zm0 2.66628h-2.6144v1.2826h2.6144zm-2.6133 2.6452v1.2971h2.6v-1.2971z"/><path d="m19.3316 30.0011h5.1243c.6544 0 .8759.221.8759.8729.0022 1.639.0022 3.277 0 4.9161 0 .6541-.2215.8762-.8737.8762-3.4158.0011-6.8327.0011-10.2485 0-.6533 0-.8748-.221-.8759-.8729-.0022-1.639-.0022-3.277 0-4.9161 0-.6541.2215-.8751.8737-.8762 1.7085-.0022 3.4158 0 5.1242 0zm-4.6356 1.3515v3.9489h9.2802v-3.9489z"/></g></svg>