<svg fill="none" height="40" viewBox="0 0 40 40" width="40" xmlns="http://www.w3.org/2000/svg" xmlns:xlink="http://www.w3.org/1999/xlink"><mask id="a" height="40" maskUnits="userSpaceOnUse" width="41" x="0" y="0"><path d="m.000488 0h40v40h-40z" fill="#c4c4c4"/></mask><mask id="b" height="44" maskUnits="userSpaceOnUse" width="44" x="6" y="5"><path d="m6.06787 34.3307h40.9982v20.3808h-40.9982z" fill="#c4c4c4" transform="matrix(.70710678 -.70710678 .70710678 .70710678 -22.498233 14.345861)"/></mask><g mask="url(#a)"><g mask="url(#b)"><path d="m38.7239 20.2626h-5.0449l3.1993-3.1993c.1634-.1635.1634-.4277 0-.5911-.1635-.1635-.4277-.1635-.5911 0l-3.7904 3.7904h-11.5752l8.1849-8.1849h5.3605c.2308 0 .418-.1873.418-.418 0-.2308-.1872-.4181-.418-.4181h-4.5245l3.5592-3.55917c.1635-.16345.1635-.42766 0-.59111-.1634-.16345-.4276-.16345-.5911 0l-3.5592 3.55918v-4.52444c0-.23076-.1873-.41804-.418-.41804-.2308 0-.4181.18728-.4181.41804v5.36054l-8.1852 8.1848v-11.57553l3.7904-3.79038c.1634-.16345.1634-.42766 0-.59111-.1635-.16345-.4277-.16345-.5911 0l-3.1993 3.19927v-5.04492c0-.23076-.1873-.41805-.4181-.41805-.2307 0-.418.18729-.418.41805v5.04492l-3.1993-3.19927c-.1634-.16345-.4276-.16345-.5911 0-.1634.16345-.1634.42766 0 .59111l3.7904 3.79038v11.57513l-8.1848-8.1844v-5.36054c0-.23076-.1873-.41804-.4181-.41804-.2307 0-.418.18728-.418.41804v4.52444l-3.55922-3.55918c-.16346-.16345-.42766-.16345-.59111 0-.16346.16345-.16346.42766 0 .59111l3.5592 3.55917h-4.52446c-.23076 0-.41804.1873-.41804.4181 0 .2307.18728.418.41804.418h5.36059l8.1848 8.1849h-11.57558l-3.79038-3.7904c-.16346-.1635-.42766-.1635-.59112 0-.16345.1634-.16345.4276 0 .5911l3.19928 3.1993h-5.04493c-.230758 0-.418041.1872-.418041.418s.187283.418.418041.418h5.04493l-3.19928 3.1993c-.16345.1635-.16345.4277 0 .5911.08152.0815.18854.1225.29556.1225s.21404-.041.29556-.1225l3.79038-3.7904h11.57558l-8.1848 8.1849h-5.36059c-.23076 0-.41804.1873-.41804.418 0 .2308.18728.4181.41804.4181h4.52446l-3.5592 3.5592c-.16346.1634-.16346.4276 0 .5911.08151.0815.18853.1225.29555.1225s.21404-.041.29556-.1225l3.55922-3.5592v4.5244c0 .2308.1873.4181.418.4181.2308 0 .4181-.1873.4181-.4181v-5.3601l8.1848-8.1848v11.5751l-3.7904 3.7904c-.1634.1635-.1634.4277 0 .5911.1635.1635.4277.1635.5911 0l3.1993-3.1993v5.045c0 .2307.1873.418.418.418.2308 0 .4181-.1873.4181-.418v-5.045l3.1993 3.1993c.0815.0815.1885.1225.2955.1225s.2141-.041.2956-.1225c.1634-.1634.1634-.4276 0-.5911l-3.7904-3.7904v-11.5755l8.1848 8.1848v5.3605c0 .2308.1873.4181.4181.4181.2307 0 .418-.1873.418-.4181v-4.5244l3.5592 3.5592c.0815.0815.1886.1225.2956.1225s.214-.041.2955-.1225c.1635-.1635.1635-.4277 0-.5911l-3.5592-3.5592h4.5245c.2307 0 .418-.1873.418-.4181 0-.2307-.1873-.418-.418-.418h-5.3606l-8.1848-8.1849h11.5752l3.7903 3.7904c.0816.0815.1886.1225.2956.1225s.214-.041.2955-.1225c.1635-.1634.1635-.4276 0-.5911l-3.1988-3.1993h5.0449c.2308 0 .4181-.1872.4181-.418s-.1873-.418-.4181-.418z" fill="#298390"/></g><path d="m5.24951 35.3384 30.71909-30.71914" stroke="#298390" stroke-linecap="round" stroke-width="1.5"/><g fill="#298390"><path d="m11.5285 28.2591 1.3985-1.3985c-.2783-.2782-.4174-.4173-.703-.7029-3.49992-3.5-3.50724-9.1012 0-12.6085 3.5072-3.5072 9.1011-3.5072 12.6084.0001.2783.2782.4173.4173.7029.7029l1.3985-1.3985c-.2782-.2782-.4173-.4173-.7029-.7029-4.2028-4.20277-11.2026-4.20277-15.4053 0-4.20284 4.2028-4.20284 11.2026 0 15.4054 0 0 .2839.3228.7029.7029z"/><path d="m27.3936 10.5162c.2771.2771.745.1886 1.1698-.2362l2.7969-2.79689c.4173-.41735.5182-.88775.2362-1.16977-.2821-.28206-.7451-.1886-1.1699.23615l-2.7969 2.79691c-.4198.42965-.4209.985-.2361 1.1698z"/><path d="m19.8054 7.41662c.3915.01876.6783-.36143.707-.96143l.1894-3.95089c.0282-.58954-.2134-1.00553-.6118-1.02462-.3985-.0191-.6783.36142-.7071.96142l-.1893 3.95088c-.0218.60033.3508 1.01213.6118 1.02464z"/><path d="m9.0519 11.1276c.27716-.2771.1886-.7451-.23607-1.16973l-2.79698-2.79698c-.41735-.41735-.88768-.51814-1.16974-.23607-.28202.28201-.18855.74502.23612 1.16969l2.79698 2.79699c.42468.4247.98006.4257 1.16969.2361z"/><path d="m6.01153 32.8317 2.79698-2.797c.41735-.4173.51813-.8876.23612-1.1696-.28207-.2821-.74507-.1886-1.16974.236l-2.79698 2.797c-.41731.4174-.42571.9801-.23608 1.1697.28934.2747.75234.1813 1.1697-.2361z"/><path d="m.844307 21.8615 3.905673-.626c.58279-.0934.94018-.4154.87705-.8092s-.49301-.5896-1.08602-.4945l-3.905671.626c-.5827726.0935-.919485.5444-.877041.8092.073347.3922.503225.5879 1.086009.4945z"/></g></g></svg>