<svg fill="none" height="40" viewBox="0 0 40 40" width="40" xmlns="http://www.w3.org/2000/svg"><g fill="#298390"><path d="m34.1739 27.0084h-28.34909c-.33454 0-.60606-.2715-.60606-.606v-8.1843c0-1.3806 1.12242-2.5018 2.50061-2.5018h24.55754c1.3806 0 2.5019 1.1224 2.5019 2.5018v8.1843c.0012.3357-.2704.606-.6049.606zm-27.74303-1.2121h27.13693v-7.5782c0-.7115-.5794-1.2897-1.2897-1.2897h-24.55753c-.71031 0-1.28849.5794-1.28849 1.2897v7.5782z"/><path d="m32.2767 36.9552h-24.55637c-1.37939 0-2.5006-1.1224-2.5006-2.5018v-8.1843c0-.3345.27151-.606.60606-.606h28.34911c.3345 0 .606.2715.606.606v8.1843c-.0012 1.3806-1.1236 2.5018-2.5042 2.5018zm-25.84606-10.08v7.5782c0 .7115.57939 1.2897 1.28848 1.2897h24.55758c.7115 0 1.2897-.5794 1.2897-1.2897v-7.5782z"/><path d="m9.73281 40c-.07636 0-.15636-.0146-.23152-.0461-.30909-.1272-.45575-.4824-.32848-.7915l1.26059-3.0448c.1285-.3091.4824-.4594.7915-.3285.3091.1273.4558.4824.3285.7915l-1.2606 3.0448c-.097.234-.32242.3746-.55999.3746z"/><path d="m30.2647 40c-.2376 0-.4631-.1406-.56-.3745l-1.2594-3.0448c-.1273-.3103.0194-.6643.3285-.7916.3103-.1297.6642.0206.7915.3285l1.2594 3.0449c.1272.3103-.0194.6642-.3285.7915-.0752.0315-.154.046-.2315.046z"/><path d="m21.4163 20.7091h-2.8351c-.3346 0-.6061-.2715-.6061-.6061 0-.3345.2715-.6061.6061-.6061h2.8351c.3346 0 .6061.2716.6061.6061 0 .3346-.2703.6061-.6061.6061z"/><path d="m21.4163 30.6557h-2.8351c-.3346 0-.6061-.2715-.6061-.606 0-.3346.2715-.6061.6061-.6061h2.8351c.3346 0 .6061.2715.6061.6061 0 .3345-.2703.606-.6061.606z"/><path d="m20.9084 16.9285h-8.0606c-.3346 0-.6061-.2715-.6061-.6061v-2.4557c0-.3346.2715-.6061.6061-.6061h8.0606c.3345 0 .606.2715.606.6061v2.4545c0 .3358-.2715.6073-.606.6073zm-7.4558-1.2121h6.8485v-1.2437h-6.8485z"/><path d="m22.2015 7.71273h-10.6497c-.1927 0-.3757-.09212-.4897-.24849-.1139-.15636-.1454-.35757-.0873-.54182l2.08-6.500602c.0788-.250909.3128-.421818.577-.421818h6.4897c.2643 0 .497.170909.5782.421818l2.08 6.500602c.0582.18425.0255.38546-.0873.54182-.1163.15637-.2982.24849-.4909.24849zm-9.8206-1.21212h8.9903l-1.6921-5.28849h-5.6049z"/><path d="m16.8771 14.4727c-.3346 0-.6061-.2715-.6061-.606v-6.76003c0-.33454.2715-.60606.6061-.60606.3345 0 .606.27152.606.60606v6.76003c0 .3357-.2703.606-.606.606z"/><path d="m19.9996 9.79273c-.3345 0-.606-.27151-.606-.60606v-2.08c0-.33454.2715-.60606.606-.60606.3346 0 .6061.27152.6061.60606v2.08c0 .33455-.2715.60606-.6061.60606z"/></g></svg>