<svg height="50" viewBox="0 0 50 50" width="50" xmlns="http://www.w3.org/2000/svg"><path d="m48.9589844.00166016c-.2899414 0-.5493164.11748047-.7384766.30595703l-13.6199219 13.61982421-22.140332 16.4083984c-.1198242-1.0558593-.5111328-2.096582-1.1902344-3.0121093-1.2267578-1.6541016-3.11357419-2.5267578-5.024707-2.5267578-1.29462891 0-2.59931641.3998046-3.71923828 1.23125-2.77167969 2.0553711-3.3515625 5.9708007-1.29541016 8.7432617 1.22675781 1.652539 3.11347656 2.5252929 5.02460938 2.5252929 1.25507812 0 2.51923828-.3768554 3.61552734-1.1566406l.88955082.8911133c.4074218.4058594 1.0666015.4058594 1.4732421 0 .4066407-.4074219.4066407-1.0666016 0-1.4740234l-.8880859-.888086c.3295899-.4638672.5905274-.9659179.7804688-1.4892578l18.183789-13.4924805-13.4910156 18.1845704c-.5249023.1907226-1.0261719.4500976-1.4900391.7796875l-.8849609-.884961c-.4074219-.4058594-1.0666016-.4058594-1.4732422 0-.4066406.4074219-.4066406 1.0681641 0 1.4740235l.8857422.8849609c-1.9668945 2.7664062-1.3679688 6.6100586 1.3702148 8.640918 1.1192383.8316406 2.4246094 1.2313476 3.7192383 1.2313476 1.9111328 0 3.7979492-.8728515 5.0239258-2.5268555 2.0568359-2.7708984 1.4770508-6.6863281-1.2955078-8.743164-.9155274-.6805664-1.9561524-1.0711914-3.0128906-1.1902344l16.4129882-22.1373047 13.6202149-13.62041013c.1892578-.18847656.3051758-.44863281.3051758-.73623047 0-.57519531-.4668946-1.04208984-1.040625-1.04208984zm-38.5869141 31.65556644c-.1632812 1.1016601-.74541014 2.0736328-1.63876952 2.7374023-.72402344.5371094-1.58085937.8208984-2.47802734.8208984-1.33583985 0-2.55732422-.6149414-3.3515625-1.6845703-1.36865235-1.846289-.98115235-4.4617187.86367187-5.8289062.72402344-.5371094 1.58076172-.8208985 2.47802735-.8208985 1.3359375 0 2.55742187.613379 3.3515625 1.6845704.66289064.8926757.93837894 1.9913085.77509764 3.0915039zm11.0610352 8.7432617c1.8455078 1.3702148 2.2323242 3.9855469.8636718 5.8288086-.7942382 1.0711914-2.0157226 1.6845703-3.3507812 1.6845703-.897168 0-1.7539063-.2837891-2.4780274-.8208985-.8941406-.662207-1.4762695-1.6326171-1.6387695-2.7342773-.1632812-1.1016602.1121094-2.200293.7750977-3.0945312.7942383-1.0696289 2.0157226-1.6845704 3.3515625-1.6845704.8971679 0 1.753125.2837891 2.4772461.8208985z" fill="#333"/></svg>