<svg height="48" viewBox="0 0 50 48" width="50" xmlns="http://www.w3.org/2000/svg"><g fill="#333" fill-rule="evenodd"><path d="m16.3847871 45.4529076h-1.6614745c-.9293874.913811-1.9470405 1.6770509-3.0581516 2.2949117h4.7196261c.285566 0 .5192108-.2336448.5192108-.5192108v-1.2564901c0-.285566-.2336448-.5192108-.5192108-.5192108z"/><path d="m26.1199896 45.4529076h-6.3343717c-.285566 0-.5192108.2336448-.5192108.5192108v1.2564901c0 .285566.2336448.5192108.5192108.5192108h6.3343717c.285566 0 .5192108-.2336448.5192108-.5192108v-1.2564901c0-.285566-.2336448-.5192108-.5192108-.5192108z"/><path d="m35.8551921 45.4529076h-6.3343717c-.285566 0-.5192108.2336448-.5192108.5192108v1.2564901c0 .285566.2336448.5192108.5192108.5192108h6.3343717c.2855659 0 .5192108-.2336448.5192108-.5192108v-1.2564901c0-.285566-.2336449-.5192108-.5192108-.5192108z"/><path d="m45.5903946 45.4529076h-6.3343718c-.2855659 0-.5192108.2336448-.5192108.5192108v1.2564901c0 .285566.2336449.5192108.5192108.5192108h6.3343718c.2855659 0 .5192108-.2336448.5192108-.5192108v-1.2564901c0-.285566-.2336449-.5192108-.5192108-.5192108z"/><path d="m16.4159398 40.0479751c3.4320353-6.6666667 4.4964174-8.4268432 5.872326-9.423676l-3.0477674-3.0477674-19.16407057 19.1640706c-.14018692.1401869-.07788162.3790239.10903427.4309449.70612669.2024923 2.26375908.576376 4.20560747.576376 1.54724819 0 3.33852545-.2388889 5.14018692-.9813085.79439251-.3271028 1.59397711-.7580477 2.37279331-1.3084112 1.6510385-1.1786604 3.2190551-2.9024403 4.51189-5.4102284z"/><path d="m46.8001558.86313603c-.5451714-.54517134-1.2564902-.81516095-1.967757-.81516095-.7113188 0-1.4226376.26998961-1.9626688.81516095l-23.2762201 23.27622017c-.332243.3322949-.332243.8722741 0 1.204569l1.4226376 1.4225857 2.3779854-2.3779855 6.7964694-6.7964693 5.5036345-5.5036345c.0362928-.0363448.0674974-.0674974.1038421-.0934579.0051921-.0051922.0155763-.0103843.0207165-.0155764.0155764-.0155763.0363448-.0259605.0571651-.0415368.5658879-.4049845 1.3499481-.3530634 1.8587747.1505711l.2024403.2024922c.4465732.4465213.5399792 1.1214953.2752336 1.6614746-.0675493.1349948-.1610072.2647975-.2752336.3790239l-7.3364486 7.3312564-5.0934579 5.0935099-2.2481828 2.2481828 1.4225857 1.4225856c.1661474.1661475.384216.2492731.6023364.2492731.2180166 0 .4360852-.0831256.6022845-.2492731l23.2762202-23.2762201c1.0851506-1.08515058 1.0851506-2.84527519 0-3.93042576z"/></g></svg>