<svg height="37" viewBox="0 0 50 37" width="50" xmlns="http://www.w3.org/2000/svg"><path d="m48.7142857 23.9435216h-13.7669435l-2.1083057-12.6475083c-.0906976-.5460133-.5641196-.94701-1.1159468-.94701-.0056478 0-.0101329 0-.0147841 0-.5596345.0044851-1.0297342.419103-1.1091362.9709303l-2.0775747 14.5518272-2.4707641-24.69933555c-.0589701-.56976744-.5323921-1.00598007-1.1034884-1.01960133-.0079734 0-.0159469 0-.0237542 0-.5631229 0-1.0421927.41345515-1.1215946.97209302l-3.2593024 22.81860466h-1.5622923l-2.0300665-7.1066445c-.1438538-.5029901-.6332226-.8553156-1.1295681-.8212625-.5199335.0181063-.9596345.3873754-1.0682724.8961794l-1.485216 7.0318937h-12.13438533c-.62641196 0-1.13289037.5064784-1.13289037 1.1328904 0 .6275747.50647841 1.1328903 1.13289037 1.1328903h13.05083053c.5347176 0 .99701-.3739202 1.1079735-.8983388l.7318936-3.4644519 1.0116279 3.5403655c.1393688.488206.5857143.8224252 1.0910299.8224252h3.3986711c.5641196 0 1.0421927-.4134551 1.1215947-.9709302l2.0777409-14.5508306 2.4707641 24.6981728c.0589701.5709302.532392 1.0059801 1.1034884 1.0196013h.0237541c.563123 0 1.0421927-.4134551 1.1215947-.9709302l2.3632891-16.5446844 1.0626245 6.3724253c.0906977.5460132.5641196.947176 1.1171097.947176h14.7275747c.626412 0 1.1328904-.5064784 1.1328904-1.1328903-.0001661-.6265781-.5066445-1.1330565-1.1330565-1.1330565z" fill="#333" fill-rule="evenodd"/></svg>