<svg height="50" viewBox="0 0 29 50" width="29" xmlns="http://www.w3.org/2000/svg"><g fill="#333" fill-rule="evenodd"><path d="m21.9064516 4.85-4.1645161-.69435484v-.1233871c0-.30564516-.1725807-.58467741-.4459678-.72177419l-6.4548387-3.21854839c-.1088709-.05403225-.2274193-.09193548-.357258-.09193548h-9.67741939c-.44596774 0-.80645161.36048387-.80645161.80645161v11.29032259c0 .4459677.36048387.8064516.80645161.8064516h2.41935484v4.8387097h-.80645161c-.44596774 0-.80645161.3604839-.80645161.8064516v30.6451613c0 .4459677.36048387.8064516.80645161.8064516h6.4516129c.44596774 0 .80645161-.3604839.80645161-.8064516v-30.6451613c0-.4459677-.36048387-.8064516-.80645161-.8064516h-.80645161v-4.8387097h2.41935487c.1298387 0 .2483871-.0379032.357258-.0919355l.0040323.0072581 6.4516129-3.22580646c.2725806-.13709678.4451613-.41612904.4451613-.7217742v-.12338709l4.1645161-.69435484c.3887097-.06451613.6741936-.40080646.6741936-.79516129v-1.61290323c0-.39435484-.2854839-.73064516-.6741936-.79516129zm-13.84193547 14.5048387v1.6129032h-4.83870968v-1.6129032zm-4.83870968 29.0322581v-25.8064516h4.83870968v11.2903225h-2.41935484c-.44596774 0-.80645161.3604839-.80645161.8064517v9.6774193c0 .4459678.36048387.8064516.80645161.8064516h2.41935484v3.2258065zm3.22580645-8.0645162h1.61290323v3.2258065h-1.61290323zm0-1.6129032v-3.2258064h1.61290323v3.2258064zm0-20.9677419h-1.61290322v-4.8387097h1.61290322zm3.22580645-6.4516129h-8.06451612v-9.67741937h8.06451612zm6.45161295-2.91774195-4.8387097 2.41935485v-8.68064518l4.8387097 2.41935484zm4.8387096-1.79758065-3.2258064.53790323v-1.32258065l3.2258064.53709677z" fill-rule="nonzero"/><path d="m23.6888499 1.21354638h3.4212575v1.61265966h-3.4212575z" transform="matrix(.70710678 -.70710678 .70710678 .70710678 6.011067 18.551752)"/><path d="m24.5923423 9.17917248h1.6126597v3.42125742h-1.6126597z" transform="matrix(.70710678 -.70710678 .70710678 .70710678 -.261153 21.149122)"/><path d="m25 5.64516129h3.2258065v1.61290323h-3.2258065z"/></g></svg>